<svg xmlns="http://www.w3.org/2000/svg" viewBox="0 0 878.69 340.82"><defs><style>.cls-1,.cls-11,.cls-14,.cls-6,.cls-8{fill:#fff;}.cls-1,.cls-5{stroke:#fff;stroke-miterlimit:10;}.cls-1{opacity:0.5;}.cls-2{fill:#fbea2e;}.cls-3{fill:#d62839;}.cls-4{fill:#ffad33;}.cls-5{fill:none;stroke-width:2px;}.cls-6,.cls-7,.cls-8{font-size:11px;}.cls-11,.cls-14,.cls-6{font-family:Roboto-Regular, Roboto;}.cls-7{fill:#121417;}.cls-7,.cls-8{font-family:Roboto-Bold, Roboto;font-weight:700;}.cls-9{letter-spacing:0.02em;}.cls-10{letter-spacing:-0.01em;}.cls-11{font-size:12px;}.cls-12{letter-spacing:-0.01em;}.cls-13{letter-spacing:-0.01em;}.cls-14{font-size:19px;}</style></defs><title>episodiosRecurso 1</title><g id="Capa_2" data-name="Capa 2"><g id="Capa_4" data-name="Capa 4"><line class="cls-1" x1="239.77" y1="95.22" x2="239.77" y2="321.5"/><line class="cls-1" x1="449.97" y1="95.22" x2="449.97" y2="321.5"/><line class="cls-1" x1="659.33" y1="95.22" x2="659.33" y2="321.5"/><line class="cls-1" x1="869.37" y1="95.22" x2="869.37" y2="321.5"/></g><g id="Capa_5" data-name="Capa 5"><rect class="cls-2" x="29.88" y="109.93" width="390.3" height="27.23"/><rect class="cls-2" x="29.88" y="152.09" width="180.72" height="27.23"/><rect class="cls-3" x="356.73" y="152.09" width="55.49" height="27.23" rx="4.34"/><rect class="cls-3" x="361.97" y="194.74" width="24.46" height="27.23" rx="4.34"/><rect class="cls-3" x="361.97" y="194.74" width="24.46" height="27.23" rx="4.34"/><rect class="cls-3" x="278.73" y="236.48" width="32.06" height="27.23" rx="4.34"/><rect class="cls-3" x="128.23" y="279.16" width="19.76" height="27.23" rx="4.34"/><rect class="cls-3" x="643.84" y="109.93" width="83.3" height="27.23" rx="4.34"/><rect class="cls-2" x="29.88" y="194.74" width="222.55" height="27.23"/><rect class="cls-4" x="252.43" y="194.74" width="122.55" height="27.23"/><rect class="cls-2" x="29.88" y="236.48" width="205.35" height="27.23"/><rect class="cls-4" x="235.23" y="236.48" width="55.15" height="27.23"/><rect class="cls-2" x="29.88" y="279.16" width="87.7" height="27.23"/><rect class="cls-4" x="117.58" y="279.16" width="21.3" height="27.23"/><rect class="cls-2" x="312.43" y="71.03" width="11.49" height="11.49"/><rect class="cls-4" x="374.39" y="71.03" width="11.49" height="11.49"/><rect class="cls-3" x="481.63" y="71.03" width="11.49" height="11.49"/><rect class="cls-4" x="210.6" y="152.09" width="154.68" height="27.23"/><rect class="cls-4" x="420.18" y="109.93" width="231.4" height="27.23"/></g><g id="Capa_3" data-name="Capa 3"><line class="cls-5" x1="29.88" y1="95.22" x2="29.88" y2="321.5"/><text class="cls-6" transform="translate(0 297.11)">2019</text><text class="cls-6" transform="translate(26.73 337.83)">0</text><text class="cls-6" transform="translate(233.49 337.83)">50</text><text class="cls-7" transform="translate(404.17 127.45)">93</text><text class="cls-7" transform="translate(193.91 169.84)">43</text><text class="cls-7" transform="translate(235.89 212.43)">53</text><text class="cls-7" transform="translate(218.84 254.3)">49</text><text class="cls-7" transform="translate(101.57 297.2)">21</text><text class="cls-7" transform="translate(357.51 212.43)">29</text><text class="cls-7" transform="translate(377.41 212.33)">3</text><text class="cls-8" transform="translate(397.74 212.33)">85</text><text class="cls-7" transform="translate(348.99 169.83)">37</text><text class="cls-7" transform="translate(395.02 169.79)">11</text><text class="cls-8" transform="translate(422.6 169.79)">91</text><text class="cls-7" transform="translate(273.62 254.3)">13</text><text class="cls-7" transform="translate(300.87 254.26)">5</text><text class="cls-8" transform="translate(322.16 254.24)">67</text><text class="cls-7" transform="translate(128.75 297.2)">5</text><text class="cls-7" transform="translate(140.3 297.17)">2</text><text class="cls-8" transform="translate(158.15 297.15)">28</text><text class="cls-7" transform="translate(710.64 127.88)">18</text><text class="cls-7" transform="translate(634.89 127.88)">55</text><text class="cls-8" transform="translate(737.44 127.88)">166</text><text class="cls-6" transform="translate(440.65 337.83)">100</text><text class="cls-6" transform="translate(331.56 81.07)">Ale<tspan class="cls-9" x="15.67" y="0">r</tspan><tspan x="19.66" y="0">ta</tspan></text><text class="cls-6" transform="translate(393.48 81.07)">P<tspan class="cls-10" x="6.94" y="0">r</tspan><tspan x="10.56" y="0">eeme</tspan><tspan class="cls-10" x="37.68" y="0">r</tspan><tspan x="41.3" y="0">gencia</tspan></text><text class="cls-6" transform="translate(500.11 81.08)">Eme<tspan class="cls-10" x="21.72" y="0">r</tspan><tspan x="25.34" y="0">gencia</tspan></text><text class="cls-6" transform="translate(650.01 337.83)">150</text><text class="cls-6" transform="translate(860.05 337.83)">200</text><text class="cls-6" transform="translate(0.07 255.03)">2018</text><text class="cls-6" transform="translate(0.07 212.27)">2017</text><text class="cls-6" transform="translate(0.1 170)">2016</text><text class="cls-6" transform="translate(0.1 127.46)">2015</text><text class="cls-11" transform="translate(355.95 43.62)">Concón - Quinte<tspan class="cls-12" x="84.95" y="0">r</tspan><tspan x="88.89" y="0">o - Puchunc</tspan><tspan class="cls-13" x="151.58" y="0">a</tspan><tspan x="158.02" y="0">ví</tspan></text><text class="cls-14" transform="translate(361.85 16.25)">Episodios por SO2</text></g></g></svg>