<svg xmlns="http://www.w3.org/2000/svg" viewBox="0 0 587.47 368.02"><defs><style>.cls-1,.cls-10,.cls-11,.cls-2,.cls-6,.cls-8{fill:#fff;}.cls-1{stroke:#666;stroke-miterlimit:10;opacity:0.51;}.cls-2{font-size:11px;}.cls-10,.cls-11,.cls-2{font-family:CenturyGothic, Century Gothic;}.cls-3{fill:#175676;}.cls-4{fill:#d62839;}.cls-5{fill:#ffad33;}.cls-7{fill:#666;}.cls-8,.cls-9{font-size:9px;font-family:CenturyGothic-Bold, Century Gothic;font-weight:700;}.cls-9{fill:#121417;}.cls-10{font-size:12px;}.cls-11{font-size:19px;}</style></defs><title>episodiosRecurso 3</title><g id="Capa_2" data-name="Capa 2"><g id="Capa_3" data-name="Capa 3"><line class="cls-1" x1="94.25" y1="63.41" x2="94.25" y2="314.41"/><line class="cls-1" x1="147.25" y1="63.41" x2="147.25" y2="314.41"/><line class="cls-1" x1="201.25" y1="63.41" x2="201.25" y2="314.41"/><line class="cls-1" x1="255.25" y1="63.41" x2="255.25" y2="314.41"/><line class="cls-1" x1="309.25" y1="63.41" x2="309.25" y2="314.41"/><line class="cls-1" x1="362.25" y1="63.41" x2="362.25" y2="314.41"/><line class="cls-1" x1="416.25" y1="63.41" x2="416.25" y2="314.41"/><line class="cls-1" x1="470.25" y1="63.41" x2="470.25" y2="314.41"/><line class="cls-1" x1="523.25" y1="63.41" x2="523.25" y2="314.41"/><line class="cls-1" x1="578.25" y1="63.41" x2="578.25" y2="314.41"/><text class="cls-2" transform="translate(37.13 333.5)">0</text><text class="cls-2" transform="translate(0 293.14)">2019</text><text class="cls-2" transform="translate(0.44 243.14)">2018</text><text class="cls-2" transform="translate(0.44 193.14)">2017</text><text class="cls-2" transform="translate(0.47 142.16)">2016</text><text class="cls-2" transform="translate(0.47 92.15)">2015</text><text class="cls-2" transform="translate(88.15 333.5)">10</text><text class="cls-2" transform="translate(141.12 333.5)">20</text><text class="cls-2" transform="translate(195.12 333.5)">30</text><text class="cls-2" transform="translate(249.12 333.5)">40</text><text class="cls-2" transform="translate(356.12 333.5)">60</text><text class="cls-2" transform="translate(410.11 333.5)">70</text><text class="cls-2" transform="translate(464.12 333.5)">80</text><text class="cls-2" transform="translate(517.12 333.5)">90</text><text class="cls-2" transform="translate(569.02 333.5)">100</text><text class="cls-2" transform="translate(303.14 333.5)">50</text></g><g id="Capa_2-2" data-name="Capa 2"><rect class="cls-3" x="40.25" y="74.41" width="97" height="8"/><rect class="cls-3" x="40.25" y="124.36" width="58.49" height="8.04"/><rect class="cls-3" x="40.25" y="174.93" width="15.5" height="8.04"/><rect class="cls-4" x="40.25" y="185.36" width="155.51" height="8.04"/><rect class="cls-3" x="40.25" y="225.36" width="26.48" height="8.04"/><rect class="cls-3" x="40.25" y="275.36" width="10.46" height="8.04"/><rect class="cls-4" x="40.25" y="285.36" width="26.51" height="8.04"/><rect class="cls-5" x="40.25" y="295.36" width="112.5" height="8.04"/><rect class="cls-4" x="40.25" y="235.36" width="69.5" height="8.04"/><rect class="cls-5" x="40.25" y="245.36" width="262.46" height="8.04"/><rect class="cls-5" x="40.25" y="195.36" width="284.49" height="8.04"/><rect class="cls-4" x="40.25" y="134.4" width="198.5" height="8.01"/><rect class="cls-5" x="40.25" y="144.4" width="230.46" height="8.01"/><rect class="cls-4" x="40.25" y="84.38" width="294.5" height="8.02"/><rect class="cls-5" x="40.25" y="94.38" width="498.37" height="8.02"/><rect class="cls-6" x="39.64" y="63.41" width="1.11" height="251"/><rect class="cls-7" x="53.5" y="311.11" width="0.17" height="0.17"/></g><g id="Capa_4" data-name="Capa 4"><text class="cls-8" transform="translate(126.48 81.77)">18</text><text class="cls-8" transform="translate(89.11 131.54)">11</text><text class="cls-8" transform="translate(227.74 141.52)">37</text><text class="cls-9" transform="translate(260.13 151.49)">43</text><text class="cls-8" transform="translate(50.03 182.13)">3</text><text class="cls-8" transform="translate(185.09 192.51)">29</text><text class="cls-9" transform="translate(314.21 202.59)">53</text><text class="cls-8" transform="translate(61.25 232.47)">5</text><text class="cls-8" transform="translate(98.98 242.62)">13</text><text class="cls-9" transform="translate(292.21 252.56)">49</text><text class="cls-8" transform="translate(45.14 282.66)">2 </text><text class="cls-8" transform="translate(61.23 292.63)">5 </text><text class="cls-9" transform="translate(143.36 302.5)">21</text><text class="cls-8" transform="translate(323.78 91.66)">55</text><text class="cls-9" transform="translate(527.85 101.58)">93</text><text class="cls-10" transform="translate(199.22 43.79)">Concón - Quintero - Puchuncaví</text><text class="cls-10" transform="translate(155.05 363.58)">Emergencia</text><text class="cls-10" transform="translate(265.05 363.58)">Preemergencia</text><text class="cls-10" transform="translate(396.58 363.58)">Alerta</text><text class="cls-11" transform="translate(212.96 16.32)">Episodios por SO2</text><rect class="cls-3" x="135.05" y="352.79" width="12" height="12"/><rect class="cls-4" x="246.76" y="352.79" width="12" height="12"/><rect class="cls-5" x="377.58" y="352.79" width="12" height="12"/></g></g></svg>