<svg xmlns="http://www.w3.org/2000/svg" viewBox="0 0 1456.98 995.99"><defs><style>.cls-1,.cls-16,.cls-17,.cls-19,.cls-2,.cls-3{fill:none;}.cls-1,.cls-19{stroke:#d62839;}.cls-1,.cls-16,.cls-17,.cls-18,.cls-19,.cls-2,.cls-3{stroke-miterlimit:10;}.cls-1,.cls-2,.cls-3{stroke-width:5px;}.cls-17,.cls-18,.cls-2{stroke:#ffad33;}.cls-3{stroke:#175676;}.cls-4{fill:#c9c9c9;}.cls-5{fill:#333;}.cls-18,.cls-21,.cls-6{fill:#121417;}.cls-7{fill:#175676;}.cls-8{fill:#ffad33;}.cls-9{fill:#ffdead;}.cls-10{fill:#ffce85;}.cls-11{fill:#d62839;}.cls-12{fill:#e67e88;}.cls-13{fill:#6b141d;}.cls-14{fill:#457891;}.cls-15{fill:#b5c9d3;}.cls-16{stroke:#121417;}.cls-16,.cls-17,.cls-19{stroke-width:2px;}.cls-20,.cls-21{font-size:18px;font-family:CenturyGothic, Century Gothic;letter-spacing:0.07em;}.cls-20{fill:#fff;}</style></defs><title>impactoRecurso 3</title><g id="Capa_2" data-name="Capa 2"><g id="Capa_1-2" data-name="Capa 1"><path class="cls-1" d="M732,584.18c.36,140.5,129.92,110,217.62,110,157.07,0,181.88.67,181.88,155"/><path class="cls-1" d="M732,185.18c.36,140.5,129.27,110,216.53,110,156.29,0,179.47-21,179.47,108"/><path class="cls-2" d="M330.05,584.94c.33,122.24,265.87,39.3,344.34,89.24,55,35,34,141,34,141"/><path class="cls-3" d="M1131.49,584.94c-.34,122.24-272.24,39.3-352.59,89.24-56.32,35-34.81,141-34.81,141"/><line class="cls-2" x1="325.99" y1="580.68" x2="325.99" y2="814.68"/><path class="cls-4" d="M1153.6,790.68h-54.22a22.2,22.2,0,0,0-19.28,11.19l-27.31,47.79a22.2,22.2,0,0,0,0,22l27.31,47.8a22.2,22.2,0,0,0,19.28,11.19h54.22a22.23,22.23,0,0,0,19.29-11.19l27.3-47.8a22.15,22.15,0,0,0,0-22l-27.3-47.79A22.23,22.23,0,0,0,1153.6,790.68Z"/><path class="cls-5" d="M1154.34,840.34c-18.72-3.23-45.2-1-52.82,3.43-5.82,3.35-21,4.55-33.33,3.35-2-.19-4.2.2-4.2.78v7.28h124V844.91c0-.58-2.56-.89-4.18-.49C1176,846.32,1163.81,842,1154.34,840.34Z"/><path class="cls-6" d="M1154.84,847.06c-18.72-3.24-45.2-1-52.82,3.43-5.82,3.35-21,4.54-33.33,3.35-2-.2-4.2.19-4.2.78v7.27h124V851.63c0-.59-2.56-.89-4.18-.5C1176.45,853,1164.31,848.7,1154.84,847.06Z"/><path class="cls-4" d="M353.6,790.68H299.38a22.2,22.2,0,0,0-19.28,11.19l-27.31,47.79a22.2,22.2,0,0,0,0,22l27.31,47.8a22.2,22.2,0,0,0,19.28,11.19H353.6a22.23,22.23,0,0,0,19.29-11.19l27.3-47.8a22.15,22.15,0,0,0,0-22l-27.3-47.79A22.23,22.23,0,0,0,353.6,790.68Z"/><line class="cls-2" x1="325.99" y1="174.68" x2="325.99" y2="403.68"/><line class="cls-1" x1="726.99" y1="174.18" x2="726.99" y2="403.68"/><path class="cls-2" d="M330,185.18c.33,140.5,120,110,201,110,145.09,0,168,20,167,108"/><path class="cls-7" d="M1154.45,852.72c-18.63-2.93-45-.87-52.59,3.09-5.79,3-20.9,4.11-33.19,3-2-.18-4.18.17-4.18.7v6.57H1188V857c0-.53-2.55-.8-4.16-.44C1176,858.26,1163.89,854.2,1154.45,852.72Z"/><path class="cls-3" d="M1126,184.18c-8,159-122,145-203,145-145.08,0-168-20-168,74"/><path class="cls-4" d="M353.19,44.68h-53.4a22.92,22.92,0,0,0-19.9,11.54L253,103.31a22.9,22.9,0,0,0,0,22.74l26.9,47.08a22.93,22.93,0,0,0,19.9,11.55h53.4a22.92,22.92,0,0,0,19.9-11.55L400,126.05a22.9,22.9,0,0,0,0-22.74l-26.9-47.09A22.91,22.91,0,0,0,353.19,44.68Z"/><path class="cls-4" d="M753.35,44.68H699.63A22.64,22.64,0,0,0,680,56.09l-27.06,47.35a22.64,22.64,0,0,0,0,22.47L680,173.27a22.66,22.66,0,0,0,19.66,11.41h53.72A22.65,22.65,0,0,0,773,173.27l27.06-47.36a22.64,22.64,0,0,0,0-22.47L773,56.09A22.63,22.63,0,0,0,753.35,44.68Z"/><path class="cls-4" d="M1153.18,43.9h-53.37a23,23,0,0,0-19.93,11.57L1053,102.52a23,23,0,0,0,0,22.77l26.88,47.05a23,23,0,0,0,19.93,11.56h53.37a23,23,0,0,0,19.92-11.56l26.89-47a23,23,0,0,0,0-22.77l-26.89-47A23,23,0,0,0,1153.18,43.9Z"/><path class="cls-4" d="M353.6,444.68H299.38a22.2,22.2,0,0,0-19.28,11.19l-27.31,47.79a22.2,22.2,0,0,0,0,22l27.31,47.8a22.2,22.2,0,0,0,19.28,11.19H353.6a22.23,22.23,0,0,0,19.29-11.19l27.31-47.8a22.2,22.2,0,0,0,0-22l-27.31-47.79A22.23,22.23,0,0,0,353.6,444.68Z"/><line class="cls-1" x1="726.99" y1="519.18" x2="726.99" y2="800.68"/><path class="cls-4" d="M753.37,444.68H699.61A22.61,22.61,0,0,0,680,456.07L652.9,503.46a22.61,22.61,0,0,0,0,22.43L680,573.29a22.63,22.63,0,0,0,19.63,11.39h53.76A22.61,22.61,0,0,0,773,573.29l27.08-47.4a22.61,22.61,0,0,0,0-22.43L773,456.07A22.59,22.59,0,0,0,753.37,444.68Z"/><path class="cls-4" d="M1153.5,444.68h-54A22.39,22.39,0,0,0,1080,456l-27.2,47.61a22.41,22.41,0,0,0,0,22.22l27.2,47.6a22.4,22.4,0,0,0,19.45,11.29h54a22.4,22.4,0,0,0,19.44-11.29l27.2-47.6a22.36,22.36,0,0,0,0-22.22L1172.94,456A22.39,22.39,0,0,0,1153.5,444.68Z"/><path class="cls-4" d="M753.6,790.68H699.38a22.2,22.2,0,0,0-19.28,11.19l-27.31,47.79a22.2,22.2,0,0,0,0,22l27.31,47.8a22.2,22.2,0,0,0,19.28,11.19H753.6a22.23,22.23,0,0,0,19.29-11.19l27.3-47.8a22.15,22.15,0,0,0,0-22l-27.3-47.79A22.23,22.23,0,0,0,753.6,790.68Z"/><path class="cls-8" d="M351.84,101a411.12,411.12,0,0,1-22.75-46.58,2.91,2.91,0,0,0-5.35,0,419.2,419.2,0,0,1-24.23,49.23,98.77,98.77,0,0,1-6.17,9.27,40.39,40.39,0,0,0-7.83,25.1,41,41,0,0,0,82-1.12,40.37,40.37,0,0,0-7.87-24A114.41,114.41,0,0,1,351.84,101Z"/><path class="cls-9" d="M319.64,162.57c-.09-1.54-10.52-3.2-16.84-11.92s-1.4-18.89-6.05-19.64c-1.49-.25-4.46,13.93,1.86,22.65S319.85,166,319.64,162.57Z"/><path class="cls-10" d="M325.86,177.61a40.89,40.89,0,0,0,41.63-40.76,40.37,40.37,0,0,0-7.87-24A114.41,114.41,0,0,1,351.84,101c-13.55-24.22-19.68-38.82-22.75-46.58a2.91,2.91,0,0,0-2.6-1.64"/><path class="cls-11" d="M752,93.77c-18.11-19.68-6.19-32.54-9.75-39.65-1.09-2.18-4.08-1.63-5.87,0C729.67,60.2,710,72.83,695.2,94.58c-2,3-14.8,19.8-13.63,44.71.93,20,21,38.09,44.95,38.39,25.15.32,45-18.43,45-39.42C771.49,122,762,104.66,752,93.77Z"/><path class="cls-12" d="M734.87,110c-.44,6-2.93,16.75-5.65,27.68C728,121,721,99.91,728.05,92.64c7.35-7.59-35.54-7-23.84,79.36.79,5.82,37.84,8.68,42.23,0C762.19,140.9,735.78,97.64,734.87,110Z"/><path class="cls-13" d="M736.55,126.45c-.33,4.35-5.35,14.1-7.38,22.06-.9-12.2-13.33-27.37-8.09-32.66,5.47-5.53-19.22-5.27-10.52,57.64.59,4.24,28.17,6.32,31.43,0C753.71,150.84,737.22,117.42,736.55,126.45Z"/><path class="cls-7" d="M1142.18,112.83l0-44c0-3.61-3.39-5.19-6.25-2.9l-40.22,32.2c-2.8,2.24-3.09,6.67-.55,8.18l32.53,17.84Z"/><path class="cls-14" d="M1121.92,164.36l-29.06-3c-3-.3-5-2.88-5-6.34l-.43-43.79c0-3.32,9.12-16.22,11.53-14.81l28.83,27.72Z"/><path class="cls-15" d="M1173.11,113.44l-30.64.3-9.18-45.36c0-3.36,9.8-5.72,12.41-4.69l23.82,9.52a8.81,8.81,0,0,1,5.23,7.26l3.69,26C1178.91,109.84,1176.19,113.41,1173.11,113.44Z"/><polygon class="cls-15" points="1127.74 124.13 1142.18 112.83 1161.2 138.82 1121.92 164.36 1127.74 124.13"/><path class="cls-14" d="M1142.18,112.83l32.2-8.85c3.73.66,5,5.57,2.53,9.58l-15.71,25.26Z"/><path class="cls-7" d="M757.29,534.48H756.1c-2.11,0-6.13-1.62-6.13-3.59l2.3-53.4a3.72,3.72,0,0,1,3.83-3.57h1.19a3.72,3.72,0,0,1,3.82,3.57l2.24,52.81C763.35,532.26,759.39,534.48,757.29,534.48Z"/><path class="cls-6" d="M684.45,533.87h57.88a0,0,0,0,1,0,0v34.81a0,0,0,0,1,0,0H681.49a0,0,0,0,1,0,0V536.83A3,3,0,0,1,684.45,533.87Z"/><path class="cls-11" d="M743,534.48h-1.19c-2.1,0-6.12-1.62-6.12-3.59l2.3-53.4a3.72,3.72,0,0,1,3.82-3.57H743a3.72,3.72,0,0,1,3.83,3.57L749,530.3C749,532.26,745.06,534.48,743,534.48Z"/><path class="cls-6" d="M730.87,531.18h36.6a3.52,3.52,0,0,1,3.52,3.52v34a0,0,0,0,1,0,0H727.36a0,0,0,0,1,0,0v-34A3.52,3.52,0,0,1,730.87,531.18Z"/><path class="cls-8" d="M738.82,464.55a5.41,5.41,0,0,0-2.55.64,4.27,4.27,0,0,0-.65-.29c0-.17,0-.33,0-.5,0-5.25-4.36-9.55-9.88-9.93v0a4.93,4.93,0,0,0-5.09-4.76,5.19,5.19,0,0,0-4.19,2.05,11.08,11.08,0,0,0-6.48-2.05c-5.9,0-10.67,4.46-10.67,10s4.77,10,10.67,10a11.25,11.25,0,0,0,5.17-1.25,10.73,10.73,0,0,0,9.8,6,11.17,11.17,0,0,0,5.48-1.42,25.92,25.92,0,0,1,8.37,1.12,4.77,4.77,0,1,0,0-9.52Z"/><path class="cls-16" d="M677.59,876.51h86.53s15.44-.46,14,14c-1,10.28-20.58,8.88-19.17,0"/><path class="cls-16" d="M693,867.63h75.82a12,12,0,0,0,6.92-2.11c2.16-1.52,4-4,2.86-7.71-2.34-7.49-12.25-2.24-11.23,1.87"/><path class="cls-16" d="M664.49,854.53h80.33a23.34,23.34,0,0,0,10.14-2c4.48-2.17,11.79-8,4.95-16.67-7-8.89-22.92-2.34-17.77,10.29"/><circle class="cls-11" cx="697.47" cy="832.31" r="10.52"/><circle class="cls-7" cx="778.72" cy="836.26" r="8.58"/><circle class="cls-8" cx="712.18" cy="897.39" r="11.01"/><circle class="cls-7" cx="671.74" cy="865.06" r="7.25"/><ellipse class="cls-6" cx="326.37" cy="865.42" rx="71.38" ry="19.15"/><ellipse class="cls-8" cx="326.51" cy="864.08" rx="45.49" ry="9.04"/><path class="cls-8" d="M309.62,827c4.52,6.35,6.86,10.32,8.1,12.4.38.63,1,.46,1-.28-.06-2.86-.21-8.07.27-15.66.07-1,.2-2,.35-3a17.7,17.7,0,0,0-.69-7.74c-1.94-6.3-6.71-10.5-10.74-9.43-4.22,1.11-6.09,7.47-4.17,14.1a17.51,17.51,0,0,0,3.47,6.59C308,824.9,308.84,825.91,309.62,827Z"/><path class="cls-8" d="M341.35,816.12c.42,4.86.42,7.74.43,9.25,0,.46.39.56.61.16.88-1.56,2.45-4.41,5.12-8.34.37-.54.76-1,1.15-1.52a10.94,10.94,0,0,0,2.09-4.39c1-4-.28-7.78-2.78-8.49s-5.65,2.09-6.73,6.27a10.93,10.93,0,0,0-.22,4.65C341.16,814.49,341.28,815.3,341.35,816.12Z"/><path class="cls-8" d="M358.16,832.77c-1.9,6.45-3.35,10.14-4.1,12.09-.23.59.22.92.71.51,1.91-1.56,5.36-4.43,10.77-8.14.74-.51,1.49-1,2.24-1.38a15.26,15.26,0,0,0,4.89-4.58c3.25-4.67,3.55-10.14.69-12.31s-8.31-.16-11.79,4.67a15.43,15.43,0,0,0-2.63,5.86C358.73,830.57,358.49,831.67,358.16,832.77Z"/><path class="cls-8" d="M287.15,830.36c4.38,2.13,6.85,3.61,8.15,4.38.4.23.69,0,.46-.45-.89-1.55-2.53-4.36-4.53-8.67a18.78,18.78,0,0,1-.72-1.77,11.24,11.24,0,0,0-2.7-4c-2.95-2.88-6.82-3.75-8.71-2s-1.11,5.92,1.93,9a10.89,10.89,0,0,0,3.87,2.58C285.65,829.69,286.4,830,287.15,830.36Z"/><path class="cls-14" d="M1154.45,859c-18.63-2.71-45-.8-52.59,2.88-5.79,2.8-20.9,3.81-33.19,2.81-2-.17-4.18.16-4.18.65v6.1H1188v-7.74c0-.49-2.55-.74-4.16-.41C1176,864.83,1163.89,860.33,1154.45,859Z"/><path class="cls-5" d="M1188,876.11v-7.39c0-.45-2.55-.69-4.16-.38-7.83,1.47-19.91-1.89-29.35-3.16-18.63-2.5-45-.74-52.59,2.66-5.79,2.59-20.9,3.52-33.19,2.59-2-.15-4.18.15-4.18.61v5.63"/><path class="cls-6" d="M1154.34,869.34c-18.72-3.23-45.2-1-52.82,3.43-5.82,3.35-21,4.55-33.33,3.35-2-.19-4.2.2-4.2.78v7.28h124V873.91c0-.58-2.56-.89-4.18-.49C1176,875.32,1163.81,871,1154.34,869.34Z"/><polyline class="cls-17" points="326.49 516.85 359.49 516.68 359.49 571.43"/><polygon class="cls-6" points="314.16 573.18 292.49 573.18 297.71 468.68 309.75 468.68 314.16 573.18"/><polyline class="cls-17" points="319.49 507.68 319.49 484 345.49 484 345.49 523.68"/><path class="cls-8" d="M307.77,457.73a3.58,3.58,0,0,1,1.73.44,2.39,2.39,0,0,1,.43-.2v-.34a7,7,0,0,1,6.67-6.72v0a3.34,3.34,0,0,1,3.45-3.21,3.54,3.54,0,0,1,2.83,1.38,7.48,7.48,0,0,1,4.38-1.38,6.75,6.75,0,1,1,0,13.47,7.69,7.69,0,0,1-3.5-.84,7.25,7.25,0,0,1-6.62,4.06,7.56,7.56,0,0,1-3.71-1,3.58,3.58,0,0,1-2.21.76,3.52,3.52,0,0,1-1.72-.44,3.58,3.58,0,0,1-1.73.44,3.23,3.23,0,1,1,0-6.44Z"/><path class="cls-6" d="M318.68,505.18h1.41a10,10,0,0,1,10,10v58a0,0,0,0,1,0,0H308.68a0,0,0,0,1,0,0v-58A10,10,0,0,1,318.68,505.18Z"/><circle class="cls-18" cx="345.57" cy="545.77" r="21.92"/><rect class="cls-5" x="327.63" y="567.7" width="35.37" height="4.98"/><rect class="cls-6" x="1059.49" y="498.43" width="59.21" height="15.82"/><path class="cls-6" d="M1059.49,499.5c0-5.83,13.37-10.62,29.61-10.62s29.6,4.79,29.6,10.62v.13"/><polyline class="cls-19" points="1118.7 504.57 1144.77 504.65 1144.77 525.68"/><path class="cls-6" d="M1097.27,547.86h74.17a9,9,0,0,0,6-2.13l13-11.59H1087.38l3.64,10C1091.81,546.34,1094.37,547.86,1097.27,547.86Z"/><rect class="cls-6" x="1134.71" y="522.03" width="19.66" height="12.35"/><polygon class="cls-6" points="1174.03 534.37 1161.68 534.37 1164.43 506.48 1170.83 506.48 1174.03 534.37"/><rect class="cls-6" x="1093.1" y="529.34" width="19.66" height="5.03"/><rect class="cls-6" x="1093.1" y="523.4" width="19.66" height="5.03"/><text class="cls-20" transform="translate(274.53 18.32) scale(1 1.1)">PETRÓLEO</text><text class="cls-20" transform="translate(274.53 428.32) scale(1 1.1)">REFINERÍA</text><text class="cls-20" transform="translate(639.01 428.32) scale(1 1.1)">TERMOELÉCTRICA</text><text class="cls-20" transform="translate(1037.01 428.32) scale(1 1.1)">TERMINAL DE GAS</text><text class="cls-20" transform="translate(1081.01 18.32) scale(1 1.1)">CARBÓN</text><text class="cls-20" transform="translate(657.51 18.3) scale(1 1.1)">GAS NATURAL</text><text class="cls-20" transform="translate(1050.45 968.12) scale(1 1.1)">SEDIMENTOS DE <tspan x="33.58" y="19.64">CARBÓN</tspan></text><text class="cls-20" transform="translate(659.62 968.32) scale(1 1.1)">EMISIONES DE <tspan x="-10.8" y="19.64">GASES TÓXICOS</tspan></text><text class="cls-20" transform="translate(259.04 968.32) scale(1 1.1)">DERRAMES DE <tspan x="18.65" y="19.64">PETRÓLEO</tspan></text><text class="cls-20" transform="translate(39.51 117.86) scale(1 1.1)">RECURSOS:</text><text class="cls-20" transform="translate(39.51 517.86) scale(1 1.1)">INDUSTRIA:</text><text class="cls-20" transform="translate(0 865.39) scale(1 1.1)">CONTAMINACIÓN:</text><text class="cls-21" transform="translate(1303.51 119.86) scale(1 1.1)">RECURSOS:</text><text class="cls-21" transform="translate(1303.51 519.86) scale(1 1.1)">INDUSTRIA:</text><text class="cls-21" transform="translate(1264 867.39) scale(1 1.1)">CONTAMINACIÓN:</text></g></g></svg>