<svg xmlns="http://www.w3.org/2000/svg" viewBox="0 0 1215.97 995.99"><defs><style>.cls-1,.cls-19,.cls-2,.cls-23,.cls-25,.cls-3{fill:none;}.cls-1,.cls-25{stroke:#d62839;}.cls-1,.cls-10,.cls-11,.cls-13,.cls-16,.cls-17,.cls-18,.cls-19,.cls-2,.cls-20,.cls-21,.cls-23,.cls-24,.cls-25,.cls-3,.cls-6,.cls-7{stroke-miterlimit:10;}.cls-1,.cls-2,.cls-3{stroke-width:5px;}.cls-2,.cls-23,.cls-24{stroke:#ffad33;}.cls-3{stroke:#175676;}.cls-4{fill:#c9c9c9;}.cls-26,.cls-5{fill:#fff;}.cls-6{fill:#333;}.cls-10,.cls-11,.cls-13,.cls-16,.cls-17,.cls-18,.cls-20,.cls-21,.cls-6,.cls-7{stroke:#fff;}.cls-6,.cls-7{stroke-width:0.5px;}.cls-18,.cls-24,.cls-7{fill:#121417;}.cls-8{fill:#175676;}.cls-21,.cls-9{fill:#ffad33;}.cls-10{fill:#ffdead;}.cls-11{fill:#ffce85;}.cls-12,.cls-20{fill:#d62839;}.cls-13{fill:#e67e88;}.cls-14{fill:#6b141d;}.cls-15{fill:#f7f6f7;}.cls-16,.cls-22{fill:#457891;}.cls-17{fill:#b5c9d3;}.cls-19{stroke:#121417;}.cls-19,.cls-23,.cls-25{stroke-width:2px;}.cls-26{font-size:18px;font-family:CenturyGothic, Century Gothic;letter-spacing:0.07em;}</style></defs><title>personaRecurso 1</title><g id="Capa_2" data-name="Capa 2"><g id="Capa_1-2" data-name="Capa 1"><path class="cls-1" d="M732,584.18c.36,140.5,129.92,110,217.62,110,157.07,0,181.88.67,181.88,155"/><path class="cls-1" d="M732,185.18c.36,140.5,129.27,110,216.53,110,156.29,0,179.47-21,179.47,108"/><path class="cls-2" d="M330.05,584.94c.33,122.24,265.87,39.3,344.34,89.24,55,35,34,141,34,141"/><path class="cls-3" d="M1131.49,584.94c-.34,122.24-272.24,39.3-352.59,89.24-56.32,35-34.81,141-34.81,141"/><line class="cls-2" x1="325.99" y1="580.68" x2="325.99" y2="814.68"/><path class="cls-4" d="M1099.38,930.18a21.78,21.78,0,0,1-18.85-10.94l-27.31-47.79a21.82,21.82,0,0,1,0-21.54l27.31-47.8a21.77,21.77,0,0,1,18.85-10.93h54.22a21.76,21.76,0,0,1,18.85,10.93l27.31,47.8a21.77,21.77,0,0,1,0,21.54l-27.31,47.79a21.77,21.77,0,0,1-18.85,10.94Z"/><path class="cls-5" d="M1153.6,791.68A21.27,21.27,0,0,1,1172,802.36l27.31,47.79a21.3,21.3,0,0,1,0,21.05L1172,919a21.28,21.28,0,0,1-18.42,10.69h-54.22A21.25,21.25,0,0,1,1081,919l-27.31-47.79a21.3,21.3,0,0,1,0-21.05L1081,802.36a21.24,21.24,0,0,1,18.41-10.68h54.22m0-1h-54.22a22.2,22.2,0,0,0-19.28,11.19l-27.31,47.79a22.2,22.2,0,0,0,0,22l27.31,47.8a22.2,22.2,0,0,0,19.28,11.19h54.22a22.23,22.23,0,0,0,19.29-11.19l27.31-47.8a22.2,22.2,0,0,0,0-22l-27.31-47.79a22.23,22.23,0,0,0-19.29-11.19Z"/><path class="cls-6" d="M1154.34,840.34c-18.72-3.23-45.2-1-52.82,3.43-5.82,3.35-21,4.55-33.33,3.35-2-.19-4.2.2-4.2.78v7.28h124V844.91c0-.58-2.56-.89-4.18-.49C1176,846.32,1163.81,842,1154.34,840.34Z"/><path class="cls-7" d="M1154.84,847.06c-18.72-3.24-45.2-1-52.82,3.43-5.82,3.35-21,4.54-33.33,3.35-2-.2-4.2.19-4.2.78v7.27h124V851.63c0-.59-2.56-.89-4.18-.5C1176.45,853,1164.31,848.7,1154.84,847.06Z"/><path class="cls-4" d="M299.38,930.18a21.78,21.78,0,0,1-18.85-10.94l-27.31-47.79a21.82,21.82,0,0,1,0-21.54l27.31-47.8a21.77,21.77,0,0,1,18.85-10.93H353.6a21.76,21.76,0,0,1,18.85,10.93l27.31,47.8a21.77,21.77,0,0,1,0,21.54l-27.31,47.79a21.77,21.77,0,0,1-18.85,10.94Z"/><path class="cls-5" d="M353.6,791.68A21.27,21.27,0,0,1,372,802.36l27.31,47.79a21.3,21.3,0,0,1,0,21.05L372,919a21.28,21.28,0,0,1-18.42,10.69H299.38A21.25,21.25,0,0,1,281,919L253.66,871.2a21.3,21.3,0,0,1,0-21.05L281,802.36a21.24,21.24,0,0,1,18.41-10.68H353.6m0-1H299.38a22.2,22.2,0,0,0-19.28,11.19l-27.31,47.79a22.2,22.2,0,0,0,0,22l27.31,47.8a22.2,22.2,0,0,0,19.28,11.19H353.6a22.23,22.23,0,0,0,19.29-11.19l27.3-47.8a22.15,22.15,0,0,0,0-22l-27.3-47.79a22.23,22.23,0,0,0-19.29-11.19Z"/><line class="cls-2" x1="325.99" y1="174.68" x2="325.99" y2="403.68"/><line class="cls-1" x1="726.99" y1="174.18" x2="726.99" y2="403.68"/><path class="cls-2" d="M330,185.18c.33,140.5,120,110,201,110,145.09,0,168,20,167,108"/><path class="cls-8" d="M1154.45,852.72c-18.63-2.93-45-.87-52.59,3.09-5.79,3-20.9,4.11-33.19,3-2-.18-4.18.17-4.18.7v6.57H1188V857c0-.53-2.55-.8-4.16-.44C1176,858.26,1163.89,854.2,1154.45,852.72Z"/><path class="cls-3" d="M1126,184.18c-8,159-122,145-203,145-145.08,0-168-20-168,74"/><path class="cls-4" d="M299.79,184.18a22.46,22.46,0,0,1-19.46-11.3L253.42,125.8a22.52,22.52,0,0,1,0-22.25l26.91-47.08a22.45,22.45,0,0,1,19.46-11.29h53.4a22.47,22.47,0,0,1,19.47,11.29l26.9,47.08a22.52,22.52,0,0,1,0,22.25l-26.9,47.08a22.48,22.48,0,0,1-19.47,11.3Z"/><path class="cls-5" d="M353.19,45.68a22,22,0,0,1,19,11l26.91,47.08a22,22,0,0,1,0,21.75l-26.91,47.08a22,22,0,0,1-19,11.05h-53.4a22,22,0,0,1-19-11.05l-26.9-47.08a22,22,0,0,1,0-21.75l26.9-47.08a22,22,0,0,1,19-11h53.4m0-1h-53.4a22.92,22.92,0,0,0-19.9,11.54L253,103.31a22.9,22.9,0,0,0,0,22.74l26.9,47.08a22.93,22.93,0,0,0,19.9,11.55h53.4a22.92,22.92,0,0,0,19.9-11.55L400,126.05a22.9,22.9,0,0,0,0-22.74l-26.9-47.09a22.91,22.91,0,0,0-19.9-11.54Z"/><path class="cls-4" d="M699.63,184.18A22.22,22.22,0,0,1,680.4,173l-27-47.36a22.19,22.19,0,0,1,0-22l27-47.35a22.2,22.2,0,0,1,19.23-11.16h53.72a22.19,22.19,0,0,1,19.23,11.16l27.06,47.35a22.24,22.24,0,0,1,0,22L772.58,173a22.21,22.21,0,0,1-19.23,11.16Z"/><path class="cls-5" d="M753.35,45.68a21.69,21.69,0,0,1,18.79,10.9l27.06,47.36a21.71,21.71,0,0,1,0,21.48l-27.06,47.35a21.68,21.68,0,0,1-18.79,10.91H699.63a21.69,21.69,0,0,1-18.79-10.91l-27.06-47.35a21.71,21.71,0,0,1,0-21.48l27.06-47.36a21.7,21.7,0,0,1,18.79-10.9h53.72m0-1H699.63A22.64,22.64,0,0,0,680,56.09l-27.06,47.35a22.64,22.64,0,0,0,0,22.47L680,173.27a22.66,22.66,0,0,0,19.66,11.41h53.72A22.65,22.65,0,0,0,773,173.27l27.06-47.36a22.64,22.64,0,0,0,0-22.47L773,56.09a22.63,22.63,0,0,0-19.66-11.41Z"/><path class="cls-4" d="M1099.81,183.4a22.48,22.48,0,0,1-19.49-11.31l-26.89-47a22.56,22.56,0,0,1,0-22.27l26.89-47.06a22.5,22.5,0,0,1,19.49-11.31h53.36a22.5,22.5,0,0,1,19.49,11.31l26.89,47.06a22.51,22.51,0,0,1,0,22.27l-26.89,47.05a22.48,22.48,0,0,1-19.49,11.31Z"/><path class="cls-5" d="M1153.18,44.9a22,22,0,0,1,19,11.06L1199.12,103a22,22,0,0,1,0,21.77l-26.89,47.06a22,22,0,0,1-19,11.05h-53.37a22,22,0,0,1-19.06-11.05l-26.89-47.06a22.06,22.06,0,0,1,0-21.77L1080.75,56a22,22,0,0,1,19.06-11.06h53.37m0-1h-53.37a23,23,0,0,0-19.93,11.57L1053,102.52a23,23,0,0,0,0,22.77l26.88,47.05a23,23,0,0,0,19.93,11.56h53.37a23,23,0,0,0,19.92-11.56l26.89-47a23,23,0,0,0,0-22.77l-26.89-47a23,23,0,0,0-19.92-11.57Z"/><path class="cls-4" d="M299.38,584.18a21.78,21.78,0,0,1-18.85-10.94l-27.31-47.79a21.82,21.82,0,0,1,0-21.54l27.31-47.8a21.77,21.77,0,0,1,18.85-10.93H353.6a21.76,21.76,0,0,1,18.85,10.93l27.31,47.8a21.77,21.77,0,0,1,0,21.54l-27.31,47.79a21.77,21.77,0,0,1-18.85,10.94Z"/><path class="cls-5" d="M353.6,445.68A21.27,21.27,0,0,1,372,456.36l27.31,47.79a21.3,21.3,0,0,1,0,21.05L372,573a21.28,21.28,0,0,1-18.42,10.69H299.38A21.25,21.25,0,0,1,281,573L253.66,525.2a21.3,21.3,0,0,1,0-21.05L281,456.36a21.24,21.24,0,0,1,18.41-10.68H353.6m0-1H299.38a22.2,22.2,0,0,0-19.28,11.19l-27.31,47.79a22.2,22.2,0,0,0,0,22l27.31,47.8a22.2,22.2,0,0,0,19.28,11.19H353.6a22.23,22.23,0,0,0,19.29-11.19l27.31-47.8a22.2,22.2,0,0,0,0-22l-27.31-47.79a22.23,22.23,0,0,0-19.29-11.19Z"/><line class="cls-1" x1="726.99" y1="519.18" x2="726.99" y2="800.68"/><path class="cls-4" d="M699.61,584.18A22.15,22.15,0,0,1,680.42,573l-27.09-47.4a22.21,22.21,0,0,1,0-21.93l27.09-47.4a22.14,22.14,0,0,1,19.19-11.13h53.76a22.13,22.13,0,0,1,19.19,11.13l27.09,47.4a22.21,22.21,0,0,1,0,21.93L772.56,573a22.14,22.14,0,0,1-19.19,11.14Z"/><path class="cls-5" d="M753.37,445.68a21.65,21.65,0,0,1,18.76,10.88L799.21,504a21.67,21.67,0,0,1,0,21.43l-27.08,47.4a21.64,21.64,0,0,1-18.76,10.89H699.61a21.66,21.66,0,0,1-18.76-10.89l-27.08-47.4a21.67,21.67,0,0,1,0-21.43l27.08-47.4a21.67,21.67,0,0,1,18.76-10.88h53.76m0-1H699.61A22.61,22.61,0,0,0,680,456.07L652.9,503.46a22.61,22.61,0,0,0,0,22.43L680,573.29a22.63,22.63,0,0,0,19.63,11.39h53.76A22.61,22.61,0,0,0,773,573.29l27.08-47.4a22.61,22.61,0,0,0,0-22.43L773,456.07a22.59,22.59,0,0,0-19.63-11.39Z"/><path class="cls-4" d="M1099.49,584.18a22,22,0,0,1-19-11l-27.21-47.61a22,22,0,0,1,0-21.73l27.21-47.6a21.93,21.93,0,0,1,19-11h54a21.91,21.91,0,0,1,19,11l27.21,47.6a22,22,0,0,1,0,21.73l-27.21,47.61a21.93,21.93,0,0,1-19,11Z"/><path class="cls-5" d="M1153.5,445.68a21.44,21.44,0,0,1,18.57,10.78l27.2,47.6a21.44,21.44,0,0,1,0,21.23l-27.2,47.61a21.44,21.44,0,0,1-18.57,10.78h-54a21.45,21.45,0,0,1-18.58-10.78l-27.2-47.61a21.49,21.49,0,0,1,0-21.23l27.2-47.6a21.45,21.45,0,0,1,18.58-10.78h54m0-1h-54A22.39,22.39,0,0,0,1080,456l-27.2,47.61a22.41,22.41,0,0,0,0,22.22l27.2,47.6a22.4,22.4,0,0,0,19.45,11.29h54a22.4,22.4,0,0,0,19.44-11.29l27.2-47.6a22.36,22.36,0,0,0,0-22.22L1172.94,456a22.39,22.39,0,0,0-19.44-11.28Z"/><path class="cls-4" d="M699.38,930.18a21.78,21.78,0,0,1-18.85-10.94l-27.31-47.79a21.82,21.82,0,0,1,0-21.54l27.31-47.8a21.77,21.77,0,0,1,18.85-10.93H753.6a21.76,21.76,0,0,1,18.85,10.93l27.31,47.8a21.77,21.77,0,0,1,0,21.54l-27.31,47.79a21.77,21.77,0,0,1-18.85,10.94Z"/><path class="cls-5" d="M753.6,791.68A21.27,21.27,0,0,1,772,802.36l27.31,47.79a21.3,21.3,0,0,1,0,21.05L772,919a21.28,21.28,0,0,1-18.42,10.69H699.38A21.25,21.25,0,0,1,681,919L653.66,871.2a21.3,21.3,0,0,1,0-21.05L681,802.36a21.24,21.24,0,0,1,18.41-10.68H753.6m0-1H699.38a22.2,22.2,0,0,0-19.28,11.19l-27.31,47.79a22.2,22.2,0,0,0,0,22l27.31,47.8a22.2,22.2,0,0,0,19.28,11.19H753.6a22.23,22.23,0,0,0,19.29-11.19l27.3-47.8a22.15,22.15,0,0,0,0-22l-27.3-47.79a22.23,22.23,0,0,0-19.29-11.19Z"/><path class="cls-9" d="M325.87,177.11c-21.41-.32-39.29-17.89-39.86-39.15a39.7,39.7,0,0,1,7.73-24.79,103,103,0,0,0,6.2-9.32,413,413,0,0,0,23.57-47.66l.69-1.62a2.41,2.41,0,0,1,4.43,0l.56,1.33a410,410,0,0,0,22.21,45.3,112.1,112.1,0,0,0,7.82,11.93,40.08,40.08,0,0,1-4.09,52.18,40.37,40.37,0,0,1-28.64,11.79Z"/><path class="cls-5" d="M326.41,53.61a1.86,1.86,0,0,1,1.76,1.16l.56,1.34A414.43,414.43,0,0,0,351,101.46a115.63,115.63,0,0,0,7.85,12,39.24,39.24,0,0,1,7.68,23.41,39.92,39.92,0,0,1-40,39.76h-.62a39.91,39.91,0,0,1-27.45-11.52,39.46,39.46,0,0,1-4.27-51.62,103.5,103.5,0,0,0,6.22-9.37A410.75,410.75,0,0,0,324,56.38l.69-1.62a1.85,1.85,0,0,1,1.75-1.15m0-1a2.87,2.87,0,0,0-2.67,1.76,419.2,419.2,0,0,1-24.23,49.23,98.77,98.77,0,0,1-6.17,9.27,40.39,40.39,0,0,0-7.83,25.1,41,41,0,0,0,40.35,39.64h.63a40.88,40.88,0,0,0,41-40.76,40.37,40.37,0,0,0-7.87-24A114.41,114.41,0,0,1,351.84,101a411.12,411.12,0,0,1-22.75-46.58,2.86,2.86,0,0,0-2.68-1.78Z"/><path class="cls-10" d="M319.64,162.57c-.09-1.54-10.52-3.2-16.84-11.92s-1.4-18.89-6.05-19.64c-1.49-.25-4.46,13.93,1.86,22.65S319.85,166,319.64,162.57Z"/><path class="cls-11" d="M325.86,177.61a40.89,40.89,0,0,0,41.63-40.76,40.37,40.37,0,0,0-7.87-24A114.41,114.41,0,0,1,351.84,101c-13.55-24.22-19.68-38.82-22.75-46.58a2.91,2.91,0,0,0-2.6-1.64"/><path class="cls-12" d="M726.53,177.18c-23.16-.29-43.52-17.65-44.46-37.91-.5-10.71,1.37-27,13.15-43.84l.4-.57c11.53-16.91,26.2-28.46,35-35.37,2.49-2,4.65-3.66,6.14-5a4.85,4.85,0,0,1,3.09-1.3,2.09,2.09,0,0,1,2,1.17c1.07,2.12.65,4.85.11,8.3-1.17,7.54-2.76,17.88,9.73,31.45,8.92,9.7,19.34,27.08,19.34,44.16,0,9.92-4.62,19.82-12.69,27.15a46.09,46.09,0,0,1-31.15,11.77Z"/><path class="cls-5" d="M739.82,53.68a1.58,1.58,0,0,1,1.55.89c1,2,.58,4.64.06,8-1.18,7.65-2.81,18.12,9.85,31.87,8.86,9.63,19.21,26.89,19.21,43.82,0,9.78-4.56,19.54-12.52,26.78a45.61,45.61,0,0,1-30.82,11.64h-.62c-22.9-.29-43-17.43-44-37.44-.49-10.63,1.37-26.81,13.07-43.52l.4-.57c11.49-16.85,26.12-28.38,34.87-35.27,2.5-2,4.66-3.67,6.17-5a4.32,4.32,0,0,1,2.75-1.17m0-1a5.37,5.37,0,0,0-3.43,1.43C729.67,60.2,710,72.83,695.2,94.58c-2,3-14.8,19.8-13.63,44.71.93,20,21,38.09,44.95,38.39h.63c24.86,0,44.34-18.61,44.34-39.42,0-16.23-9.45-33.6-19.48-44.49-18.11-19.68-6.19-32.54-9.75-39.65a2.57,2.57,0,0,0-2.44-1.44Z"/><path class="cls-13" d="M734.87,110c-.44,6-2.93,16.75-5.65,27.68C728,121,721,99.91,728.05,92.64c7.35-7.59-35.54-7-23.84,79.36.79,5.82,37.84,8.68,42.23,0C762.19,140.9,735.78,97.64,734.87,110Z"/><path class="cls-14" d="M727.4,177c-8.93,0-16.11-1.92-16.34-3.57-5.39-38.95,2.23-52.57,5.75-56.62,1.71-2,3.27-2.66,4.09-2.66.24,0,.42.07.46.17s0,.55-.64,1.19c-3.2,3.23-.47,9.47,2.69,16.7,2.29,5.22,4.88,11.14,5.27,16.35l.22,3.07.76-3a104.17,104.17,0,0,1,4-11.63c1.7-4.37,3.18-8.15,3.35-10.52.07-.91.29-1,.29-1,.21,0,.86.43,1.87,2.09,4.75,7.8,10.52,29.93,2.35,45.73C740.36,175.56,734.94,177,727.4,177Z"/><path class="cls-15" d="M720.77,114.65a3.07,3.07,0,0,1-.4.49c-3.45,3.48-.65,9.87,2.59,17.26,2.27,5.18,4.84,11.06,5.22,16.19l.45,6.13,1.51-6a105.72,105.72,0,0,1,4-11.56c1.72-4.42,3.21-8.22,3.39-10.68,0-.13,0-.25,0-.34.69.66,2,2.64,3.55,6.58,4.11,10.61,6.57,27.53,0,40.27-1.08,2.1-6.46,3.46-13.7,3.46-9.41,0-15.7-2.06-15.85-3.14-5.36-38.75,2.16-52.22,5.64-56.22,1.59-1.83,2.94-2.41,3.58-2.48m.13-1c-3.81,0-17.08,11.17-10.34,59.85.32,2.32,8.75,4,16.84,4,6.67,0,13.12-1.14,14.59-4,10.38-20.06-1.36-48.55-4.66-48.55-.42,0-.71.47-.78,1.51-.33,4.35-5.35,14.1-7.38,22.06-.9-12.2-13.33-27.37-8.09-32.66,1.24-1.25.93-2.21-.18-2.21Z"/><path class="cls-8" d="M1095.45,105.85a3.24,3.24,0,0,1-1.47-2.68,5.68,5.68,0,0,1,2.09-4.67l40.22-32.2a4,4,0,0,1,2.47-1,2.84,2.84,0,0,1,2,.81,3.67,3.67,0,0,1,1,2.66l0,43.78-14,10.94Z"/><path class="cls-5" d="M1138.76,65.84a2.28,2.28,0,0,1,1.65.67,3.17,3.17,0,0,1,.82,2.3l0,43.53-13.54,10.6-31.92-17.51a2.84,2.84,0,0,1-1.24-2.29,5.14,5.14,0,0,1,1.9-4.24l40.22-32.21a3.49,3.49,0,0,1,2.16-.85m0-1a4.41,4.41,0,0,0-2.78,1.07l-40.22,32.2c-2.8,2.24-3.09,6.67-.55,8.18l32.53,17.84,14.44-11.3,0-44c0-2.45-1.57-4-3.47-4Z"/><path class="cls-16" d="M1121.92,164.36l-29.06-3c-3-.3-5-2.88-5-6.34l-.43-43.79c0-3.32,9.12-16.22,11.53-14.81l28.83,27.72Z"/><path class="cls-17" d="M1173.11,113.44l-30.64.3-9.18-45.36c0-3.36,9.8-5.72,12.41-4.69l23.82,9.52a8.81,8.81,0,0,1,5.23,7.26l3.69,26C1178.91,109.84,1176.19,113.41,1173.11,113.44Z"/><polygon class="cls-17" points="1127.74 124.13 1142.18 112.83 1161.2 138.82 1121.92 164.36 1127.74 124.13"/><path class="cls-16" d="M1142.18,112.83l32.2-8.85c3.73.66,5,5.57,2.53,9.58l-15.71,25.26Z"/><path class="cls-8" d="M756.1,534c-2,0-5.63-1.55-5.63-3.09l2.3-53.38a3.21,3.21,0,0,1,3.33-3.09h1.19a3.21,3.21,0,0,1,3.32,3.07l2.24,52.83c0,1.53-3.55,3.66-5.56,3.66Z"/><path class="cls-5" d="M757.29,474.92a2.72,2.72,0,0,1,2.82,2.61l2.24,52.77c0,1.16-3.22,3.18-5.06,3.18H756.1c-2,0-5.13-1.57-5.13-2.54l2.3-53.45a2.72,2.72,0,0,1,2.83-2.57h1.19m0-1H756.1a3.72,3.72,0,0,0-3.83,3.57l-2.3,53.4c0,2,4,3.59,6.13,3.59h1.19c2.1,0,6.06-2.22,6.06-4.18l-2.24-52.81a3.72,3.72,0,0,0-3.82-3.57Z"/><path class="cls-18" d="M684.45,533.87h57.88a0,0,0,0,1,0,0v34.81a0,0,0,0,1,0,0H681.49a0,0,0,0,1,0,0V536.83A3,3,0,0,1,684.45,533.87Z"/><path class="cls-12" d="M741.76,534c-2,0-5.62-1.55-5.62-3.09l2.3-53.38a3.21,3.21,0,0,1,3.32-3.09H743a3.21,3.21,0,0,1,3.32,3.07l2.23,52.83c0,1.53-3.54,3.66-5.55,3.66Z"/><path class="cls-5" d="M743,474.92a2.72,2.72,0,0,1,2.83,2.61L748,530.3c0,1.16-3.21,3.18-5.06,3.18h-1.19c-2,0-5.12-1.57-5.12-2.54l2.3-53.45a2.71,2.71,0,0,1,2.82-2.57H743m0-1h-1.19a3.72,3.72,0,0,0-3.82,3.57l-2.3,53.4c0,2,4,3.59,6.12,3.59H743c2.11,0,6.06-2.22,6.06-4.18l-2.23-52.81a3.72,3.72,0,0,0-3.83-3.57Z"/><path class="cls-18" d="M730.87,531.18h36.6a3.52,3.52,0,0,1,3.52,3.52v34a0,0,0,0,1,0,0H727.36a0,0,0,0,1,0,0v-34A3.52,3.52,0,0,1,730.87,531.18Z"/><path class="cls-9" d="M725,473.87a10.21,10.21,0,0,1-9.34-5.72l-.22-.48-.47.24a10.63,10.63,0,0,1-4.94,1.2c-5.61,0-10.17-4.25-10.17-9.47s4.56-9.46,10.17-9.46a10.56,10.56,0,0,1,6.19,1.95l.4.29.29-.39a4.71,4.71,0,0,1,3.79-1.85,4.44,4.44,0,0,1,4.59,4.26v.46l.47.07c5.27.36,9.41,4.5,9.41,9.43,0,.16,0,.32,0,.47l0,.37.34.12a6.28,6.28,0,0,1,.59.27l.23.13.24-.13a4.89,4.89,0,0,1,2.31-.58,4.27,4.27,0,1,1,0,8.52,4.89,4.89,0,0,1-2.31-.58l-.24-.13L736,473a4.92,4.92,0,0,1-2.31.58,4.82,4.82,0,0,1-3-1l-.26-.21-.3.17A10.72,10.72,0,0,1,725,473.87Z"/><path class="cls-5" d="M720.67,450.68a3.93,3.93,0,0,1,4.09,3.73h0v1l.94.06c5,.35,8.95,4.28,8.95,8.94,0,.15,0,.3,0,.44l0,.73.68.26a5.05,5.05,0,0,1,.53.24l.47.26.48-.26a4.38,4.38,0,0,1,2.07-.52,3.77,3.77,0,1,1,0,7.52,4.38,4.38,0,0,1-2.07-.52l-.48-.26-.47.26a4.38,4.38,0,0,1-2.07.52,4.31,4.31,0,0,1-2.66-.9l-.53-.41-.58.32a10.25,10.25,0,0,1-5,1.29,9.72,9.72,0,0,1-8.89-5.43l-.44-.95-.93.48a10.17,10.17,0,0,1-4.71,1.14c-5.33,0-9.67-4-9.67-9s4.34-9,9.67-9a10.09,10.09,0,0,1,5.9,1.86l.8.57.58-.79a4.21,4.21,0,0,1,3.39-1.64m0-1a5.19,5.19,0,0,0-4.19,2.05,11.08,11.08,0,0,0-6.48-2.05c-5.9,0-10.67,4.46-10.67,10s4.77,10,10.67,10a11.25,11.25,0,0,0,5.17-1.25,10.73,10.73,0,0,0,9.8,6,11.17,11.17,0,0,0,5.48-1.42,25.92,25.92,0,0,1,8.37,1.12,4.77,4.77,0,1,0,0-9.52,5.41,5.41,0,0,0-2.55.64,4.27,4.27,0,0,0-.65-.29c0-.17,0-.33,0-.5,0-5.25-4.36-9.55-9.88-9.93v0a4.93,4.93,0,0,0-5.09-4.76Z"/><path class="cls-19" d="M677.59,876.51h86.53s15.44-.46,14,14c-1,10.28-20.58,8.88-19.17,0"/><path class="cls-19" d="M693,867.63h75.82a12,12,0,0,0,6.92-2.11c2.16-1.52,4-4,2.86-7.71-2.34-7.49-12.25-2.24-11.23,1.87"/><path class="cls-19" d="M664.49,854.53h80.33a23.34,23.34,0,0,0,10.14-2c4.48-2.17,11.79-8,4.95-16.67-7-8.89-22.92-2.34-17.77,10.29"/><circle class="cls-20" cx="697.47" cy="832.31" r="10.52"/><path class="cls-8" d="M778.72,844.34a8.08,8.08,0,1,1,8.08-8.08A8.09,8.09,0,0,1,778.72,844.34Z"/><path class="cls-5" d="M778.72,828.68a7.58,7.58,0,1,1-7.58,7.58,7.59,7.59,0,0,1,7.58-7.58m0-1a8.58,8.58,0,1,0,8.58,8.58,8.58,8.58,0,0,0-8.58-8.58Z"/><path class="cls-9" d="M712.18,907.9a10.51,10.51,0,1,1,10.51-10.51A10.51,10.51,0,0,1,712.18,907.9Z"/><path class="cls-5" d="M712.18,887.38a10,10,0,1,1-10,10,10,10,0,0,1,10-10m0-1a11,11,0,1,0,11,11,11,11,0,0,0-11-11Z"/><circle class="cls-8" cx="671.74" cy="865.06" r="6.75"/><path class="cls-5" d="M671.74,858.81a6.25,6.25,0,1,1-6.25,6.25,6.25,6.25,0,0,1,6.25-6.25m0-1a7.25,7.25,0,1,0,7.25,7.25,7.25,7.25,0,0,0-7.25-7.25Z"/><ellipse class="cls-18" cx="326.37" cy="865.42" rx="71.38" ry="19.15"/><ellipse class="cls-21" cx="326.51" cy="864.08" rx="45.49" ry="9.04"/><path class="cls-9" d="M318.15,839.13l-.22-.36c-1.26-2.12-3.62-6-7.91-12.07-.7-1-1.48-2-2.45-3.09a17,17,0,0,1-3.37-6.41c-1.15-4-.92-8.11.59-10.79a5.39,5.39,0,0,1,3.23-2.69,4.43,4.43,0,0,1,1.15-.15c3.56,0,7.33,3.89,9,9.25a17.07,17.07,0,0,1,.67,7.52c-.18,1.22-.29,2.17-.34,3.08-.46,7.18-.36,12.19-.29,15.19v.59Z"/><path class="cls-5" d="M309.17,804.07c3.29,0,6.94,3.83,8.51,8.9a16.67,16.67,0,0,1,.65,7.3c-.13.83-.28,1.93-.35,3.12-.4,6.27-.37,10.89-.32,14-1.37-2.28-3.62-5.87-7.23-10.94-.71-1-1.5-2-2.48-3.13a16.36,16.36,0,0,1-3.27-6.22c-1.12-3.85-.91-7.84.55-10.4a4.82,4.82,0,0,1,2.92-2.46,4.32,4.32,0,0,1,1-.13m0-1a5.06,5.06,0,0,0-1.28.17c-4.22,1.11-6.09,7.47-4.17,14.1a17.51,17.51,0,0,0,3.47,6.59c.84,1,1.65,2,2.43,3.06,4.52,6.35,6.86,10.32,8.1,12.4a.69.69,0,0,0,.54.39c.24,0,.45-.24.44-.67-.06-2.86-.21-8.07.27-15.66.07-1,.2-2,.35-3a17.7,17.7,0,0,0-.69-7.74c-1.74-5.65-5.75-9.6-9.46-9.6Z"/><path class="cls-9" d="M342.27,824.72c0-1.61,0-4.38-.42-8.64a23.56,23.56,0,0,0-.34-2.46,10.38,10.38,0,0,1,.22-4.44c.88-3.42,3.19-6,5.38-6a2.57,2.57,0,0,1,.73.1c2.23.63,3.32,4.16,2.43,7.89a10.75,10.75,0,0,1-2,4.18c-.49.6-.85,1.08-1.18,1.56C344.71,820.43,343.21,823.06,342.27,824.72Z"/><path class="cls-5" d="M347.11,803.68a2,2,0,0,1,.59.08c1.94.55,2.89,3.89,2.08,7.29a10.12,10.12,0,0,1-1.89,4,19.14,19.14,0,0,0-1.2,1.59c-1.75,2.56-3,4.66-3.95,6.26,0-1.64-.13-3.89-.39-6.85-.07-.78-.18-1.57-.35-2.51a10,10,0,0,1,.21-4.22c.81-3.16,3-5.63,4.9-5.63m0-1c-2.4,0-4.91,2.65-5.87,6.38a10.93,10.93,0,0,0-.22,4.65c.14.78.26,1.59.33,2.41.42,4.86.42,7.74.43,9.25,0,.26.13.41.28.41a.41.41,0,0,0,.33-.25c.88-1.56,2.45-4.41,5.12-8.34.37-.54.76-1,1.15-1.52a10.94,10.94,0,0,0,2.09-4.39c1-4-.28-7.78-2.78-8.49a3.12,3.12,0,0,0-.86-.11Z"/><path class="cls-9" d="M354.66,844.69c.76-2,2.18-5.67,4-11.78.3-1,.55-2,.8-3.32a14.59,14.59,0,0,1,2.54-5.66c2.35-3.27,5.68-5.38,8.49-5.38a4.19,4.19,0,0,1,2.59.81c2.63,2,2.27,7.2-.8,11.62a14.8,14.8,0,0,1-4.72,4.44c-.93.52-1.63,1-2.28,1.4-5.13,3.51-8.48,6.26-10.48,7.9l-.19.16Z"/><path class="cls-5" d="M370.47,819.05a3.74,3.74,0,0,1,2.29.71c2.42,1.83,2,6.74-.91,10.94a14.31,14.31,0,0,1-4.56,4.28c-.63.36-1.47.85-2.31,1.43-4.2,2.87-7.2,5.23-9.26,6.9.81-2.17,2-5.48,3.4-10.26.3-1,.56-2.09.81-3.37a14.22,14.22,0,0,1,2.45-5.46c2.26-3.14,5.44-5.17,8.09-5.17m0-1c-2.88,0-6.37,2.07-8.9,5.58a15.43,15.43,0,0,0-2.63,5.86c-.21,1.08-.45,2.18-.78,3.28-1.9,6.45-3.35,10.14-4.1,12.09-.16.41,0,.69.29.69a.66.66,0,0,0,.42-.18c1.91-1.56,5.36-4.43,10.77-8.14.74-.51,1.49-1,2.24-1.38a15.26,15.26,0,0,0,4.89-4.58c3.25-4.67,3.55-10.14.69-12.31a4.7,4.7,0,0,0-2.89-.91Z"/><path class="cls-9" d="M295,834c-1.39-.82-3.79-2.2-7.63-4.07-.68-.33-1.41-.64-2.29-1a10.42,10.42,0,0,1-3.7-2.46,9,9,0,0,1-2.84-6,3.17,3.17,0,0,1,.9-2.31,3.21,3.21,0,0,1,2.26-.79,8.79,8.79,0,0,1,5.76,2.75A10.49,10.49,0,0,1,290,824c.18.49.42,1.14.73,1.81C292.57,829.69,294.06,832.33,295,834Z"/><path class="cls-5" d="M281.7,817.92a8.44,8.44,0,0,1,5.42,2.61,10.12,10.12,0,0,1,2.45,3.66c.18.51.43,1.17.75,1.85,1.31,2.81,2.45,5,3.35,6.6-1.43-.81-3.41-1.88-6.08-3.18a24.75,24.75,0,0,0-2.34-1,10.13,10.13,0,0,1-3.51-2.35,8.44,8.44,0,0,1-2.7-5.6,2.7,2.7,0,0,1,.75-2,2.75,2.75,0,0,1,1.91-.65m0-1a3.67,3.67,0,0,0-2.6.93c-2,1.87-1.11,5.92,1.93,9a10.89,10.89,0,0,0,3.87,2.58c.75.28,1.5.59,2.25,1,4.38,2.13,6.85,3.61,8.15,4.38a.55.55,0,0,0,.28.08c.23,0,.35-.23.18-.53-.89-1.55-2.53-4.36-4.53-8.67a18.78,18.78,0,0,1-.72-1.77,11.24,11.24,0,0,0-2.7-4,9.28,9.28,0,0,0-6.11-2.89Z"/><path class="cls-22" d="M1154.45,859c-18.63-2.71-45-.8-52.59,2.88-5.79,2.8-20.9,3.81-33.19,2.81-2-.17-4.18.16-4.18.65v6.1H1188v-7.74c0-.49-2.55-.74-4.16-.41C1176,864.83,1163.89,860.33,1154.45,859Z"/><path class="cls-6" d="M1188,876.11v-7.39c0-.45-2.55-.69-4.16-.38-7.83,1.47-19.91-1.89-29.35-3.16-18.63-2.5-45-.74-52.59,2.66-5.79,2.59-20.9,3.52-33.19,2.59-2-.15-4.18.15-4.18.61v5.63"/><path class="cls-7" d="M1154.34,869.34c-18.72-3.23-45.2-1-52.82,3.43-5.82,3.35-21,4.55-33.33,3.35-2-.19-4.2.2-4.2.78v7.28h124V873.91c0-.58-2.56-.89-4.18-.49C1176,875.32,1163.81,871,1154.34,869.34Z"/><polyline class="cls-23" points="326.49 516.85 359.49 516.68 359.49 571.43"/><polygon class="cls-18" points="314.16 573.18 292.49 573.18 297.71 468.68 309.75 468.68 314.16 573.18"/><polyline class="cls-23" points="319.49 507.68 319.49 484 345.49 484 345.49 523.68"/><path class="cls-9" d="M317.14,463.87a7.13,7.13,0,0,1-3.46-.89l-.29-.17-.27.21a3.11,3.11,0,0,1-3.39.27l-.23-.12-.24.12a3.09,3.09,0,0,1-1.49.38,2.73,2.73,0,1,1,0-5.44,3.09,3.09,0,0,1,1.49.38l.24.12.23-.12a2.64,2.64,0,0,1,.38-.18l.34-.13,0-.36v-.31a6.46,6.46,0,0,1,6.21-6.22l.46,0v-.47a2.84,2.84,0,0,1,2.95-2.73,3,3,0,0,1,2.43,1.18l.29.4.4-.29a6.93,6.93,0,0,1,4.09-1.29,6.25,6.25,0,1,1,0,12.47,7.11,7.11,0,0,1-3.27-.79l-.46-.24-.22.47A6.75,6.75,0,0,1,317.14,463.87Z"/><path class="cls-5" d="M327.26,448.68a5.75,5.75,0,1,1,0,11.47,6.59,6.59,0,0,1-3-.73l-.93-.48-.44.94a6.23,6.23,0,0,1-5.71,3.49,6.63,6.63,0,0,1-3.22-.83l-.58-.33-.52.42a2.62,2.62,0,0,1-1.6.54,2.58,2.58,0,0,1-1.25-.32l-.47-.25-.48.25a2.58,2.58,0,0,1-1.25.32,2.23,2.23,0,1,1,0-4.44,2.58,2.58,0,0,1,1.25.32l.48.25.47-.25a1.87,1.87,0,0,1,.32-.15l.68-.26,0-.73v-.28a6,6,0,0,1,5.74-5.72l.94-.06v-1a2.34,2.34,0,0,1,2.45-2.18,2.48,2.48,0,0,1,2,1l.59.79.8-.57a6.45,6.45,0,0,1,3.8-1.2m0-1a7.48,7.48,0,0,0-4.38,1.38,3.54,3.54,0,0,0-2.83-1.38,3.34,3.34,0,0,0-3.45,3.21v0a7,7,0,0,0-6.67,6.72V458a2.39,2.39,0,0,0-.43.2,3.58,3.58,0,0,0-1.73-.44,3.23,3.23,0,1,0,0,6.44,3.58,3.58,0,0,0,1.73-.44,3.52,3.52,0,0,0,1.72.44,3.58,3.58,0,0,0,2.21-.76,7.56,7.56,0,0,0,3.71,1,7.25,7.25,0,0,0,6.62-4.06,7.69,7.69,0,0,0,3.5.84,6.75,6.75,0,1,0,0-13.47Z"/><path class="cls-18" d="M318.68,505.18h1.41a10,10,0,0,1,10,10v58a0,0,0,0,1,0,0H308.68a0,0,0,0,1,0,0v-58A10,10,0,0,1,318.68,505.18Z"/><circle class="cls-24" cx="345.57" cy="545.77" r="21.92"/><rect class="cls-6" x="327.63" y="567.7" width="35.37" height="4.98"/><rect class="cls-7" x="1059.49" y="498.43" width="59.21" height="15.82"/><path class="cls-7" d="M1059.49,499.5c0-5.83,13.37-10.62,29.61-10.62s29.6,4.79,29.6,10.62v.13"/><polyline class="cls-25" points="1118.7 504.57 1144.77 504.65 1144.77 525.68"/><path class="cls-7" d="M1097.27,547.86h74.17a9,9,0,0,0,6-2.13l13-11.59H1087.38l3.64,10C1091.81,546.34,1094.37,547.86,1097.27,547.86Z"/><rect class="cls-7" x="1134.71" y="522.03" width="19.66" height="12.35"/><polygon class="cls-7" points="1174.03 534.37 1161.68 534.37 1164.43 506.48 1170.83 506.48 1174.03 534.37"/><rect class="cls-7" x="1093.1" y="529.34" width="19.66" height="5.03"/><rect class="cls-7" x="1093.1" y="523.4" width="19.66" height="5.03"/><text class="cls-26" transform="translate(274.53 18.32) scale(1 1.1)">PETRÓLEO</text><text class="cls-26" transform="translate(274.53 428.32) scale(1 1.1)">REFINERÍA</text><text class="cls-26" transform="translate(639.01 428.32) scale(1 1.1)">TERMOELÉCTRICA</text><text class="cls-26" transform="translate(1037.01 428.32) scale(1 1.1)">TERMINAL DE GAS</text><text class="cls-26" transform="translate(1081.01 18.32) scale(1 1.1)">CARBÓN</text><text class="cls-26" transform="translate(657.51 18.3) scale(1 1.1)">GAS NATURAL</text><text class="cls-26" transform="translate(1050.45 968.12) scale(1 1.1)">SEDIMENTOS DE <tspan x="33.58" y="19.64">CARBÓN</tspan></text><text class="cls-26" transform="translate(659.62 968.32) scale(1 1.1)">EMISIONES DE <tspan x="-10.8" y="19.64">GASES TÓXICOS</tspan></text><text class="cls-26" transform="translate(259.04 968.32) scale(1 1.1)">DERRAMES DE <tspan x="18.65" y="19.64">PETRÓLEO</tspan></text><text class="cls-26" transform="translate(39.51 117.86) scale(1 1.1)">RECURSOS:</text><text class="cls-26" transform="translate(39.51 517.86) scale(1 1.1)">INDUSTRIA:</text><text class="cls-26" transform="translate(0 865.39) scale(1 1.1)">CONTAMINACIÓN:</text></g></g></svg>