<svg xmlns="http://www.w3.org/2000/svg" viewBox="0 0 1456.98 994.83"><defs><style>.cls-1,.cls-16,.cls-17,.cls-19,.cls-2,.cls-3{fill:none;}.cls-1,.cls-19{stroke:#d62839;}.cls-1,.cls-16,.cls-17,.cls-18,.cls-19,.cls-2,.cls-3{stroke-miterlimit:10;}.cls-1,.cls-2,.cls-3{stroke-width:5px;}.cls-17,.cls-18,.cls-2{stroke:#ffad33;}.cls-3{stroke:#175676;}.cls-4{fill:#c9c9c9;}.cls-5{fill:#333;}.cls-18,.cls-33,.cls-6{fill:#121417;}.cls-7{fill:#175676;}.cls-8{fill:#ffad33;}.cls-9{fill:#ffdead;}.cls-10{fill:#ffce85;}.cls-11{fill:#d62839;}.cls-12{fill:#e67e88;}.cls-13{fill:#6b141d;}.cls-14{fill:#457891;}.cls-15{fill:#b5c9d3;}.cls-16{stroke:#121417;}.cls-16,.cls-17,.cls-19{stroke-width:2px;}.cls-20,.cls-33{font-size:18px;letter-spacing:0.07em;}.cls-20{fill:#fff;font-family:Roboto-Regular, Roboto;}.cls-21{letter-spacing:0.08em;}.cls-22{letter-spacing:0.08em;}.cls-23{letter-spacing:0.08em;}.cls-24{letter-spacing:0.06em;}.cls-25{letter-spacing:0.01em;}.cls-26{letter-spacing:0.06em;}.cls-27{letter-spacing:0.06em;}.cls-28{letter-spacing:0.06em;}.cls-29{letter-spacing:0.06em;}.cls-30{letter-spacing:0.06em;}.cls-31{letter-spacing:0.04em;}.cls-32{letter-spacing:0.07em;}.cls-33{font-family:CenturyGothic, Century Gothic;}</style></defs><title>impactoRecurso 6</title><g id="Capa_2" data-name="Capa 2"><g id="Capa_1-2" data-name="Capa 1"><path class="cls-1" d="M732,583.47c.36,140.5,129.92,110,217.61,110,157.08,0,181.89.67,181.89,155"/><path class="cls-1" d="M732,184.47c.36,140.5,129.27,110,216.53,110,156.29,0,179.47-21,179.47,108"/><path class="cls-2" d="M330.05,584.24c.33,122.23,265.87,39.3,344.34,89.23,55,35,34,141,34,141"/><path class="cls-3" d="M1131.49,584.24c-.34,122.23-272.24,39.3-352.59,89.23-56.32,35-34.81,141-34.81,141"/><line class="cls-2" x1="325.99" y1="579.97" x2="325.99" y2="813.97"/><path class="cls-4" d="M1153.6,790h-54.22a22.2,22.2,0,0,0-19.28,11.19L1052.79,849a22.22,22.22,0,0,0,0,22l27.31,47.79A22.2,22.2,0,0,0,1099.38,930h54.22a22.23,22.23,0,0,0,19.29-11.19l27.3-47.79a22.17,22.17,0,0,0,0-22l-27.3-47.79A22.23,22.23,0,0,0,1153.6,790Z"/><path class="cls-5" d="M1154.34,839.64c-18.72-3.24-45.2-1-52.82,3.42-5.82,3.35-21,4.55-33.33,3.36-2-.2-4.2.19-4.2.77v7.28h124V844.21c0-.59-2.56-.89-4.18-.5C1176,845.61,1163.81,841.28,1154.34,839.64Z"/><path class="cls-6" d="M1154.84,846.35c-18.72-3.23-45.2-1-52.82,3.43-5.82,3.35-21,4.54-33.33,3.35-2-.2-4.2.2-4.2.78v7.28h124V850.92c0-.59-2.56-.89-4.18-.49C1176.45,852.33,1164.31,848,1154.84,846.35Z"/><path class="cls-4" d="M353.6,790H299.38a22.2,22.2,0,0,0-19.28,11.19L252.79,849a22.22,22.22,0,0,0,0,22l27.31,47.79A22.2,22.2,0,0,0,299.38,930H353.6a22.23,22.23,0,0,0,19.29-11.19L400.19,871a22.17,22.17,0,0,0,0-22l-27.3-47.79A22.23,22.23,0,0,0,353.6,790Z"/><line class="cls-2" x1="325.99" y1="173.97" x2="325.99" y2="402.97"/><line class="cls-1" x1="726.99" y1="173.47" x2="726.99" y2="402.97"/><path class="cls-2" d="M330,184.47c.33,140.5,120,110,201,110,145.09,0,168,20,167,108"/><path class="cls-7" d="M1154.45,852c-18.63-2.92-45-.87-52.59,3.1-5.79,3-20.9,4.1-33.19,3-2-.18-4.18.18-4.18.71v6.57H1188v-9.13c0-.53-2.55-.81-4.16-.45C1176,857.55,1163.89,853.49,1154.45,852Z"/><path class="cls-3" d="M1126,183.47c-8,159-122,145-203,145-145.09,0-168-20-168,74"/><path class="cls-4" d="M353.19,44h-53.4a22.93,22.93,0,0,0-19.9,11.55L253,102.6a22.9,22.9,0,0,0,0,22.74l26.9,47.08A22.93,22.93,0,0,0,299.79,184h53.4a22.92,22.92,0,0,0,19.9-11.55L400,125.34a22.9,22.9,0,0,0,0-22.74l-26.9-47.08A22.92,22.92,0,0,0,353.19,44Z"/><path class="cls-4" d="M753.35,44H699.63A22.64,22.64,0,0,0,680,55.38l-27.06,47.35a22.65,22.65,0,0,0,0,22.48L680,172.56A22.66,22.66,0,0,0,699.63,184h53.72A22.65,22.65,0,0,0,773,172.56l27.06-47.35a22.65,22.65,0,0,0,0-22.48L773,55.38A22.63,22.63,0,0,0,753.35,44Z"/><path class="cls-4" d="M1153.17,43.2h-53.36a23,23,0,0,0-19.93,11.56L1053,101.81a23,23,0,0,0,0,22.77l26.88,47.06a23,23,0,0,0,19.93,11.56h53.36a23,23,0,0,0,19.93-11.56L1200,124.58a23,23,0,0,0,0-22.77L1173.1,54.76A23,23,0,0,0,1153.17,43.2Z"/><path class="cls-4" d="M353.6,444H299.38a22.2,22.2,0,0,0-19.28,11.19L252.79,503a22.22,22.22,0,0,0,0,22l27.31,47.79A22.2,22.2,0,0,0,299.38,584H353.6a22.23,22.23,0,0,0,19.29-11.19L400.19,525a22.17,22.17,0,0,0,0-22l-27.3-47.79A22.23,22.23,0,0,0,353.6,444Z"/><line class="cls-1" x1="726.99" y1="518.47" x2="726.99" y2="799.97"/><path class="cls-4" d="M753.37,444H699.61A22.61,22.61,0,0,0,680,455.36L652.9,502.75a22.61,22.61,0,0,0,0,22.43L680,572.58A22.63,22.63,0,0,0,699.61,584h53.76A22.61,22.61,0,0,0,773,572.58l27.08-47.4a22.61,22.61,0,0,0,0-22.43L773,455.36A22.59,22.59,0,0,0,753.37,444Z"/><path class="cls-4" d="M1153.5,444h-54A22.39,22.39,0,0,0,1080,455.25l-27.2,47.61a22.41,22.41,0,0,0,0,22.22l27.2,47.61A22.42,22.42,0,0,0,1099.49,584h54a22.41,22.41,0,0,0,19.44-11.28l27.2-47.61a22.36,22.36,0,0,0,0-22.22l-27.2-47.61A22.39,22.39,0,0,0,1153.5,444Z"/><path class="cls-4" d="M753.6,790H699.38a22.2,22.2,0,0,0-19.28,11.19L652.79,849a22.22,22.22,0,0,0,0,22l27.31,47.79A22.2,22.2,0,0,0,699.38,930H753.6a22.23,22.23,0,0,0,19.29-11.19L800.19,871a22.17,22.17,0,0,0,0-22l-27.3-47.79A22.23,22.23,0,0,0,753.6,790Z"/><path class="cls-8" d="M351.84,100.26a410.25,410.25,0,0,1-22.75-46.58,2.91,2.91,0,0,0-5.35,0,417.63,417.63,0,0,1-24.23,49.23,100.25,100.25,0,0,1-6.17,9.28,40.34,40.34,0,0,0-7.83,25.09,41,41,0,0,0,82-1.11,40.38,40.38,0,0,0-7.87-24A114.41,114.41,0,0,1,351.84,100.26Z"/><path class="cls-9" d="M319.64,161.87c-.09-1.54-10.52-3.21-16.84-11.92s-1.4-18.9-6.05-19.65c-1.49-.24-4.46,13.93,1.86,22.65S319.85,165.29,319.64,161.87Z"/><path class="cls-10" d="M325.86,176.9a40.89,40.89,0,0,0,41.63-40.75,40.38,40.38,0,0,0-7.87-24,114.41,114.41,0,0,1-7.78-11.88c-13.55-24.21-19.68-38.82-22.75-46.58a2.91,2.91,0,0,0-2.6-1.64"/><path class="cls-11" d="M752,93.06c-18.11-19.68-6.19-32.54-9.75-39.65-1.09-2.17-4.08-1.63-5.87,0C729.67,59.49,710,72.12,695.2,93.87c-2,3-14.8,19.8-13.63,44.71.93,20,21,38.09,44.95,38.39,25.15.32,45-18.43,45-39.42C771.49,121.32,762,104,752,93.06Z"/><path class="cls-12" d="M734.87,109.32c-.44,6-2.93,16.76-5.65,27.69C728,120.26,721,99.2,728.05,91.93c7.35-7.59-35.54-7-23.84,79.36.79,5.82,37.84,8.68,42.23,0C762.19,140.2,735.78,96.93,734.87,109.32Z"/><path class="cls-13" d="M736.55,125.74c-.33,4.35-5.35,14.1-7.38,22.07-.9-12.21-13.33-27.38-8.09-32.67,5.47-5.53-19.22-5.27-10.52,57.64.59,4.24,28.17,6.32,31.43,0C753.71,150.13,737.22,116.71,736.55,125.74Z"/><path class="cls-7" d="M1142.18,112.12l0-44c0-3.62-3.39-5.2-6.25-2.91l-40.22,32.21c-2.8,2.23-3.09,6.66-.55,8.17l32.53,17.84Z"/><path class="cls-14" d="M1121.92,163.65l-29.06-3c-3-.3-5-2.88-5-6.34l-.43-43.79c0-3.32,9.12-16.21,11.53-14.81l28.83,27.72Z"/><path class="cls-15" d="M1173.11,112.74l-30.64.29-9.18-45.36c0-3.36,9.8-5.72,12.41-4.68l23.82,9.51a8.81,8.81,0,0,1,5.23,7.26l3.69,26C1178.91,109.14,1176.19,112.71,1173.11,112.74Z"/><polygon class="cls-15" points="1127.74 123.42 1142.18 112.12 1161.2 138.11 1121.92 163.65 1127.74 123.42"/><path class="cls-14" d="M1142.18,112.12l32.2-8.85c3.73.67,5,5.57,2.53,9.58l-15.71,25.26Z"/><path class="cls-7" d="M757.29,533.77h-1.2c-2.1,0-6.12-1.62-6.12-3.58l2.3-53.41a3.72,3.72,0,0,1,3.82-3.57h1.2a3.72,3.72,0,0,1,3.82,3.57l2.24,52.81C763.35,531.55,759.39,533.77,757.29,533.77Z"/><path class="cls-6" d="M684.45,533.16h57.88a0,0,0,0,1,0,0V568a0,0,0,0,1,0,0H681.49a0,0,0,0,1,0,0V536.12A3,3,0,0,1,684.45,533.16Z"/><path class="cls-11" d="M743,533.77h-1.19c-2.1,0-6.12-1.62-6.12-3.58l2.3-53.41a3.72,3.72,0,0,1,3.82-3.57H743a3.72,3.72,0,0,1,3.83,3.57L749,529.59C749,531.55,745.06,533.77,743,533.77Z"/><path class="cls-6" d="M730.87,530.47h36.6A3.52,3.52,0,0,1,771,534v34a0,0,0,0,1,0,0H727.36a0,0,0,0,1,0,0V534A3.52,3.52,0,0,1,730.87,530.47Z"/><path class="cls-8" d="M738.82,463.84a5.31,5.31,0,0,0-2.55.65,3.5,3.5,0,0,0-.65-.3c0-.17,0-.33,0-.5,0-5.25-4.36-9.55-9.88-9.93v0a4.93,4.93,0,0,0-5.09-4.76,5.19,5.19,0,0,0-4.19,2,11.08,11.08,0,0,0-6.48-2c-5.9,0-10.67,4.46-10.67,10s4.77,10,10.67,10a11.12,11.12,0,0,0,5.17-1.25,10.71,10.71,0,0,0,9.8,6,11.27,11.27,0,0,0,5.48-1.41,5.32,5.32,0,0,0,3.28,1.11,5.38,5.38,0,0,1,5.09,0,4.77,4.77,0,1,0,0-9.52Z"/><path class="cls-16" d="M677.59,875.81h86.53s15.44-.47,14,14c-1,10.28-20.58,8.89-19.18,0"/><path class="cls-16" d="M693,866.92h75.82a12.06,12.06,0,0,0,6.92-2.1c2.16-1.52,4-4,2.86-7.72-2.34-7.49-12.25-2.24-11.23,1.87"/><path class="cls-16" d="M664.49,853.82h80.33a23.34,23.34,0,0,0,10.14-2c4.48-2.17,11.79-8,4.95-16.67-7-8.88-22.92-2.33-17.77,10.29"/><circle class="cls-11" cx="697.47" cy="831.61" r="10.52"/><circle class="cls-7" cx="778.72" cy="835.55" r="8.58"/><circle class="cls-8" cx="712.18" cy="896.69" r="11.01"/><circle class="cls-7" cx="671.74" cy="864.35" r="7.25"/><ellipse class="cls-6" cx="326.37" cy="864.71" rx="71.38" ry="19.15"/><ellipse class="cls-8" cx="326.51" cy="863.37" rx="45.49" ry="9.04"/><path class="cls-8" d="M309.62,826.28c4.52,6.36,6.85,10.32,8.1,12.4.38.63,1,.46,1-.28-.06-2.86-.21-8.07.27-15.66.07-1,.2-2,.35-3a17.74,17.74,0,0,0-.69-7.75c-1.94-6.3-6.71-10.49-10.74-9.43-4.22,1.11-6.09,7.47-4.17,14.1a17.56,17.56,0,0,0,3.47,6.6C308,824.19,308.84,825.2,309.62,826.28Z"/><path class="cls-8" d="M341.35,815.42c.42,4.85.42,7.73.43,9.24,0,.46.39.56.61.16.88-1.56,2.45-4.41,5.12-8.34.37-.54.76-1,1.15-1.52a10.94,10.94,0,0,0,2.09-4.39c1-4-.28-7.78-2.78-8.48s-5.65,2.08-6.73,6.26A10.94,10.94,0,0,0,341,813C341.16,813.79,341.28,814.59,341.35,815.42Z"/><path class="cls-8" d="M358.16,832.06c-1.9,6.45-3.35,10.14-4.1,12.09-.23.59.22.92.71.51,1.91-1.56,5.36-4.43,10.77-8.14.74-.5,1.49-.95,2.24-1.38a15.15,15.15,0,0,0,4.89-4.58c3.25-4.67,3.55-10.14.69-12.3s-8.31-.16-11.79,4.67a15.3,15.3,0,0,0-2.63,5.86C358.73,829.87,358.49,831,358.16,832.06Z"/><path class="cls-8" d="M287.15,829.65c4.38,2.14,6.85,3.61,8.15,4.38.4.24.69,0,.46-.45-.89-1.55-2.53-4.36-4.53-8.67a18.78,18.78,0,0,1-.72-1.77,11.24,11.24,0,0,0-2.7-4c-2.95-2.88-6.82-3.75-8.71-2s-1.11,5.92,1.93,9a11,11,0,0,0,3.87,2.57C285.65,829,286.4,829.29,287.15,829.65Z"/><path class="cls-14" d="M1154.45,858.24c-18.63-2.71-45-.8-52.59,2.88-5.79,2.81-20.9,3.81-33.19,2.81-2-.17-4.18.16-4.18.65v6.1H1188V863c0-.5-2.55-.75-4.16-.42C1176,864.13,1163.89,859.62,1154.45,858.24Z"/><path class="cls-5" d="M1188,875.4V868c0-.45-2.55-.68-4.16-.38-7.83,1.48-19.91-1.88-29.35-3.15-18.63-2.51-45-.74-52.59,2.65-5.79,2.59-20.9,3.52-33.19,2.6-2-.16-4.18.14-4.18.6V876"/><path class="cls-6" d="M1154.34,868.64c-18.72-3.24-45.2-1-52.82,3.42-5.82,3.35-21,4.55-33.33,3.36-2-.2-4.2.19-4.2.77v7.28h124V873.21c0-.59-2.56-.89-4.18-.5C1176,874.61,1163.81,870.28,1154.34,868.64Z"/><polyline class="cls-17" points="326.49 516.15 359.49 515.97 359.49 570.73"/><polygon class="cls-6" points="314.16 572.47 292.49 572.47 297.71 467.97 309.75 467.97 314.16 572.47"/><polyline class="cls-17" points="319.49 506.97 319.49 483.29 345.49 483.29 345.49 522.97"/><path class="cls-8" d="M307.77,457a3.52,3.52,0,0,1,1.72.44,2.86,2.86,0,0,1,.44-.2v-.34a6.93,6.93,0,0,1,6.67-6.71v0a3.34,3.34,0,0,1,3.45-3.22,3.52,3.52,0,0,1,2.83,1.39,7.49,7.49,0,0,1,4.38-1.39,6.75,6.75,0,1,1,0,13.47,7.57,7.57,0,0,1-3.5-.84,7.25,7.25,0,0,1-6.62,4.06,7.56,7.56,0,0,1-3.71-1,3.52,3.52,0,0,1-2.21.76,3.69,3.69,0,0,1-1.73-.43,3.62,3.62,0,0,1-1.72.43,3.23,3.23,0,1,1,0-6.44Z"/><path class="cls-6" d="M318.68,504.47h1.41a10,10,0,0,1,10,10v58a0,0,0,0,1,0,0H308.68a0,0,0,0,1,0,0v-58A10,10,0,0,1,318.68,504.47Z"/><circle class="cls-18" cx="345.57" cy="545.07" r="21.92"/><rect class="cls-5" x="327.63" y="566.99" width="35.37" height="4.98"/><rect class="cls-6" x="1059.49" y="497.73" width="59.21" height="15.82"/><path class="cls-6" d="M1059.49,498.8c0-5.83,13.37-10.63,29.61-10.63s29.6,4.8,29.6,10.63v.12"/><polyline class="cls-19" points="1118.7 503.86 1144.77 503.94 1144.77 524.98"/><path class="cls-6" d="M1097.27,547.15h74.17a9.08,9.08,0,0,0,6-2.12l13-11.6H1087.38l3.64,10C1091.81,545.64,1094.37,547.15,1097.27,547.15Z"/><rect class="cls-6" x="1134.71" y="521.32" width="19.66" height="12.35"/><polygon class="cls-6" points="1174.03 533.66 1161.68 533.66 1164.43 505.77 1170.83 505.77 1174.03 533.66"/><rect class="cls-6" x="1093.1" y="528.63" width="19.66" height="5.03"/><rect class="cls-6" x="1093.1" y="522.69" width="19.66" height="5.03"/><text class="cls-20" transform="translate(277.64 17.86) scale(1 1.1)">P<tspan class="cls-21" x="12.71" y="0">E</tspan><tspan x="24.46" y="0">TRÓLEO</tspan></text><text class="cls-20" transform="translate(277.54 427.86) scale(1 1.1)">REFINER<tspan class="cls-22" x="79.75" y="0">Í</tspan><tspan class="cls-23" x="86.16" y="0">A</tspan></text><text class="cls-20" transform="translate(641.75 427.86) scale(1 1.1)">TERMOELÉ<tspan class="cls-24" x="101.09" y="0">C</tspan><tspan x="113.9" y="0">TRICA</tspan></text><text class="cls-20" transform="translate(1040.69 427.86) scale(1 1.1)">TERMI<tspan class="cls-22" x="59.41" y="0">N</tspan><tspan class="cls-23" x="73.75" y="0">AL DE GAS</tspan></text><text class="cls-20" transform="translate(1087.64 17.86) scale(1 1.1)">CARBÓN</text><text class="cls-20" transform="translate(660.91 17.84) scale(1 1.1)">GAS <tspan class="cls-22" x="44.54" y="0">N</tspan><tspan class="cls-25" x="58.88" y="0">A</tspan><tspan class="cls-23" x="70.84" y="0">TURAL</tspan></text><text class="cls-20" transform="translate(1050.31 967.66) scale(1 1.1)">SEDIME<tspan class="cls-24" x="71.65" y="0">N</tspan><tspan class="cls-26" x="85.58" y="0">T</tspan><tspan class="cls-23" x="97.42" y="0">OS DE </tspan><tspan x="37.33" y="19.64">CARBÓN</tspan></text><text class="cls-20" transform="translate(659.55 967.86) scale(1 1.1)">EMISIONES DE <tspan x="-7.82" y="19.64">GASES</tspan><tspan class="cls-27" x="54.52" y="19.64"> </tspan><tspan class="cls-28" x="59.97" y="19.64">T</tspan><tspan class="cls-29" x="71.82" y="19.64">Ó</tspan><tspan class="cls-23" x="85.35" y="19.64">XICOS</tspan></text><text class="cls-20" transform="translate(260.21 967.86) scale(1 1.1)">DERRAMES DE <tspan x="17.43" y="19.64">P</tspan><tspan class="cls-21" x="30.13" y="19.64">E</tspan><tspan x="41.89" y="19.64">TRÓLEO</tspan></text><text class="cls-20" transform="translate(44.15 117.41) scale(1 1.1)">RECURSOS:</text><text class="cls-20" transform="translate(42.99 517.41) scale(1 1.1)">INDUSTR<tspan class="cls-22" x="83.16" y="0">I</tspan><tspan class="cls-23" x="89.56" y="0">A:</tspan></text><text class="cls-20" transform="translate(12.78 864.94) scale(1 1.1)">CO<tspan class="cls-30" x="26.79" y="0">N</tspan><tspan class="cls-31" x="40.72" y="0">T</tspan><tspan x="52.11" y="0">AMI</tspan><tspan class="cls-22" x="88.52" y="0">N</tspan><tspan class="cls-32" x="102.86" y="0">A</tspan><tspan x="115.85" y="0">CIÓN:</tspan></text><text class="cls-33" transform="translate(1306.85 119.15) scale(1 1.1)">RECURSOS:</text><text class="cls-33" transform="translate(1308.17 519.15) scale(1 1.1)">INDUSTRIA:</text><text class="cls-33" transform="translate(1269.49 866.69) scale(1 1.1)">CONTAMINACIÓN:</text></g></g></svg>