<svg xmlns="http://www.w3.org/2000/svg" xmlns:xlink="http://www.w3.org/1999/xlink" viewBox="0 0 807.66 627.37"><defs><style>.cls-1,.cls-23,.cls-8{fill:none;}.cls-2{fill:#195676;}.cls-3{clip-path:url(#clip-path);}.cls-4{fill:#3c3c3b;}.cls-5{font-size:15px;font-family:CenturyGothic-Bold, Century Gothic;font-weight:700;}.cls-14,.cls-17,.cls-24,.cls-25,.cls-5,.cls-9{fill:#f8ab37;}.cls-6{letter-spacing:-0.06em;}.cls-7{fill:#d8283c;}.cls-8{stroke:#fff;stroke-linecap:round;stroke-linejoin:round;stroke-width:2px;}.cls-9{font-size:8.67px;}.cls-14,.cls-17,.cls-9{font-family:CenturyGothic, Century Gothic;}.cls-10{letter-spacing:-0.02em;}.cls-11{letter-spacing:-0.09em;}.cls-12{letter-spacing:0em;}.cls-13{letter-spacing:-0.05em;}.cls-14{font-size:10.87px;}.cls-15{letter-spacing:-0.09em;}.cls-16{letter-spacing:-0.09em;}.cls-17{font-size:8.4px;}.cls-18{letter-spacing:-0.02em;}.cls-19{letter-spacing:-0.02em;}.cls-20{letter-spacing:-0.09em;}.cls-21{letter-spacing:0em;}.cls-22{letter-spacing:-0.05em;}.cls-23{stroke:#f8ab37;stroke-miterlimit:10;}.cls-25{fill-rule:evenodd;}.cls-26{fill:#121417;}</style><clipPath id="clip-path"><rect class="cls-1" x="7.02" y="6.18" width="792" height="612"/></clipPath></defs><title>mapaRecurso 1</title><g id="Capa_2" data-name="Capa 2"><g id="Capa_1-2" data-name="Capa 1"><rect class="cls-2" x="7.02" y="6.18" width="792" height="612"/><g class="cls-3"><path class="cls-4" d="M6.59,589a132.58,132.58,0,0,0,7.85-16.8c4.89-12.78,11-28.63,7.1-39.82-1.39-4-2.63-17.68-.54-18.94s4.34,1.38,6,.23c2.4-1.66-.94-8.14,1.16-9.69s5.92,4.19,12.92,4.38c5.09.14,5.9-2.81,10.15-2.08,5.34.93,5.34,5.79,10.84,6.93,4.18.86,13.48-7.48,15.92-9,3.85-2.4,7.24.54,11.08-1.39,3.08-1.54,4.15-5.06,5.07-8.07,3.35-11-8.37-29.42-8.53-33.92-.14-3.87,1.73-6.05.23-9s-11.89-2.9-13.85-4.39c-2.26-1.73.1-5.47-2.53-8.53-2-2.32-6.6-9.44-7.85-9.93-1.58-.61-3.91,4.23-5.77,3.69-1.34-.38-3.11-11.19-5.07-18.91-1.73-6.82-1.15-19.35-1.38-27.69-.13-4.39-.77-7.14,1.15-9.46,1.45-1.75,4.13-7.47,5.3-9.69,1.48-2.79,4.22-1.79,5.77-4.15,1.93-2.94-1.44-5.79-.92-12.46.17-2.15.48-6.28,3.23-8.08,1.23-.81,15.52-1.18,16.15-1.84,2.1-2.2-.14-5.9,1.62-7.15s5.89,1,8.53,3.46a187.21,187.21,0,0,0,15.92,12.92c2.85,1.94,2.29,3.11,5.54,6,4.36,3.87,6.28,2.55,9,5.53,3.85,4.22,1.24,8.21,4.61,11.08,3.68,3.13,7.72-.84,12.46,1.84s3,7.94,8.31,16.61c4.77,7.77,7.75,6.11,9.46,11.08,3.45,10.05-8.57,17.33-4.85,26.76,1.92,4.87,5.74,4.53,9,12,.88,2-4,20.43-6.23,30.22-.45,2-1.82,8.15.69,14.08,2.88,6.8,9.46,10.1,14.31,12.23,18.72,8.2,33.44,14.65,56.29,13.38,5.46-.31,23.41-5.59,59.3-16.15,11.51-3.39,18.43-5.52,27.45-9a306,306,0,0,0,33.69-15.69c38.18-21.33,66.25-56.45,70-61.19,23.59-30,34.2-57.42,41.67-77.23,5.07-13.44,21-58.2,21.12-117.8.05-24.54-2.58-51.51-17.78-76.67-4.51-7.47-14-22.7-25.56-22.23-9.09.37-11.16,10-27.23,18.34-10.77,5.56-26.1,9.86-31.12,4.44-1.09-1.18-2.71-3.92-1.82-5.68s3.95-.85,5.22-2.61c1.68-2.31-2-6.11-5.06-15a35,35,0,0,1-2.31-9.7c-.49-7.49,2.25-12.75.64-13.63-1.23-.68-2.83,2.46-5.72,2.1-1.27-.16-1.75-.86-6.45-5.69-2.85-2.92-3.09-3.09-3.39-3.84-1.42-3.64,1.08-7.76,1.67-8.68,2.55-4,5.39-3.64,6.48-7,.6-1.84.66-4.73-.92-6.34-1.82-1.83-4.42-.61-12.15-.58-5.4,0-8.13,0-9.37-1.54s-.28-3.46,1.23-11.07c1.61-8.14,1.45-11.41,3.53-12.14,1.88-.66,3.1,1.62,6.15.92,1.93-.44,2.12-1.5,4.61-2.15s3.72.06,4.15-.61c.72-1.11-1.57-4.65-4.91-6.92-5.88-4-11.31-1.54-13.25-4.8-1.16-2,.3-3.69.64-7.35.32-3.47-.38-8.45-5.08-14.88L805.25,3.61q1.2,311.88,2.41,623.76L0,625q3.3-18,6.59-36"/></g><text class="cls-5" transform="translate(269.93 550.89)">LONCURA</text><text class="cls-5" transform="translate(485 89.58)">PUCHUNC<tspan class="cls-6" x="72.3" y="0">A</tspan><tspan x="82.48" y="0">VÍ</tspan></text><text class="cls-5" transform="translate(63.91 406.66)">QUINTERO</text><text class="cls-5" transform="translate(221.5 236.55)">BAHÍA DE</text><text class="cls-5" transform="translate(221.5 254.55)">QUINTERO</text><g class="cls-3"><path class="cls-7" d="M471.05,160.77a124.65,124.65,0,0,1,20.76,5.88c7.91,3,14.17,5.39,20.2,10.22,3.92,3.13,11.93,10.67,16.34,25.42q-1.36,8.18-2.72,16.34l-38.82.23q.12-6.93.23-13.85l-9.23-.45A155,155,0,0,0,476,182.72a157,157,0,0,0-5-21.95"/><path class="cls-8" d="M471.05,160.77a124.65,124.65,0,0,1,20.76,5.88c7.91,3,14.17,5.39,20.2,10.22,3.92,3.13,11.93,10.67,16.34,25.42q-1.36,8.18-2.72,16.34l-38.82.23q.12-6.93.23-13.85l-9.23-.45A155,155,0,0,0,476,182.72,157,157,0,0,0,471.05,160.77Z"/><path class="cls-7" d="M528.35,202.29c2.24-.17,5.54-.39,9.54-.5,10.22-.28,15.4-.38,19,1.68,1.81,1,6,4,8.17,12.26l-90.78,46.9q1.22-19.77,2.42-39.54l-76.55-.25c.11-1.32.21-2.64.32-4l76.5-.22q.44-7,.86-14.1L487,205q-.12,6.93-.23,13.85l38.82-.23q1.36-8.16,2.72-16.34"/><path class="cls-8" d="M528.35,202.29c2.24-.17,5.54-.39,9.54-.5,10.22-.28,15.4-.38,19,1.68,1.81,1,6,4,8.17,12.26l-90.78,46.9q1.22-19.77,2.42-39.54l-76.55-.25c.11-1.32.21-2.64.32-4l76.5-.22q.44-7,.86-14.1L487,205q-.12,6.93-.23,13.85l38.82-.23Q527,210.47,528.35,202.29Z"/><path class="cls-7" d="M519.72,239.14l1.56,10.09,49.41-24.16L565,215.73l-45.32,23.41"/><path class="cls-8" d="M519.72,239.14l1.56,10.09,49.41-24.16L565,215.73Z"/><path class="cls-7" d="M521.28,249.23q2.61,5.85,5.23,11.68l30.62-10.2-9.9-14.17-26,12.69"/><path class="cls-8" d="M521.28,249.23q2.61,5.85,5.23,11.68l30.62-10.2-9.9-14.17Z"/><path class="cls-7" d="M557.13,250.71l28.9-12a56.9,56.9,0,0,1-15.34-13.68l-23.46,11.48Z"/><path class="cls-8" d="M557.13,250.71l28.9-12a56.9,56.9,0,0,1-15.34-13.68l-23.46,11.48Z"/><path class="cls-7" d="M457.82,328.45c3.27-9.06,6.44-19.06,9.25-30a334.18,334.18,0,0,0,7.19-35.86l45.46-23.49,1.56,10.09q2.61,5.85,5.23,11.68,1.71,5.22,3.41,10.44l34.82,3c.76.48,6.34,4.07,5.86,8.2-.23,2-1.78,3.69-3.6,5.73-2.72,3-4,4.19-4,4.19-1.22,1.12-2,1.66-2,2.57,0,1.17,1.19,1.58,1.47,3.16a4.72,4.72,0,0,1-.44,2.57,16.5,16.5,0,0,1-4.7,6.53c-1.75,1.55-2.64,2.43-4.19,2.87a8.52,8.52,0,0,1-4.37-.07,97.56,97.56,0,0,0-11.16-1.74c-4.23,2-7.71,3.87-10.29,5.33-9.19,5.22-7.38,5.46-15.13,9.8-4.07,2.27-6.61,3.35-8.43,6.45a20.85,20.85,0,0,0-2.11,5.83,20,20,0,0,0-.62,6.69,17,17,0,0,0,4.21,9.3c-3,2.77-6.14,5.86-9.3,9.3-2,2.19-3.86,4.35-5.58,6.45l-18.85-35.59-13.74-3.48"/><path class="cls-8" d="M457.82,328.45c3.27-9.06,6.44-19.06,9.25-30a334.18,334.18,0,0,0,7.19-35.86l45.46-23.49,1.56,10.09q2.61,5.85,5.23,11.68,1.71,5.22,3.41,10.44l34.82,3c.76.48,6.34,4.07,5.86,8.2-.23,2-1.78,3.69-3.6,5.73-2.72,3-4,4.19-4,4.19-1.22,1.12-2,1.66-2,2.57,0,1.17,1.19,1.58,1.47,3.16a4.72,4.72,0,0,1-.44,2.57,16.5,16.5,0,0,1-4.7,6.53c-1.75,1.55-2.64,2.43-4.19,2.87a8.52,8.52,0,0,1-4.37-.07,97.56,97.56,0,0,0-11.16-1.74c-4.23,2-7.71,3.87-10.29,5.33-9.19,5.22-7.38,5.46-15.13,9.8-4.07,2.27-6.61,3.35-8.43,6.45a20.85,20.85,0,0,0-2.11,5.83,20,20,0,0,0-.62,6.69,17,17,0,0,0,4.21,9.3c-3,2.77-6.14,5.86-9.3,9.3-2,2.19-3.86,4.35-5.58,6.45l-18.85-35.59Z"/><path class="cls-7" d="M457.82,328.45l-7,18-38.91-30.12-15.43-6.3c-.3,1.09-.59,2.19-.89,3.28l14.82,6.75,38.81,30.11c-1,2.21-2,4.44-3,6.68-4.56,9.84-9.41,19-14.38,27.51L474,393.31a69,69,0,0,1,16.44-25.79l-18.85-35.59-13.74-3.48"/><path class="cls-8" d="M457.82,328.45l-7,18-38.91-30.12-15.43-6.3c-.3,1.09-.59,2.19-.89,3.28l14.82,6.75,38.81,30.11c-1,2.21-2,4.44-3,6.68-4.56,9.84-9.41,19-14.38,27.51L474,393.31a69,69,0,0,1,16.44-25.79l-18.85-35.59Z"/><path class="cls-7" d="M474,393.31A78.6,78.6,0,0,1,486.27,372c1.87-2.28,4-4.64,6.67-7.49,5-5.44,9.33-9.77,12.35-12.74,1.53,2.07,3.62,5,5.92,8.75,3.84,6.19,5.76,9.29,6.48,12.84.84,4.12.17,7.58-1.18,14.49a93.08,93.08,0,0,1-3.18,12L474,393.31"/><path class="cls-8" d="M474,393.31A78.6,78.6,0,0,1,486.27,372c1.87-2.28,4-4.64,6.67-7.49,5-5.44,9.33-9.77,12.35-12.74,1.53,2.07,3.62,5,5.92,8.75,3.84,6.19,5.76,9.29,6.48,12.84.84,4.12.17,7.58-1.18,14.49a93.08,93.08,0,0,1-3.18,12Z"/><path class="cls-7" d="M418.59,403.9q6.62-9.76,13.24-19.51L474,393.31l39.36,6.55L491.61,503.34l-40,48.13-48.32-58.71q5.66-17.64,11.32-35.3l47,52.11,22.27-19.64-2.64-10.38c-10.08-10.49-20.47-22-31-34.55-11.81-14.14-22.33-27.93-31.68-41.1"/><path class="cls-8" d="M418.59,403.9q6.62-9.76,13.24-19.51L474,393.31l39.36,6.55L491.61,503.34l-40,48.13-48.32-58.71q5.66-17.64,11.32-35.3l47,52.11,22.27-19.64-2.64-10.38c-10.08-10.49-20.47-22-31-34.55C438.46,430.86,427.94,417.07,418.59,403.9Z"/><path class="cls-7" d="M414.59,457.46l-23.53-22.74A239.07,239.07,0,0,1,352.92,465l22.23,27,33.1,14.58,3.83-3.14-8.81-10.7q5.66-17.65,11.32-35.31"/><path class="cls-8" d="M414.59,457.46l-23.53-22.74A239.07,239.07,0,0,1,352.92,465l22.23,27,33.1,14.58,3.83-3.14-8.81-10.7Q408.93,475.12,414.59,457.46Z"/><path class="cls-7" d="M391.06,434.72l23.53,22.74,47,52.11,22.27-19.64-2.64-10.38c-10.08-10.49-20.47-22-31-34.55-11.81-14.14-22.33-27.93-31.68-41.1l-21.65,24.24L288.07,349.6l-2.73,3.32,108.53,78.65-2.81,3.15"/><path class="cls-8" d="M391.06,434.72l23.53,22.74,47,52.11,22.27-19.64-2.64-10.38c-10.08-10.49-20.47-22-31-34.55-11.81-14.14-22.33-27.93-31.68-41.1l-21.65,24.24L288.07,349.6l-2.73,3.32,108.53,78.65Z"/><path class="cls-7" d="M451.59,551.47l19.11,19,18.88-25.07-19.51-16.2-18.48,22.22"/><path class="cls-8" d="M451.59,551.47l19.11,19,18.88-25.07-19.51-16.2Z"/><path class="cls-7" d="M735.63,277.24v19.27l18.4,7.3q2-10.08,4.09-20.15l-22.49-6.42"/><path class="cls-8" d="M735.63,277.24v19.27l18.4,7.3q2-10.08,4.09-20.15Z"/><rect class="cls-7" x="590.54" y="171.94" width="9.63" height="19.92"/><rect class="cls-8" x="590.54" y="171.94" width="9.63" height="19.92"/><rect class="cls-7" x="600.17" y="161.98" width="9.63" height="19.92"/><rect class="cls-8" x="600.17" y="161.98" width="9.63" height="19.92"/></g><text class="cls-9" transform="translate(377.07 189.82)">TERMOELÉCTRICAS</text><text class="cls-9" transform="translate(410.44 200.22)">AES GENER</text><text class="cls-9" transform="translate(375.79 243.81)">PUE<tspan class="cls-10" x="15.45" y="0">R</tspan><tspan x="20.56" y="0">TO VEN</tspan><tspan class="cls-11" x="51.33" y="0">T</tspan><tspan class="cls-12" x="54.22" y="0">ANAS</tspan></text><text class="cls-9" transform="translate(625.41 170.48)">TERMINAL DE </text><text class="cls-9" transform="translate(625.41 180.89)">AS<tspan class="cls-13" x="10.73" y="0">F</tspan><tspan x="14.46" y="0">A</tspan><tspan class="cls-11" x="20.88" y="0">L</tspan><tspan x="24.08" y="0">TOS CORDEX</tspan></text><text class="cls-14" transform="translate(589.46 221.05) scale(0.8 1)">ACOPIO DE CARBÓN</text><text class="cls-9" transform="translate(589.46 231.26)">C<tspan class="cls-15" x="7.05" y="0">A</tspan><tspan class="cls-16" x="12.66" y="0">T</tspan><tspan x="15.56" y="0">AMOTUM</tspan></text><text class="cls-9" transform="translate(563.15 255.47)">MOLIENDA DE CEMENTO</text><text class="cls-9" transform="translate(563.15 265.87)">MELÓN S.A.</text><text class="cls-9" transform="translate(529.95 385.48)">PLAN<tspan class="cls-16" x="21.96" y="0">T</tspan><tspan x="24.86" y="0">A</tspan></text><text class="cls-9" transform="translate(529.95 395.88)">GASMAR</text><text class="cls-9" transform="translate(514.22 446.51)">TERMINAL MARÍTIMO</text><text class="cls-9" transform="translate(514.22 456.91)">ENAP</text><text class="cls-9" transform="translate(499.65 550.88)">CENTRAL TERMOELÉCTRICA</text><text class="cls-9" transform="translate(499.65 561.28)">ENEL</text><text class="cls-17" transform="translate(689.46 537.22)">Escuelas, colegios y/o</text><text class="cls-17" transform="translate(689.46 547.3)">ja<tspan class="cls-18" x="7.45" y="0">r</tspan><tspan x="9.82" y="0">dines infantiles</tspan></text><text class="cls-17" transform="translate(689.46 564.9)">Caleta</text><text class="cls-17" transform="translate(689.46 583.78)">Cent<tspan class="cls-19" x="20.26" y="0">r</tspan><tspan x="22.64" y="0">o de Salud</tspan></text><text class="cls-9" transform="translate(350.45 284.79)">FUNDICIÓN Y REFINERÍA</text><text class="cls-9" transform="translate(348.84 295.2)">VEN<tspan class="cls-20" x="17.15" y="0">T</tspan><tspan class="cls-21" x="20.04" y="0">ANAS DE CODELCO</tspan></text><text class="cls-9" transform="translate(683.39 286.8)">MINERA</text><text class="cls-9" transform="translate(642.64 297.2)">MONTECARMELO</text><text class="cls-9" transform="translate(338.47 364.84)">TERMINAL MARÍTIMO</text><text class="cls-9" transform="translate(386.51 375.24)">OXIQIUM</text><text class="cls-9" transform="translate(241.59 403.92)">TERMINAL MARÍTIMO</text><text class="cls-9" transform="translate(263.49 414.33)">GNL QUINTERO</text><text class="cls-9" transform="translate(119.75 347.15)">EMISARIO SUBMARINO</text><text class="cls-9" transform="translate(119.75 357.56)">ES<tspan class="cls-22" x="8.96" y="0">V</tspan><tspan x="14.66" y="0">AL</tspan></text><text class="cls-9" transform="translate(273.58 443.51)">TERMINAL MARÍTIMO</text><text class="cls-9" transform="translate(327.59 453.92)">COPEC</text><line class="cls-23" x1="461.04" y1="189.82" x2="481.93" y2="189.82"/><g class="cls-3"><path class="cls-24" d="M481.84,191.7a1.88,1.88,0,1,0-1.88-1.88,1.89,1.89,0,0,0,1.88,1.88"/><line class="cls-23" x1="622.29" y1="172.34" x2="604.51" y2="172.34"/><path class="cls-24" d="M604.61,170.46a1.88,1.88,0,1,0,1.88,1.88,1.88,1.88,0,0,0-1.88-1.88"/><line class="cls-23" x1="586.03" y1="221.73" x2="564.94" y2="221.73"/><path class="cls-24" d="M565,219.85a1.88,1.88,0,1,0,1.88,1.88,1.88,1.88,0,0,0-1.88-1.88"/><line class="cls-23" x1="560.84" y1="252.33" x2="542.06" y2="252.33"/><path class="cls-24" d="M542.15,250.45a1.88,1.88,0,1,0,1.88,1.88,1.88,1.88,0,0,0-1.88-1.88"/><line class="cls-23" x1="528.35" y1="381.88" x2="509.56" y2="381.88"/><path class="cls-24" d="M509.66,380a1.88,1.88,0,1,0,1.88,1.88,1.88,1.88,0,0,0-1.88-1.88"/><line class="cls-23" x1="115.47" y1="347.16" x2="96.68" y2="347.16"/><path class="cls-24" d="M96.78,345.28a1.88,1.88,0,1,0,1.88,1.88,1.88,1.88,0,0,0-1.88-1.88"/><line class="cls-23" x1="510.94" y1="447.88" x2="492.15" y2="447.88"/><path class="cls-24" d="M492.24,446a1.88,1.88,0,1,0,1.88,1.88,1.88,1.88,0,0,0-1.88-1.88"/><line class="cls-23" x1="496.02" y1="553.47" x2="477.23" y2="553.47"/><path class="cls-24" d="M477.33,551.59a1.88,1.88,0,1,0,1.88,1.88,1.88,1.88,0,0,0-1.88-1.88"/><line class="cls-23" x1="463.23" y1="240.15" x2="484.13" y2="240.15"/><path class="cls-24" d="M484,242a1.88,1.88,0,1,0-1.88-1.88A1.88,1.88,0,0,0,484,242"/><line class="cls-23" x1="721.65" y1="288.74" x2="742.54" y2="288.74"/><path class="cls-24" d="M742.45,290.62a1.88,1.88,0,1,0-1.88-1.88,1.88,1.88,0,0,0,1.88,1.88"/><line class="cls-23" x1="457.82" y1="287.79" x2="478.71" y2="287.79"/><path class="cls-24" d="M478.62,289.67a1.88,1.88,0,1,0-1.88-1.88,1.88,1.88,0,0,0,1.88,1.88"/><line class="cls-23" x1="431.66" y1="367.83" x2="452.56" y2="367.83"/><path class="cls-24" d="M452.46,369.71a1.88,1.88,0,1,0-1.88-1.88,1.88,1.88,0,0,0,1.88,1.88"/><line class="cls-23" x1="336.52" y1="401.92" x2="357.42" y2="401.92"/><path class="cls-24" d="M357.33,403.8a1.88,1.88,0,1,0-1.88-1.88,1.88,1.88,0,0,0,1.88,1.88"/><line class="cls-23" x1="364.44" y1="446.52" x2="385.33" y2="446.52"/><path class="cls-24" d="M385.24,448.4a1.88,1.88,0,1,0-1.88-1.88,1.88,1.88,0,0,0,1.88,1.88"/></g><g class="cls-3"><path class="cls-25" d="M298.47,491.59a4.46,4.46,0,0,1,2,3.72,6,6,0,0,1-4.93-2.43,8.57,8.57,0,0,1-6.83,3.21c-4-.32-6.08-2.09-7.39-4.5,1.31-2.38,3.43-4.16,7.39-4.5a8.61,8.61,0,0,1,6.83,3.24,6.1,6.1,0,0,1,4.93-2.46,4.46,4.46,0,0,1-2,3.72"/><path class="cls-25" d="M682.8,560.9a4.46,4.46,0,0,1,2,3.72,6,6,0,0,1-4.93-2.43,8.56,8.56,0,0,1-6.83,3.2c-4-.31-6.08-2.09-7.39-4.49,1.31-2.38,3.43-4.16,7.39-4.5a8.63,8.63,0,0,1,6.83,3.23,6.12,6.12,0,0,1,4.93-2.45,4.46,4.46,0,0,1-2,3.72"/><path class="cls-25" d="M171.41,496.09a4.48,4.48,0,0,1,2,3.71,6,6,0,0,1-4.94-2.43,8.54,8.54,0,0,1-6.83,3.21c-4-.31-6.07-2.09-7.39-4.49,1.32-2.39,3.43-4.16,7.39-4.5a8.56,8.56,0,0,1,6.83,3.23,6.11,6.11,0,0,1,4.94-2.45,4.49,4.49,0,0,1-2,3.72"/><path class="cls-25" d="M163.47,440.37a4.46,4.46,0,0,1,2,3.72,6,6,0,0,1-4.93-2.43,8.54,8.54,0,0,1-6.83,3.21c-4-.32-6.08-2.09-7.39-4.5,1.31-2.38,3.43-4.15,7.39-4.49a8.56,8.56,0,0,1,6.83,3.23,6.1,6.1,0,0,1,4.93-2.46,4.45,4.45,0,0,1-2,3.72"/><path class="cls-24" d="M129.37,587.67h-16V577.16l7.94-5.33,8.07,5.33Z"/><path class="cls-26" d="M117.88,577.18a1,1,0,1,1,.77,1.25,1,1,0,0,1-.77-1.25"/><path class="cls-26" d="M118,586.63a.47.47,0,1,0,.93,0v-2.78h.83a15.84,15.84,0,0,0-.35-4,2.9,2.9,0,0,1-.43,0,2.64,2.64,0,0,1-.69-.09.41.41,0,0,1-.29-.51.42.42,0,0,1,.4-.3h.14l.1,0a2.51,2.51,0,0,0,.34,0h.09a.83.83,0,0,0-.67-.42c-1.55,0-1.36,5.17-1.36,5.17h1Z"/><path class="cls-26" d="M118.64,579.16l-.1,0h0a.32.32,0,1,0-.18.62,2.24,2.24,0,0,0,.67.09l.4,0a2,2,0,0,0,.84-.34,2.32,2.32,0,0,0,.9-1.59.34.34,0,0,0-.27-.38.32.32,0,0,0-.37.27,1.68,1.68,0,0,1-.63,1.18,1.44,1.44,0,0,1-.73.24H119a1.79,1.79,0,0,1-.36,0"/><path class="cls-26" d="M124.72,579.41a.91.91,0,1,1-.91.91.91.91,0,0,1,.91-.91"/><path class="cls-26" d="M124,583.27a1.46,1.46,0,0,1-.16-.19l-.06-.1a1.87,1.87,0,0,1-.25-.92v0a.37.37,0,0,1,.37-.35h0a.38.38,0,0,1,.36.38,1.43,1.43,0,0,0,.06.37,1.51,1.51,0,0,0,.11.22c.08-.44.14-1-.15-1.18l0,0a1.38,1.38,0,0,0-.84-.28h-.21l0-.24-1.18-.2a.23.23,0,0,0-.27.19l-.41,2.44a.23.23,0,0,0,.19.27l1.18.2.07-.41.2,0h.05v.23a1.07,1.07,0,0,0,.45.88,2.61,2.61,0,0,1-.89,1.79.44.44,0,1,0,.62.62,3.71,3.71,0,0,0,1.09-1.92,1.65,1.65,0,0,1,.23.87,2.5,2.5,0,0,1-.09.62.44.44,0,0,0,.3.54l.12,0a.44.44,0,0,0,.42-.32,3,3,0,0,0,.13-.86,2.73,2.73,0,0,0-.68-1.79c-.12-.13-.24-.24-.34-.33a1.55,1.55,0,0,0,0-.21l-.06,0a1.64,1.64,0,0,1-.35-.29m-1,0-.16,0,.3-1.78.25,0a.86.86,0,0,1,.22,0,1.07,1.07,0,0,0-.51.87,7.25,7.25,0,0,0,0,.93h-.05"/><path class="cls-26" d="M124.71,583a.83.83,0,0,1-.26-.23,1,1,0,0,1-.17-.31,1.41,1.41,0,0,1-.08-.4h0a.28.28,0,1,0-.55,0v0a1.78,1.78,0,0,0,.24.87l.07.12a1.07,1.07,0,0,0,.14.16,1.69,1.69,0,0,0,.32.27h0a2.1,2.1,0,0,0,1,.26h0a.28.28,0,0,0,.28-.27.26.26,0,0,0-.26-.28,1.48,1.48,0,0,1-.71-.19"/><path class="cls-24" d="M360.92,581.14h-16v-10.5l7.94-5.34,8.06,5.34Z"/><path class="cls-26" d="M349.43,570.66a1,1,0,1,1,.77,1.25,1,1,0,0,1-.77-1.25"/><path class="cls-26" d="M349.58,580.11a.46.46,0,0,0,.46.46.47.47,0,0,0,.46-.46v-2.79h.84a15.54,15.54,0,0,0-.36-4,2.72,2.72,0,0,1-.42,0,3.22,3.22,0,0,1-.7-.09.43.43,0,0,1-.29-.52.43.43,0,0,1,.4-.3l.12,0h0l.1,0a1.56,1.56,0,0,0,.35,0h.08a.8.8,0,0,0-.67-.41c-1.55,0-1.36,5.16-1.36,5.16h1Z"/><path class="cls-26" d="M350.19,572.64l-.1,0h0a.32.32,0,0,0-.18.62,3,3,0,0,0,.68.08l.4,0a2,2,0,0,0,.84-.33,2.36,2.36,0,0,0,.89-1.6.32.32,0,0,0-.27-.37.32.32,0,0,0-.37.26,1.66,1.66,0,0,1-.63,1.18,1.32,1.32,0,0,1-.72.24h-.14a3.06,3.06,0,0,1-.37,0"/><path class="cls-26" d="M356.27,572.89a.91.91,0,1,1-.91.91.91.91,0,0,1,.91-.91"/><path class="cls-26" d="M355.58,576.74a1.46,1.46,0,0,1-.16-.19l-.06-.1a1.84,1.84,0,0,1-.25-.92v0a.37.37,0,0,1,.37-.35h0a.38.38,0,0,1,.36.38,1.16,1.16,0,0,0,.07.37.88.88,0,0,0,.1.22c.08-.43.15-1-.15-1.18l0,0a1.38,1.38,0,0,0-.84-.28h-.21l0-.24-1.18-.2a.24.24,0,0,0-.27.19l-.41,2.45a.25.25,0,0,0,.19.27l1.18.19.07-.41a.65.65,0,0,0,.2,0h.05a1.77,1.77,0,0,0,0,.23,1.07,1.07,0,0,0,.44.89,2.61,2.61,0,0,1-.89,1.78.44.44,0,1,0,.62.62,3.7,3.7,0,0,0,1.1-1.92,1.75,1.75,0,0,1,.22.87,2.11,2.11,0,0,1-.09.62.43.43,0,0,0,.3.54l.12,0a.44.44,0,0,0,.42-.32,3,3,0,0,0,.13-.86,2.7,2.7,0,0,0-.68-1.78,2.55,2.55,0,0,0-.34-.33l0-.21-.07,0a1.64,1.64,0,0,1-.35-.29m-1,0h-.16l.3-1.79.25,0,.22,0a1.09,1.09,0,0,0-.51.87c0,.31-.05.62-.05.93h-.05"/><path class="cls-26" d="M356.26,576.47a1,1,0,0,1-.26-.22,1.1,1.1,0,0,1-.17-.32,1.21,1.21,0,0,1-.07-.4h0a.28.28,0,1,0-.56,0v0a1.76,1.76,0,0,0,.24.87.83.83,0,0,0,.08.12l.13.17a1.81,1.81,0,0,0,.33.26h0a2,2,0,0,0,1,.26h0a.27.27,0,0,0,.27-.26.27.27,0,0,0-.26-.29,1.4,1.4,0,0,1-.71-.19"/><path class="cls-24" d="M683.45,546.32h-16v-10.5l7.94-5.34,8.07,5.34Z"/><path class="cls-26" d="M672,535.84a1,1,0,1,1,.78,1.25,1,1,0,0,1-.78-1.25"/><path class="cls-26" d="M672.1,545.29a.47.47,0,0,0,.93,0v-2.78h.83a15.91,15.91,0,0,0-.35-4,2,2,0,0,1-.43,0,2.64,2.64,0,0,1-.69-.09.41.41,0,0,1,.11-.81h.14l.1,0a2.36,2.36,0,0,0,.34,0h.09a.83.83,0,0,0-.67-.42c-1.55,0-1.36,5.17-1.36,5.17h1Z"/><path class="cls-26" d="M672.72,537.82l-.1,0h0a.32.32,0,1,0-.18.62,2.24,2.24,0,0,0,.67.09,1.87,1.87,0,0,0,.4,0,2,2,0,0,0,.84-.33,2.28,2.28,0,0,0,.89-1.6.32.32,0,0,0-.26-.37.32.32,0,0,0-.37.26,1.69,1.69,0,0,1-.63,1.18,1.38,1.38,0,0,1-.73.24h-.14a3.05,3.05,0,0,1-.36,0"/><path class="cls-26" d="M678.79,538.07a.91.91,0,1,1-.91.91.91.91,0,0,1,.91-.91"/><path class="cls-26" d="M678.11,541.93a1.56,1.56,0,0,1-.16-.2l-.06-.1a1.8,1.8,0,0,1-.25-.91v0a.36.36,0,0,1,.36-.36h0a.37.37,0,0,1,.35.39,1.16,1.16,0,0,0,.07.36,1.13,1.13,0,0,0,.11.22c.08-.43.14-1-.15-1.17l0,0a1.34,1.34,0,0,0-.85-.29l-.2,0,0-.24-1.18-.2a.23.23,0,0,0-.27.19l-.41,2.44a.23.23,0,0,0,.19.27l1.18.2.07-.41h.25v.23a1.09,1.09,0,0,0,.45.89,2.64,2.64,0,0,1-.89,1.78.44.44,0,0,0,.62.62,3.67,3.67,0,0,0,1.09-1.92,1.78,1.78,0,0,1,.23.87,2.44,2.44,0,0,1-.09.62.44.44,0,0,0,.3.55H679a.43.43,0,0,0,.42-.31,3.11,3.11,0,0,0,.13-.87,2.65,2.65,0,0,0-.69-1.78,2.56,2.56,0,0,0-.33-.33,1.55,1.55,0,0,0,0-.21l-.06,0a1.6,1.6,0,0,1-.35-.28m-1-.06H677l.31-1.78a.93.93,0,0,1,.24,0l.23,0a1.06,1.06,0,0,0-.51.87,7.25,7.25,0,0,0,0,.93h-.05"/><path class="cls-26" d="M678.79,541.66a1,1,0,0,1-.26-.23,1.14,1.14,0,0,1-.18-.32,1.53,1.53,0,0,1-.07-.39h0a.26.26,0,0,0-.26-.28.27.27,0,0,0-.29.26v0a1.81,1.81,0,0,0,.24.87.75.75,0,0,0,.07.12l.14.16a1.4,1.4,0,0,0,.32.26h0a2.06,2.06,0,0,0,1,.27h0a.28.28,0,0,0,.28-.27.28.28,0,0,0-.27-.29,1.48,1.48,0,0,1-.7-.18"/><path class="cls-24" d="M737.65,75.58h-16V65.07l7.94-5.33,8.06,5.33Z"/><path class="cls-26" d="M726.16,65.09a1,1,0,1,1,.77,1.25,1,1,0,0,1-.77-1.25"/><path class="cls-26" d="M726.31,74.54a.46.46,0,0,0,.46.47.47.47,0,0,0,.46-.47V71.76h.84a15.51,15.51,0,0,0-.36-4,2.77,2.77,0,0,1-.42,0,2.67,2.67,0,0,1-.7-.09.42.42,0,0,1-.29-.51.43.43,0,0,1,.4-.3h.14l.1,0a2.53,2.53,0,0,0,.35,0h.08a.81.81,0,0,0-.67-.42c-1.55,0-1.36,5.17-1.36,5.17h1Z"/><path class="cls-26" d="M726.92,67.07l-.1,0h0a.32.32,0,1,0-.18.62,2.27,2.27,0,0,0,.68.09l.4,0a2,2,0,0,0,.84-.34,2.31,2.31,0,0,0,.89-1.6.32.32,0,1,0-.64-.1,1.68,1.68,0,0,1-.63,1.18,1.44,1.44,0,0,1-.72.24h-.14a1.83,1.83,0,0,1-.37,0"/><path class="cls-26" d="M733,67.32a.91.91,0,1,1-.91.91.91.91,0,0,1,.91-.91"/><path class="cls-26" d="M732.31,71.18a1.46,1.46,0,0,1-.16-.19l-.06-.1a1.87,1.87,0,0,1-.25-.92v0a.37.37,0,0,1,.37-.35h0a.38.38,0,0,1,.36.38,1.24,1.24,0,0,0,.07.37,1.47,1.47,0,0,0,.1.22c.08-.44.15-1-.15-1.18l0,0a1.38,1.38,0,0,0-.84-.28h-.21l0-.24-1.18-.2a.24.24,0,0,0-.27.19l-.41,2.44a.24.24,0,0,0,.19.27l1.18.2.07-.41.2,0h0a1.62,1.62,0,0,0,0,.22,1.09,1.09,0,0,0,.44.89,2.61,2.61,0,0,1-.89,1.79.44.44,0,1,0,.62.62,3.74,3.74,0,0,0,1.1-1.92,1.75,1.75,0,0,1,.22.87,2.11,2.11,0,0,1-.09.62.45.45,0,0,0,.3.54l.12,0a.46.46,0,0,0,.43-.32,3.42,3.42,0,0,0,.12-.86A2.73,2.73,0,0,0,733.1,72a3.44,3.44,0,0,0-.34-.33l0-.21-.07,0a1.64,1.64,0,0,1-.35-.29m-1-.05-.16,0,.3-1.78.25,0a.82.82,0,0,1,.22,0,1.05,1.05,0,0,0-.51.87c0,.31-.05.61-.05.92h0"/><path class="cls-26" d="M733,70.91a1,1,0,0,1-.26-.23,1.19,1.19,0,0,1-.17-.31,1.24,1.24,0,0,1-.07-.4h0a.29.29,0,0,0-.27-.29.28.28,0,0,0-.29.27v0a1.81,1.81,0,0,0,.24.87l.08.12a1,1,0,0,0,.13.16,1.23,1.23,0,0,0,.33.26h0a2.06,2.06,0,0,0,1,.26h0a.28.28,0,0,0,.27-.27.26.26,0,0,0-.26-.28,1.51,1.51,0,0,1-.71-.19"/><path class="cls-24" d="M667.73,91.42h-16V80.91l7.94-5.33,8.07,5.33Z"/><path class="cls-26" d="M656.23,80.93a1,1,0,1,1,.78,1.25,1,1,0,0,1-.78-1.25"/><path class="cls-26" d="M656.38,90.38a.47.47,0,1,0,.93,0V87.6h.83a15.82,15.82,0,0,0-.35-3.95,3,3,0,0,1-.43,0,2.83,2.83,0,0,1-.7-.09.4.4,0,0,1-.28-.51.41.41,0,0,1,.4-.3h.14l.09,0a2.69,2.69,0,0,0,.35,0h.08a.8.8,0,0,0-.66-.42c-1.56,0-1.36,5.17-1.36,5.17h1Z"/><path class="cls-26" d="M657,82.91l-.1,0h0a.32.32,0,1,0-.18.62h0a2.24,2.24,0,0,0,.67.09l.4,0a2,2,0,0,0,.84-.34,2.28,2.28,0,0,0,.89-1.59.32.32,0,1,0-.64-.11,1.72,1.72,0,0,1-.62,1.18,1.47,1.47,0,0,1-.73.24h-.14a1.79,1.79,0,0,1-.36,0"/><path class="cls-26" d="M663.07,83.16a.91.91,0,1,1-.91.91.91.91,0,0,1,.91-.91"/><path class="cls-26" d="M662.38,87l-.15-.19a.86.86,0,0,0-.07-.1,2.11,2.11,0,0,1-.25-.92v0a.37.37,0,0,1,.37-.35h0a.37.37,0,0,1,.35.38,1.24,1.24,0,0,0,.07.37,1.51,1.51,0,0,0,.11.22c.08-.44.14-1-.15-1.18l0,0a1.39,1.39,0,0,0-.85-.28h-.21l0-.24-1.18-.2a.23.23,0,0,0-.27.19l-.41,2.44a.22.22,0,0,0,.19.27l1.17.2.07-.41.2,0h.06v.22a1.1,1.1,0,0,0,.44.89A2.57,2.57,0,0,1,661,90.1a.44.44,0,1,0,.62.62,3.74,3.74,0,0,0,1.1-1.92,1.75,1.75,0,0,1,.23.87,2.5,2.5,0,0,1-.09.62.43.43,0,0,0,.3.54l.12,0a.45.45,0,0,0,.42-.32,3,3,0,0,0,.13-.86,2.68,2.68,0,0,0-.69-1.79,3.42,3.42,0,0,0-.33-.33c0-.07,0-.14,0-.21l-.07,0a2.34,2.34,0,0,1-.35-.29m-1,0-.16,0,.3-1.78.25,0a.9.9,0,0,1,.23,0,1.06,1.06,0,0,0-.52.87c0,.31,0,.62,0,.92h-.05"/><path class="cls-26" d="M663.07,86.75a.84.84,0,0,1-.26-.23,1.24,1.24,0,0,1-.18-.31,1.65,1.65,0,0,1-.07-.4h0a.27.27,0,0,0-.26-.29.27.27,0,0,0-.29.27v0a1.87,1.87,0,0,0,.23.87l.08.12a1.07,1.07,0,0,0,.14.16,1.18,1.18,0,0,0,.32.26h0a2.06,2.06,0,0,0,1,.26h0a.28.28,0,0,0,.28-.27.27.27,0,0,0-.27-.28,1.47,1.47,0,0,1-.7-.19"/><path class="cls-24" d="M565.13,182.19h-16v-10.5l7.94-5.34,8.07,5.34Z"/><path class="cls-26" d="M553.63,171.71a1,1,0,1,1,.78,1.25,1,1,0,0,1-.78-1.25"/><path class="cls-26" d="M553.78,181.16a.47.47,0,0,0,.93,0v-2.79h.83a15.84,15.84,0,0,0-.35-4,3.1,3.1,0,0,1-1.13,0,.43.43,0,0,1-.28-.52.42.42,0,0,1,.4-.3l.11,0h0l.1,0a1.46,1.46,0,0,0,.34,0h.09a.83.83,0,0,0-.67-.42c-1.55,0-1.36,5.17-1.36,5.17h1Z"/><path class="cls-26" d="M554.4,173.68l-.1,0h0a.32.32,0,0,0-.4.22.32.32,0,0,0,.22.4h0a3,3,0,0,0,.67.08l.4,0A2,2,0,0,0,556,174a2.32,2.32,0,0,0,.89-1.6.32.32,0,0,0-.26-.38.33.33,0,0,0-.37.27,1.69,1.69,0,0,1-.63,1.18,1.47,1.47,0,0,1-.73.24h-.14a1.71,1.71,0,0,1-.36,0"/><path class="cls-26" d="M560.48,173.93a.91.91,0,0,1,0,1.82.91.91,0,1,1,0-1.82"/><path class="cls-26" d="M559.79,177.79a1.46,1.46,0,0,1-.16-.19l-.06-.1a1.84,1.84,0,0,1-.25-.92s0,0,0,0a.36.36,0,0,1,.36-.35h0a.37.37,0,0,1,.35.38,1.16,1.16,0,0,0,.07.37,1.51,1.51,0,0,0,.11.22c.08-.43.14-1-.15-1.18l0,0a1.39,1.39,0,0,0-.85-.28H559l0-.24-1.18-.2a.24.24,0,0,0-.27.19l-.41,2.45a.23.23,0,0,0,.19.26l1.18.2.07-.41a.62.62,0,0,0,.19,0h.06v.23a1.13,1.13,0,0,0,.44.89,2.58,2.58,0,0,1-.88,1.78.42.42,0,0,0,0,.62.44.44,0,0,0,.62,0,3.67,3.67,0,0,0,1.09-1.92,1.75,1.75,0,0,1,.23.87,2.5,2.5,0,0,1-.09.62.43.43,0,0,0,.3.54l.12,0a.45.45,0,0,0,.42-.32,3,3,0,0,0,.13-.86,2.65,2.65,0,0,0-.69-1.78,2,2,0,0,0-.33-.33c0-.07,0-.15,0-.21l-.06,0a1.64,1.64,0,0,1-.35-.29m-1,0h-.16l.31-1.79.24,0,.23,0a1.06,1.06,0,0,0-.51.87c0,.31,0,.62-.06.93h0"/><path class="cls-26" d="M560.47,177.52a.82.82,0,0,1-.26-.22A1.29,1.29,0,0,1,560,177a1.58,1.58,0,0,1-.07-.4h0a.28.28,0,1,0-.55,0v0a1.76,1.76,0,0,0,.24.87l.07.12a2.09,2.09,0,0,0,.14.17,1.72,1.72,0,0,0,.32.26h0a2,2,0,0,0,1,.26h0a.28.28,0,0,0,.28-.26.27.27,0,0,0-.27-.29,1.36,1.36,0,0,1-.7-.19"/><path class="cls-24" d="M496.38,143.16h-16v-10.5l7.94-5.34,8.07,5.34Z"/><path class="cls-26" d="M484.88,132.68a1,1,0,1,1,.78,1.25,1,1,0,0,1-.78-1.25"/><path class="cls-26" d="M485,142.13a.47.47,0,0,0,.46.46.46.46,0,0,0,.46-.46v-2.78h.84a15.91,15.91,0,0,0-.35-4,2,2,0,0,1-.43,0h0a2.75,2.75,0,0,1-.7-.09.42.42,0,0,1,.12-.82l.11,0h0l.09,0a2.69,2.69,0,0,0,.35,0h.08a.79.79,0,0,0-.66-.41c-1.56,0-1.36,5.17-1.36,5.17h1Z"/><path class="cls-26" d="M485.65,134.66l-.1,0h0a.32.32,0,0,0-.4.22.32.32,0,0,0,.22.4,2.59,2.59,0,0,0,.67.09,1.94,1.94,0,0,0,.4,0,2,2,0,0,0,.84-.33,2.31,2.31,0,0,0,.89-1.6.32.32,0,0,0-.26-.37.33.33,0,0,0-.38.26,1.69,1.69,0,0,1-.62,1.18,1.38,1.38,0,0,1-.73.24H486a3.05,3.05,0,0,1-.36,0"/><path class="cls-26" d="M491.72,134.91a.91.91,0,1,1-.91.91.91.91,0,0,1,.91-.91"/><path class="cls-26" d="M491,138.77a1.49,1.49,0,0,1-.15-.2.36.36,0,0,1-.07-.1,1.91,1.91,0,0,1-.25-.91v0a.37.37,0,0,1,.37-.36h0a.37.37,0,0,1,.35.38,1.16,1.16,0,0,0,.07.37.76.76,0,0,0,.11.22c.08-.43.14-1-.16-1.17l0,0a1.32,1.32,0,0,0-.84-.29l-.21,0,0-.25-1.17-.19a.22.22,0,0,0-.27.19l-.42,2.44a.24.24,0,0,0,.2.27l1.17.2.07-.41h.25a1.77,1.77,0,0,1,0,.23,1.09,1.09,0,0,0,.44.89,2.56,2.56,0,0,1-.89,1.78.44.44,0,0,0,.62.62,3.7,3.7,0,0,0,1.1-1.92,1.78,1.78,0,0,1,.23.87,2.1,2.1,0,0,1-.1.62.44.44,0,0,0,.3.54.32.32,0,0,0,.13,0,.44.44,0,0,0,.42-.32,3,3,0,0,0,.12-.86,2.78,2.78,0,0,0-1-2.11l0-.21-.07,0a1.6,1.6,0,0,1-.35-.28m-1-.06h-.16l.3-1.78a1,1,0,0,1,.25,0l.23,0a1.09,1.09,0,0,0-.52.87c0,.31-.05.62-.05.93h-.05"/><path class="cls-26" d="M491.72,138.5a1.25,1.25,0,0,1-.27-.23,1.1,1.1,0,0,1-.17-.32,1.16,1.16,0,0,1-.07-.39h0a.27.27,0,0,0-.27-.28.26.26,0,0,0-.28.26s0,0,0,0a1.94,1.94,0,0,0,.24.87l.08.12a1.83,1.83,0,0,0,.13.16,1.81,1.81,0,0,0,.33.26h0a2.06,2.06,0,0,0,1,.27h0a.28.28,0,0,0,.28-.27.29.29,0,0,0-.27-.29,1.48,1.48,0,0,1-.7-.18"/><path class="cls-24" d="M477,122.07H461v-10.5l7.93-5.34,8.07,5.34Z"/><path class="cls-26" d="M465.55,111.59a1,1,0,0,1,2,.47,1,1,0,1,1-2-.47"/><path class="cls-26" d="M465.7,121a.45.45,0,0,0,.46.46.46.46,0,0,0,.46-.46v-2.78h.83a15.41,15.41,0,0,0-.35-4,1.93,1.93,0,0,1-.42,0,2.67,2.67,0,0,1-.7-.09.41.41,0,0,1,.11-.81h.14l.1,0a2.53,2.53,0,0,0,.35,0h.08a.83.83,0,0,0-.67-.42c-1.55,0-1.36,5.17-1.36,5.17h1Z"/><path class="cls-26" d="M466.31,113.57l-.1,0h0a.32.32,0,0,0-.18.62,2.27,2.27,0,0,0,.68.09,1.94,1.94,0,0,0,.4,0,2,2,0,0,0,.84-.33,2.31,2.31,0,0,0,.89-1.6.32.32,0,1,0-.64-.1,1.66,1.66,0,0,1-.63,1.17,1.35,1.35,0,0,1-.73.24h-.13a3.06,3.06,0,0,1-.37,0"/><path class="cls-26" d="M472.39,113.82a.91.91,0,1,1-.91.91.91.91,0,0,1,.91-.91"/><path class="cls-26" d="M471.7,117.68c-.06-.06-.11-.13-.16-.19l-.06-.11a1.8,1.8,0,0,1-.25-.91v0a.37.37,0,0,1,.37-.36h0a.39.39,0,0,1,.36.39,1.16,1.16,0,0,0,.07.36.64.64,0,0,0,.1.22c.08-.43.15-1-.15-1.17,0,0,0,0,0,0a1.34,1.34,0,0,0-.84-.29l-.21,0,0-.24-1.18-.2a.23.23,0,0,0-.27.19l-.41,2.44a.23.23,0,0,0,.19.27l1.18.2.07-.41h.25a1.69,1.69,0,0,0,0,.23,1.06,1.06,0,0,0,.44.89,2.57,2.57,0,0,1-.89,1.78.45.45,0,0,0,0,.63.44.44,0,0,0,.62,0,3.83,3.83,0,0,0,1.1-1.93,1.78,1.78,0,0,1,.22.87,2.06,2.06,0,0,1-.09.62.44.44,0,0,0,.3.55h.12a.43.43,0,0,0,.42-.31,3.11,3.11,0,0,0,.13-.87,2.7,2.7,0,0,0-.68-1.78c-.12-.13-.24-.24-.34-.33l0-.21-.07,0a1.35,1.35,0,0,1-.35-.28m-1-.06h-.16l.3-1.78a1,1,0,0,1,.25,0,.83.83,0,0,1,.22,0,1.05,1.05,0,0,0-.51.87c0,.3,0,.61,0,.92h-.05"/><path class="cls-26" d="M472.38,117.41a1.19,1.19,0,0,1-.26-.23,1.1,1.1,0,0,1-.17-.32,1.31,1.31,0,0,1-.08-.39h0a.26.26,0,0,0-.26-.28.28.28,0,0,0-.29.26v0a1.81,1.81,0,0,0,.24.87.83.83,0,0,0,.08.12,1.83,1.83,0,0,0,.13.16,1.35,1.35,0,0,0,.32.26h0a2.06,2.06,0,0,0,1,.27h0a.28.28,0,0,0,0-.56,1.41,1.41,0,0,1-.71-.18"/><path class="cls-24" d="M458.6,54.38h-16V43.87l7.93-5.33,8.07,5.33Z"/><path class="cls-26" d="M447.11,43.89a1,1,0,1,1,.77,1.25,1,1,0,0,1-.77-1.25"/><path class="cls-26" d="M447.26,53.34a.46.46,0,0,0,.46.47.47.47,0,0,0,.46-.47V50.56H449a15.32,15.32,0,0,0-.35-4,2.86,2.86,0,0,1-.42,0h0a2.67,2.67,0,0,1-.7-.09.41.41,0,0,1,.11-.81h.14l.1,0a2.53,2.53,0,0,0,.35,0h.08a.83.83,0,0,0-.67-.42c-1.55,0-1.36,5.17-1.36,5.17h1Z"/><path class="cls-26" d="M447.87,45.87l-.1,0h0a.32.32,0,0,0-.18.62,2.27,2.27,0,0,0,.68.09l.4,0a2,2,0,0,0,.83-.34,2.28,2.28,0,0,0,.9-1.59.33.33,0,0,0-.27-.38.32.32,0,0,0-.37.27,1.68,1.68,0,0,1-.63,1.18,1.44,1.44,0,0,1-.73.24h-.13a1.83,1.83,0,0,1-.37,0"/><path class="cls-26" d="M454,46.12A.91.91,0,1,1,453,47a.91.91,0,0,1,.91-.91"/><path class="cls-26" d="M453.26,50a1.46,1.46,0,0,1-.16-.19l-.06-.1a1.87,1.87,0,0,1-.25-.92v0a.37.37,0,0,1,.37-.35h0a.38.38,0,0,1,.36.38,1.43,1.43,0,0,0,.06.37,1.51,1.51,0,0,0,.11.22c.08-.44.15-1-.15-1.18l0,0a1.38,1.38,0,0,0-.84-.28h-.21l0-.24-1.18-.2a.23.23,0,0,0-.27.19l-.41,2.44a.23.23,0,0,0,.19.27l1.18.2.07-.41.2,0h.05a1.62,1.62,0,0,0,0,.22,1,1,0,0,0,.44.89,2.61,2.61,0,0,1-.89,1.79.44.44,0,0,0,.62.62,3.81,3.81,0,0,0,1.1-1.92,1.75,1.75,0,0,1,.22.87,2.11,2.11,0,0,1-.09.62.44.44,0,0,0,.3.54l.12,0a.44.44,0,0,0,.42-.32,3,3,0,0,0,.13-.86,2.73,2.73,0,0,0-.68-1.79c-.12-.13-.24-.24-.34-.33l0-.21-.07,0a1.64,1.64,0,0,1-.35-.29m-1,0-.16,0,.3-1.78.25,0a.82.82,0,0,1,.22,0,1.05,1.05,0,0,0-.51.87c0,.31,0,.62,0,.93h-.05"/><path class="cls-26" d="M453.94,49.71a1,1,0,0,1-.26-.23,1.19,1.19,0,0,1-.17-.31,1,1,0,0,1-.07-.4h0a.29.29,0,0,0-.27-.29.28.28,0,0,0-.29.27v0a1.81,1.81,0,0,0,.24.87.83.83,0,0,0,.08.12,1,1,0,0,0,.13.16,1.69,1.69,0,0,0,.32.27h0a2.06,2.06,0,0,0,1,.26h0a.28.28,0,0,0,.27-.27.26.26,0,0,0-.26-.28,1.51,1.51,0,0,1-.71-.19"/><path class="cls-24" d="M479,23.19H463V12.68l7.94-5.33L479,12.68Z"/><path class="cls-26" d="M467.47,12.71a1,1,0,1,1,.78,1.24,1,1,0,0,1-.78-1.24"/><path class="cls-26" d="M467.62,22.15a.47.47,0,1,0,.93,0V19.37h.83a15.84,15.84,0,0,0-.35-4,3,3,0,0,1-.43,0,2.83,2.83,0,0,1-.7-.09.4.4,0,0,1-.28-.51.41.41,0,0,1,.4-.3.2.2,0,0,1,.11,0h0l.09,0a2.69,2.69,0,0,0,.35,0h.08a.8.8,0,0,0-.66-.42c-1.56,0-1.36,5.17-1.36,5.17h1Z"/><path class="cls-26" d="M468.24,14.68l-.1,0h0a.32.32,0,1,0-.18.62,2.24,2.24,0,0,0,.67.09l.4,0a1.91,1.91,0,0,0,.84-.34,2.28,2.28,0,0,0,.89-1.59.32.32,0,1,0-.64-.11,1.72,1.72,0,0,1-.62,1.18,1.47,1.47,0,0,1-.73.24h-.14a1.79,1.79,0,0,1-.36,0"/><path class="cls-26" d="M474.31,14.93a.91.91,0,1,1-.91.91.91.91,0,0,1,.91-.91"/><path class="cls-26" d="M473.62,18.79l-.15-.19-.07-.1a2,2,0,0,1-.25-.92v0a.37.37,0,0,1,.37-.35h0a.37.37,0,0,1,.35.38A1.24,1.24,0,0,0,474,18a1.51,1.51,0,0,0,.11.22c.08-.44.14-1-.15-1.18l0,0a1.39,1.39,0,0,0-.85-.28h-.21l.05-.24-1.18-.2a.23.23,0,0,0-.27.19L471,18.89a.22.22,0,0,0,.19.27l1.17.2.07-.41.2,0h.06v.23a1.09,1.09,0,0,0,.44.88,2.57,2.57,0,0,1-.89,1.79.44.44,0,0,0,.62.62,3.74,3.74,0,0,0,1.1-1.92,1.75,1.75,0,0,1,.23.87,2.5,2.5,0,0,1-.09.62.43.43,0,0,0,.3.54l.12,0a.45.45,0,0,0,.42-.32,3,3,0,0,0,.13-.86,2.68,2.68,0,0,0-.69-1.79,3.42,3.42,0,0,0-.33-.33c0-.07,0-.14,0-.21l-.07,0a1.93,1.93,0,0,1-.35-.29m-1-.05-.16,0,.3-1.78.25,0a.9.9,0,0,1,.23,0,1.08,1.08,0,0,0-.52.87c0,.31,0,.62-.05.93h0"/><path class="cls-26" d="M474.31,18.52a.73.73,0,0,1-.26-.23,1.24,1.24,0,0,1-.18-.31,1.58,1.58,0,0,1-.07-.4h0a.27.27,0,0,0-.26-.29.27.27,0,0,0-.29.27v0a1.83,1.83,0,0,0,.23.87l.08.12a1.07,1.07,0,0,0,.14.16A1.43,1.43,0,0,0,474,19h0a2.06,2.06,0,0,0,1,.26h0a.28.28,0,0,0,.28-.27.27.27,0,0,0-.27-.28,1.47,1.47,0,0,1-.7-.19"/><path class="cls-24" d="M96,620H80V609.52l7.94-5.33L96,609.52Z"/><path class="cls-26" d="M84.48,609.54a1,1,0,1,1,.78,1.25,1,1,0,0,1-.78-1.25"/><path class="cls-26" d="M84.63,619a.47.47,0,0,0,.46.47.46.46,0,0,0,.46-.47v-2.78h.84a15.82,15.82,0,0,0-.35-4,3,3,0,0,1-.43,0,2.67,2.67,0,0,1-.7-.09.41.41,0,0,1,.11-.81h.14l.1,0a2.53,2.53,0,0,0,.35,0h.08A.81.81,0,0,0,85,611c-1.56,0-1.36,5.17-1.36,5.17h1Z"/><path class="cls-26" d="M85.25,611.52l-.11,0h0a.32.32,0,1,0-.18.62,2.34,2.34,0,0,0,.68.09l.4,0a2,2,0,0,0,.84-.34,2.31,2.31,0,0,0,.89-1.6.32.32,0,0,0-.64-.1,1.68,1.68,0,0,1-.63,1.18,1.5,1.5,0,0,1-.72.24h-.14a1.66,1.66,0,0,1-.36,0"/><path class="cls-26" d="M91.32,611.77a.91.91,0,1,1-.91.91.91.91,0,0,1,.91-.91"/><path class="cls-26" d="M90.63,615.63a.9.9,0,0,1-.15-.19l-.07-.1a2,2,0,0,1-.25-.92v0a.37.37,0,0,1,.37-.35h0a.37.37,0,0,1,.35.38,1.24,1.24,0,0,0,.07.37.91.91,0,0,0,.11.22c.07-.44.14-1-.16-1.18l0,0a1.38,1.38,0,0,0-.84-.28h-.21l0-.24-1.18-.2a.23.23,0,0,0-.26.19L88,615.73a.24.24,0,0,0,.19.27l1.18.2.07-.41.2,0h0c0,.08,0,.16,0,.23a1.09,1.09,0,0,0,.44.89,2.61,2.61,0,0,1-.89,1.79.44.44,0,0,0,.62.62,3.74,3.74,0,0,0,1.1-1.92,1.86,1.86,0,0,1,.23.87,2.15,2.15,0,0,1-.1.62.45.45,0,0,0,.3.54l.12,0a.45.45,0,0,0,.43-.32,3.42,3.42,0,0,0,.12-.86,2.71,2.71,0,0,0-.68-1.79,3.44,3.44,0,0,0-.34-.33l0-.21-.07,0a1.64,1.64,0,0,1-.35-.29m-1,0-.16,0,.3-1.78.25,0a.93.93,0,0,1,.23,0,1.06,1.06,0,0,0-.52.87c0,.31,0,.61,0,.92h0"/><path class="cls-26" d="M91.31,615.36a1,1,0,0,1-.26-.23,1.19,1.19,0,0,1-.17-.31,1.24,1.24,0,0,1-.07-.4h0a.29.29,0,0,0-.27-.29.28.28,0,0,0-.29.26v0a1.81,1.81,0,0,0,.24.87.83.83,0,0,0,.08.12,1.83,1.83,0,0,0,.13.16,1.23,1.23,0,0,0,.33.26h0a2.06,2.06,0,0,0,1,.26h0a.27.27,0,0,0,.27-.27.26.26,0,0,0-.26-.28,1.55,1.55,0,0,1-.71-.19"/><path class="cls-24" d="M163.83,570.07h-16V559.56l7.94-5.33,8.07,5.33Z"/><path class="cls-26" d="M152.34,559.59a1,1,0,1,1,2,.47,1,1,0,0,1-1.25.77,1,1,0,0,1-.77-1.24"/><path class="cls-26" d="M152.48,569a.47.47,0,1,0,.93,0v-2.78h.83a15.84,15.84,0,0,0-.35-4,2.9,2.9,0,0,1-.43,0,2.64,2.64,0,0,1-.69-.09.41.41,0,0,1-.29-.51.42.42,0,0,1,.4-.3H153l.1,0a2.51,2.51,0,0,0,.34,0h.09a.83.83,0,0,0-.67-.42c-1.55,0-1.36,5.17-1.36,5.17h1Z"/><path class="cls-26" d="M153.1,561.56l-.1,0h0a.32.32,0,1,0-.18.62,2.24,2.24,0,0,0,.67.09l.4,0a2,2,0,0,0,.84-.34,2.32,2.32,0,0,0,.9-1.59.32.32,0,1,0-.64-.11,1.68,1.68,0,0,1-.63,1.18,1.44,1.44,0,0,1-.73.24h-.14a1.79,1.79,0,0,1-.36,0"/><path class="cls-26" d="M159.18,561.81a.91.91,0,1,1-.91.91.91.91,0,0,1,.91-.91"/><path class="cls-26" d="M158.49,565.67a1.46,1.46,0,0,1-.16-.19l-.06-.1a1.87,1.87,0,0,1-.25-.92v0a.37.37,0,0,1,.37-.35h0a.38.38,0,0,1,.36.38,1.43,1.43,0,0,0,.06.37,1.51,1.51,0,0,0,.11.22c.08-.44.15-1-.15-1.18l0,0a1.38,1.38,0,0,0-.84-.28h-.21l0-.24-1.18-.2a.23.23,0,0,0-.27.19l-.41,2.44a.23.23,0,0,0,.19.27l1.18.2.07-.41.2,0h.05v.23a1.07,1.07,0,0,0,.45.88,2.61,2.61,0,0,1-.89,1.79.44.44,0,0,0,.62.62,3.71,3.71,0,0,0,1.09-1.92,1.65,1.65,0,0,1,.23.87,2.5,2.5,0,0,1-.09.62.44.44,0,0,0,.3.54l.12,0a.44.44,0,0,0,.42-.32,3,3,0,0,0,.13-.86,2.73,2.73,0,0,0-.68-1.79c-.12-.13-.24-.24-.34-.33a1.55,1.55,0,0,0,0-.21l-.06,0a1.64,1.64,0,0,1-.35-.29m-1,0-.16,0,.3-1.78.25,0a.86.86,0,0,1,.22,0,1.07,1.07,0,0,0-.51.87,7.25,7.25,0,0,0,0,.93h-.05"/><path class="cls-26" d="M159.17,565.4a.73.73,0,0,1-.26-.23,1,1,0,0,1-.17-.31,1.41,1.41,0,0,1-.08-.4h0a.28.28,0,1,0-.55,0v0a1.78,1.78,0,0,0,.24.87l.07.12a1.07,1.07,0,0,0,.14.16,1.69,1.69,0,0,0,.32.27h0a2.1,2.1,0,0,0,1,.26h0a.28.28,0,0,0,.28-.27.26.26,0,0,0-.26-.28,1.48,1.48,0,0,1-.71-.19"/><path class="cls-24" d="M104,538.4H88V527.9l7.94-5.34L104,527.9Z"/><path class="cls-26" d="M92.48,527.92a1,1,0,1,1,.78,1.25,1,1,0,0,1-.78-1.25"/><path class="cls-26" d="M92.63,537.37a.47.47,0,0,0,.93,0v-2.78h.83a15.91,15.91,0,0,0-.35-4,2,2,0,0,1-.43,0,2.75,2.75,0,0,1-.7-.09.42.42,0,0,1-.28-.52.41.41,0,0,1,.4-.29h.14l.09,0a2.69,2.69,0,0,0,.35,0h.08a.8.8,0,0,0-.66-.42c-1.56,0-1.36,5.17-1.36,5.17h1Z"/><path class="cls-26" d="M93.25,529.9l-.1,0h0a.32.32,0,1,0-.18.62,2.24,2.24,0,0,0,.67.09,1.94,1.94,0,0,0,.4,0,2,2,0,0,0,.84-.33,2.28,2.28,0,0,0,.89-1.6.32.32,0,0,0-.26-.37.33.33,0,0,0-.38.26,1.69,1.69,0,0,1-.62,1.18,1.38,1.38,0,0,1-.73.24h-.14a3.05,3.05,0,0,1-.36,0"/><path class="cls-26" d="M99.32,530.15a.91.91,0,1,1-.91.91.91.91,0,0,1,.91-.91"/><path class="cls-26" d="M98.63,534l-.15-.2a.86.86,0,0,1-.07-.1,2,2,0,0,1-.25-.91v0a.37.37,0,0,1,.37-.36h0a.37.37,0,0,1,.35.39,1.16,1.16,0,0,0,.07.36,1.13,1.13,0,0,0,.11.22c.08-.43.14-1-.15-1.17l0,0a1.34,1.34,0,0,0-.85-.29l-.21,0,.05-.24-1.18-.2a.23.23,0,0,0-.27.19L96,534.11a.22.22,0,0,0,.19.27l1.17.2.07-.41h.26v.23a1.11,1.11,0,0,0,.44.89,2.55,2.55,0,0,1-.89,1.78.44.44,0,0,0,0,.62.42.42,0,0,0,.62,0,3.7,3.7,0,0,0,1.1-1.92,1.78,1.78,0,0,1,.23.87,2.44,2.44,0,0,1-.09.62.44.44,0,0,0,.3.55h.12a.44.44,0,0,0,.42-.31,3.11,3.11,0,0,0,.13-.87,2.65,2.65,0,0,0-.69-1.78,2.56,2.56,0,0,0-.33-.33c0-.07,0-.14,0-.21l-.07,0a1.87,1.87,0,0,1-.35-.28m-1-.06h-.16l.3-1.78a1.07,1.07,0,0,1,.25,0l.23,0a1.09,1.09,0,0,0-.52.87c0,.31,0,.62,0,.93h0"/><path class="cls-26" d="M99.32,533.74a1,1,0,0,1-.26-.23,1.14,1.14,0,0,1-.18-.32,1.53,1.53,0,0,1-.07-.39h0a.26.26,0,0,0-.26-.28.27.27,0,0,0-.29.26v0a1.87,1.87,0,0,0,.23.87l.08.12.14.16a1.4,1.4,0,0,0,.32.26h0a2.06,2.06,0,0,0,1,.27h0a.28.28,0,0,0,.28-.27.28.28,0,0,0-.27-.29,1.48,1.48,0,0,1-.7-.18"/><path class="cls-24" d="M133.68,517.49h-16V507l7.94-5.33,8.06,5.33Z"/><path class="cls-26" d="M122.19,507a1,1,0,1,1,.77,1.25,1,1,0,0,1-.77-1.25"/><path class="cls-26" d="M122.34,516.45a.46.46,0,0,0,.46.46.45.45,0,0,0,.46-.46v-2.78h.84a15.82,15.82,0,0,0-.35-3.95,3,3,0,0,1-.43,0,2.67,2.67,0,0,1-.7-.09.41.41,0,0,1-.28-.52.41.41,0,0,1,.39-.29h.14l.1,0a2.53,2.53,0,0,0,.35,0h.08a.81.81,0,0,0-.66-.42c-1.56,0-1.36,5.17-1.36,5.17h1Z"/><path class="cls-26" d="M123,509l-.1,0h0a.32.32,0,1,0-.18.62,2.27,2.27,0,0,0,.68.09l.4,0a2,2,0,0,0,.84-.34,2.31,2.31,0,0,0,.89-1.6.32.32,0,0,0-.64-.1,1.63,1.63,0,0,1-.63,1.17,1.42,1.42,0,0,1-.72.25h-.14a1.83,1.83,0,0,1-.37,0"/><path class="cls-26" d="M129,509.23a.91.91,0,1,1-.91.91.91.91,0,0,1,.91-.91"/><path class="cls-26" d="M128.34,513.09c-.06-.06-.11-.13-.16-.19l-.06-.1a1.87,1.87,0,0,1-.25-.92v0a.37.37,0,0,1,.37-.35h0a.36.36,0,0,1,.36.38,1.16,1.16,0,0,0,.07.36,1.22,1.22,0,0,0,.1.23c.08-.44.15-1-.15-1.18a0,0,0,0,0,0,0,1.4,1.4,0,0,0-.84-.29l-.21,0,0-.24-1.18-.2a.24.24,0,0,0-.27.19l-.41,2.44a.24.24,0,0,0,.19.27l1.18.2.07-.41h.25a1.69,1.69,0,0,0,0,.23,1.09,1.09,0,0,0,.44.89,2.61,2.61,0,0,1-.89,1.79.44.44,0,1,0,.62.62,3.78,3.78,0,0,0,1.1-1.92,1.71,1.71,0,0,1,.22.86,2.06,2.06,0,0,1-.09.62.45.45,0,0,0,.3.55h.12a.45.45,0,0,0,.43-.31,3.49,3.49,0,0,0,.12-.87,2.7,2.7,0,0,0-.68-1.78,3.44,3.44,0,0,0-.34-.33l0-.21-.07,0a1.35,1.35,0,0,1-.35-.28m-1-.06h-.16l.3-1.78a1,1,0,0,1,.25,0,.82.82,0,0,1,.22,0,1.05,1.05,0,0,0-.51.87c0,.3,0,.61,0,.92h-.05"/><path class="cls-26" d="M129,512.82a1.19,1.19,0,0,1-.26-.23,1.1,1.1,0,0,1-.17-.32,1.16,1.16,0,0,1-.07-.39h0a.28.28,0,0,0-.56,0v0a1.81,1.81,0,0,0,.24.87l.08.12a1.83,1.83,0,0,0,.13.16,1.23,1.23,0,0,0,.33.26h0a2.06,2.06,0,0,0,1,.27h0a.27.27,0,0,0,.27-.27.28.28,0,0,0-.26-.29,1.44,1.44,0,0,1-.71-.18"/><path class="cls-24" d="M143.78,491.59h-16v-10.5l7.94-5.34,8.07,5.34Z"/><path class="cls-26" d="M132.29,481.11a1,1,0,1,1,.77,1.24,1,1,0,0,1-.77-1.24"/><path class="cls-26" d="M132.44,490.56a.46.46,0,0,0,.46.46.47.47,0,0,0,.46-.46v-2.79h.83a15.34,15.34,0,0,0-.35-3.95,3,3,0,0,1-1.12-.05.42.42,0,0,1-.29-.52.42.42,0,0,1,.4-.3l.12,0h0l.1,0a1.56,1.56,0,0,0,.35,0h.08a.83.83,0,0,0-.67-.42c-1.55,0-1.36,5.17-1.36,5.17h1Z"/><path class="cls-26" d="M133.05,483.08l-.1,0h0a.32.32,0,0,0-.4.21.33.33,0,0,0,.22.41,3,3,0,0,0,.68.08l.4,0a1.93,1.93,0,0,0,.83-.33,2.33,2.33,0,0,0,.9-1.6.32.32,0,0,0-.64-.11,1.66,1.66,0,0,1-.63,1.18,1.44,1.44,0,0,1-.73.24h-.13a1.83,1.83,0,0,1-.37,0"/><path class="cls-26" d="M139.13,483.33a.91.91,0,1,1-.91.91.91.91,0,0,1,.91-.91"/><path class="cls-26" d="M138.44,487.19a1.46,1.46,0,0,1-.16-.19l-.06-.1A1.84,1.84,0,0,1,138,486v0a.37.37,0,0,1,.37-.35h0a.38.38,0,0,1,.36.38,1.33,1.33,0,0,0,.06.37,1.51,1.51,0,0,0,.11.22c.08-.44.15-1-.15-1.18l0,0a1.38,1.38,0,0,0-.84-.28h-.21l0-.24-1.18-.2a.24.24,0,0,0-.27.19l-.41,2.45a.23.23,0,0,0,.19.26l1.18.2.07-.41.2,0h.05a1.85,1.85,0,0,0,0,.23,1.07,1.07,0,0,0,.44.89,2.61,2.61,0,0,1-.89,1.78.44.44,0,0,0,.62.62,3.77,3.77,0,0,0,1.1-1.92,1.75,1.75,0,0,1,.22.87,2.11,2.11,0,0,1-.09.62.44.44,0,0,0,.3.54l.12,0a.44.44,0,0,0,.42-.32,3,3,0,0,0,.13-.86,2.73,2.73,0,0,0-.68-1.79,3.19,3.19,0,0,0-.34-.32,1.7,1.7,0,0,0,0-.22l-.06,0a1.64,1.64,0,0,1-.35-.29m-1-.05h-.16l.3-1.79.25,0,.22,0a1.09,1.09,0,0,0-.51.87c0,.31-.05.62-.05.93h-.05"/><path class="cls-26" d="M139.12,486.92a.83.83,0,0,1-.26-.23.86.86,0,0,1-.17-.31,1.35,1.35,0,0,1-.08-.4h0a.28.28,0,0,0-.26-.29.29.29,0,0,0-.29.27v0a1.76,1.76,0,0,0,.24.87l.07.12a2.09,2.09,0,0,0,.14.17,2.13,2.13,0,0,0,.32.26h0a1.91,1.91,0,0,0,1,.26h0a.28.28,0,0,0,0-.55,1.51,1.51,0,0,1-.71-.19"/><path class="cls-24" d="M125.06,447.3h-16V436.8l7.94-5.34,8.07,5.34Z"/><path class="cls-26" d="M113.56,436.82a1,1,0,0,1,1.25-.78,1,1,0,0,1-.47,2,1,1,0,0,1-.78-1.25"/><path class="cls-26" d="M113.71,446.27a.46.46,0,0,0,.46.46.45.45,0,0,0,.46-.46v-2.78h.84a15.91,15.91,0,0,0-.35-4,2,2,0,0,1-.43,0,2.75,2.75,0,0,1-.7-.09.42.42,0,0,1,.12-.82l.11,0h0l.09,0a2.69,2.69,0,0,0,.35,0h.08a.81.81,0,0,0-.66-.41c-1.56,0-1.36,5.17-1.36,5.17h1Z"/><path class="cls-26" d="M114.33,438.8l-.1,0h0a.32.32,0,0,0-.4.22.32.32,0,0,0,.22.4,2.24,2.24,0,0,0,.67.09,1.94,1.94,0,0,0,.4,0,2,2,0,0,0,.84-.33,2.31,2.31,0,0,0,.89-1.6.32.32,0,0,0-.26-.37.33.33,0,0,0-.38.26,1.69,1.69,0,0,1-.62,1.18,1.38,1.38,0,0,1-.73.24h-.14a3.05,3.05,0,0,1-.36,0"/><path class="cls-26" d="M120.4,439.05a.91.91,0,1,1-.91.91.91.91,0,0,1,.91-.91"/><path class="cls-26" d="M119.71,442.91a1.49,1.49,0,0,1-.15-.2.86.86,0,0,1-.07-.1,1.91,1.91,0,0,1-.25-.91v0a.37.37,0,0,1,.37-.36h0a.37.37,0,0,1,.35.39,1.16,1.16,0,0,0,.07.36.76.76,0,0,0,.11.22c.08-.43.14-1-.16-1.17l0,0a1.3,1.3,0,0,0-.84-.29l-.21,0,0-.24-1.17-.2a.23.23,0,0,0-.27.19l-.41,2.44a.22.22,0,0,0,.19.27l1.17.2.07-.41h.25a1.85,1.85,0,0,1,0,.23,1.09,1.09,0,0,0,.44.89,2.53,2.53,0,0,1-.89,1.78.44.44,0,0,0,0,.62.42.42,0,0,0,.62,0,3.7,3.7,0,0,0,1.1-1.92,1.78,1.78,0,0,1,.23.87,2.1,2.1,0,0,1-.1.62.45.45,0,0,0,.31.55h.12a.44.44,0,0,0,.42-.31,2.76,2.76,0,0,0,.12-.87,2.6,2.6,0,0,0-.68-1.78l-.33-.33c0-.07,0-.14,0-.21l-.07,0a1.87,1.87,0,0,1-.35-.28m-1-.06h-.16l.3-1.78a1.07,1.07,0,0,1,.25,0,.91.91,0,0,1,.23,0,1.06,1.06,0,0,0-.52.86c0,.31,0,.62,0,.93h0"/><path class="cls-26" d="M120.4,442.64a1.25,1.25,0,0,1-.27-.23,1.1,1.1,0,0,1-.17-.32,1.16,1.16,0,0,1-.07-.39h0a.27.27,0,0,0-.27-.28.26.26,0,0,0-.28.26v0a1.94,1.94,0,0,0,.24.87l.08.12a1.83,1.83,0,0,0,.13.16,1.46,1.46,0,0,0,.33.26h0a2.06,2.06,0,0,0,1,.27h0a.28.28,0,0,0,.28-.27.29.29,0,0,0-.27-.29,1.48,1.48,0,0,1-.7-.18"/><rect class="cls-24" x="105.08" y="469.72" width="15.33" height="2.92"/><rect class="cls-24" x="111.28" y="463.51" width="2.92" height="15.33"/><rect class="cls-24" x="667.03" y="580.86" width="15.33" height="2.92"/><rect class="cls-24" x="673.24" y="574.66" width="2.92" height="15.33"/><rect class="cls-24" x="758.12" y="50.61" width="15.33" height="2.92"/><rect class="cls-24" x="764.32" y="44.41" width="2.92" height="15.33"/></g></g></g></svg>