<svg id="Capa_1" data-name="Capa 1" xmlns="http://www.w3.org/2000/svg" viewBox="0 0 1079.23 612"><defs><style>.cls-1{fill:#195676;}.cls-2{fill:#3c3c3b;}.cls-22,.cls-3,.cls-7{fill:none;}.cls-4{font-size:15px;font-family:CenturyGothic-Bold, Century Gothic;font-weight:700;}.cls-13,.cls-16,.cls-23,.cls-24,.cls-4,.cls-8{fill:#f8ab37;}.cls-5{letter-spacing:-0.06em;}.cls-6{fill:#d8283c;}.cls-7{stroke:#fff;stroke-linecap:round;stroke-linejoin:round;stroke-width:2px;}.cls-8{font-size:8.67px;}.cls-13,.cls-16,.cls-8{font-family:CenturyGothic, Century Gothic;}.cls-9{letter-spacing:-0.02em;}.cls-10{letter-spacing:-0.09em;}.cls-11{letter-spacing:0em;}.cls-12{letter-spacing:-0.05em;}.cls-13{font-size:10.87px;}.cls-14{letter-spacing:-0.09em;}.cls-15{letter-spacing:-0.09em;}.cls-16{font-size:8.4px;}.cls-17{letter-spacing:-0.02em;}.cls-18{letter-spacing:-0.02em;}.cls-19{letter-spacing:-0.09em;}.cls-20{letter-spacing:0em;}.cls-21{letter-spacing:-0.05em;}.cls-22{stroke:#f8ab37;stroke-miterlimit:10;}.cls-24{fill-rule:evenodd;}.cls-25{fill:#121417;}</style></defs><title>mapaMesa de trabajo 1</title><rect class="cls-1" width="927.7" height="612"/><path class="cls-2" d="M135.28,582.79a131.63,131.63,0,0,0,7.84-16.8c4.9-12.77,11-28.63,7.1-39.82-1.39-4-2.63-17.68-.54-18.94s4.34,1.38,6,.23c2.4-1.66-1-8.14,1.15-9.69s5.93,4.2,12.92,4.39c5.09.13,5.9-2.81,10.15-2.08,5.34.92,5.34,5.78,10.85,6.92,4.17.87,13.47-7.47,15.92-9,3.84-2.39,7.23.54,11.07-1.38,3.08-1.54,4.16-5.06,5.08-8.08,3.35-11-8.37-29.42-8.54-33.91-.14-3.87,1.73-6.05.23-9s-11.89-2.89-13.84-4.38c-2.27-1.73.09-5.48-2.54-8.54-2-2.31-6.59-9.44-7.84-9.92-1.58-.61-3.91,4.23-5.77,3.69-1.35-.39-3.11-11.19-5.08-18.92-1.73-6.82-1.14-19.34-1.38-27.68-.13-4.39-.77-7.15,1.15-9.47,1.46-1.75,4.14-7.46,5.31-9.68,1.47-2.8,4.21-1.79,5.77-4.16,1.93-2.93-1.44-5.79-.93-12.46.17-2.15.49-6.27,3.23-8.07,1.24-.81,15.52-1.19,16.15-1.85,2.11-2.19-.13-5.89,1.62-7.15s5.89,1,8.54,3.46a182.26,182.26,0,0,0,15.92,12.92c2.85,1.95,2.28,3.12,5.53,6,4.37,3.87,6.28,2.56,9,5.54,3.86,4.22,1.25,8.2,4.62,11.07,3.68,3.14,7.72-.84,12.45,1.85s3,7.93,8.31,16.61c4.77,7.76,7.75,6.11,9.46,11.07,3.46,10.05-8.56,17.34-4.84,26.77,1.91,4.86,5.74,4.52,9,12,.88,2-4,20.44-6.23,30.23-.45,2-1.81,8.14.7,14.07,2.87,6.8,9.45,10.11,14.3,12.23,18.73,8.21,33.44,14.65,56.3,13.38,5.46-.3,23.4-5.58,59.29-16.15,11.52-3.39,18.44-5.51,27.46-9a308.41,308.41,0,0,0,33.68-15.69c38.19-21.33,66.25-56.45,70-61.19,23.6-30,34.2-57.42,41.68-77.24,5.07-13.44,21-58.19,21.11-117.79,0-24.54-2.58-51.51-17.78-76.68-4.51-7.46-14-22.7-25.56-22.22-9.08.37-11.15,10-27.22,18.33-10.77,5.57-26.1,9.87-31.12,4.45-1.09-1.18-2.71-3.93-1.83-5.68s3.95-.85,5.23-2.61c1.67-2.32-2.05-6.11-5.07-15A35,35,0,0,1,501,98c-.49-7.48,2.25-12.75.65-13.63-1.24-.67-2.83,2.46-5.72,2.11-1.27-.16-1.75-.86-6.46-5.69-2.85-2.93-3.09-3.1-3.38-3.85-1.42-3.64,1.07-7.76,1.67-8.68,2.55-4,5.38-3.63,6.48-7,.59-1.84.66-4.73-.93-6.34-1.81-1.83-4.42-.61-12.14-.57-5.41,0-8.13,0-9.38-1.54s-.27-3.46,1.23-11.07c1.61-8.15,1.46-11.41,3.54-12.14,1.88-.67,3.09,1.61,6.15.92,1.93-.44,2.12-1.51,4.61-2.15s3.72.05,4.15-.62c.71-1.11-1.57-4.65-4.92-6.92-5.88-4-11.3-1.53-13.24-4.8-1.16-2,.29-3.69.63-7.34.33-3.47-.37-8.45-5.08-14.88C623.86-5,924.19-1.2,1079.23,0c.81,207.92-.57,404.08.24,612-269.22-.8-681.57,7.59-950.79,6.79l6.6-36"/><rect class="cls-3" x="244.22" y="-2.13" width="792" height="612"/><text class="cls-4" transform="translate(398.62 544.7)">LONCURA</text><text class="cls-4" transform="translate(613.69 83.39)">PUCHUNC<tspan class="cls-5" x="72.3" y="0">A</tspan><tspan x="82.48" y="0">VÍ</tspan></text><text class="cls-4" transform="translate(192.59 400.48)">QUINTERO</text><text class="cls-4" transform="translate(350.18 230.36)">BAHÍA DE</text><text class="cls-4" transform="translate(350.18 248.36)">QUINTERO</text><path class="cls-6" d="M599.73,154.59a122.73,122.73,0,0,1,20.76,5.88c7.92,3,14.18,5.38,20.2,10.21,3.92,3.14,11.94,10.67,16.35,25.42l-2.73,16.35-38.81.23q.11-6.93.22-13.85l-9.22-.45a157.14,157.14,0,0,0-6.77-43.79"/><path class="cls-7" d="M599.73,154.59a122.73,122.73,0,0,1,20.76,5.88c7.92,3,14.18,5.38,20.2,10.21,3.92,3.14,11.94,10.67,16.35,25.42l-2.73,16.35-38.81.23q.11-6.93.22-13.85l-9.22-.45a157.14,157.14,0,0,0-6.77-43.79Z"/><path class="cls-6" d="M657,196.1c2.23-.17,5.53-.38,9.53-.49,10.22-.29,15.4-.39,19,1.68,1.8,1,6,4,8.17,12.25l-90.79,46.9q1.21-19.75,2.42-39.53l-76.54-.25c.1-1.32.21-2.64.31-4l76.51-.22q.42-7,.86-14.09l9.22.45q-.11,6.91-.22,13.85l38.81-.23L657,196.1"/><path class="cls-7" d="M657,196.1c2.23-.17,5.53-.38,9.53-.49,10.22-.29,15.4-.39,19,1.68,1.8,1,6,4,8.17,12.25l-90.79,46.9q1.21-19.75,2.42-39.53l-76.54-.25c.1-1.32.21-2.64.31-4l76.51-.22q.42-7,.86-14.09l9.22.45q-.11,6.91-.22,13.85l38.81-.23Z"/><path class="cls-6" d="M648.41,233c.52,3.36,1,6.73,1.55,10.09l49.41-24.17-5.65-9.34L648.41,233"/><path class="cls-7" d="M648.41,233c.52,3.36,1,6.73,1.55,10.09l49.41-24.17-5.65-9.34Z"/><path class="cls-6" d="M650,243.05q2.63,5.83,5.24,11.68l30.61-10.2-9.9-14.17L650,243.05"/><path class="cls-7" d="M650,243.05q2.63,5.83,5.24,11.68l30.61-10.2-9.9-14.17Z"/><path class="cls-6" d="M685.81,244.52l28.9-12a57.39,57.39,0,0,1-15.34-13.68l-23.46,11.48Z"/><path class="cls-7" d="M685.81,244.52l28.9-12a57.39,57.39,0,0,1-15.34-13.68l-23.46,11.48Z"/><path class="cls-6" d="M586.5,322.27c3.27-9.06,6.44-19.07,9.25-30a333.69,333.69,0,0,0,7.19-35.86L648.4,233,650,243.05q2.63,5.83,5.24,11.68,1.69,5.22,3.41,10.44l34.81,3c.76.47,6.34,4.07,5.86,8.2-.23,1.95-1.78,3.69-3.6,5.73-2.72,3-4,4.18-4,4.18-1.23,1.12-2,1.67-2,2.57,0,1.17,1.19,1.59,1.47,3.16a4.71,4.71,0,0,1-.44,2.57,16.47,16.47,0,0,1-4.7,6.54c-1.75,1.54-2.63,2.43-4.19,2.86a8.38,8.38,0,0,1-4.36-.07,97.44,97.44,0,0,0-11.17-1.74c-4.23,2-7.7,3.87-10.29,5.34-9.18,5.21-7.38,5.46-15.13,9.79-4.06,2.28-6.6,3.35-8.43,6.45a20.85,20.85,0,0,0-2.11,5.83,20.06,20.06,0,0,0-.62,6.7,17,17,0,0,0,4.22,9.3c-3,2.76-6.15,5.85-9.3,9.3-2,2.19-3.86,4.34-5.58,6.45l-18.85-35.59-13.75-3.48"/><path class="cls-7" d="M586.5,322.27c3.27-9.06,6.44-19.07,9.25-30a333.69,333.69,0,0,0,7.19-35.86L648.4,233,650,243.05q2.63,5.83,5.24,11.68,1.69,5.22,3.41,10.44l34.81,3c.76.47,6.34,4.07,5.86,8.2-.23,1.95-1.78,3.69-3.6,5.73-2.72,3-4,4.18-4,4.18-1.23,1.12-2,1.67-2,2.57,0,1.17,1.19,1.59,1.47,3.16a4.71,4.71,0,0,1-.44,2.57,16.47,16.47,0,0,1-4.7,6.54c-1.75,1.54-2.63,2.43-4.19,2.86a8.38,8.38,0,0,1-4.36-.07,97.44,97.44,0,0,0-11.17-1.74c-4.23,2-7.7,3.87-10.29,5.34-9.18,5.21-7.38,5.46-15.13,9.79-4.06,2.28-6.6,3.35-8.43,6.45a20.85,20.85,0,0,0-2.11,5.83,20.06,20.06,0,0,0-.62,6.7,17,17,0,0,0,4.22,9.3c-3,2.76-6.15,5.85-9.3,9.3-2,2.19-3.86,4.34-5.58,6.45l-18.85-35.59Z"/><path class="cls-6" d="M586.5,322.27l-7,18L540.6,310.17l-15.44-6.3c-.29,1.1-.59,2.19-.89,3.29l14.82,6.74L577.91,344c-1,2.21-2,4.43-3,6.68-4.57,9.84-9.42,19-14.39,27.51l42.15,8.91a68.87,68.87,0,0,1,16.44-25.78l-18.85-35.59-13.75-3.48"/><path class="cls-7" d="M586.5,322.27l-7,18L540.6,310.17l-15.44-6.3c-.29,1.1-.59,2.19-.89,3.29l14.82,6.74L577.91,344c-1,2.21-2,4.43-3,6.68-4.57,9.84-9.42,19-14.39,27.51l42.15,8.91a68.87,68.87,0,0,1,16.44-25.78l-18.85-35.59Z"/><path class="cls-6" d="M602.66,387.12A78.92,78.92,0,0,1,615,365.81c1.86-2.27,4-4.63,6.66-7.48,5-5.45,9.33-9.78,12.36-12.74,1.52,2.06,3.62,5,5.92,8.74,3.83,6.2,5.75,9.3,6.48,12.84.84,4.12.16,7.58-1.18,14.49a94.29,94.29,0,0,1-3.18,12l-39.36-6.56"/><path class="cls-7" d="M602.66,387.12A78.92,78.92,0,0,1,615,365.81c1.86-2.27,4-4.63,6.66-7.48,5-5.45,9.33-9.78,12.36-12.74,1.52,2.06,3.62,5,5.92,8.74,3.83,6.2,5.75,9.3,6.48,12.84.84,4.12.16,7.58-1.18,14.49a94.29,94.29,0,0,1-3.18,12Z"/><path class="cls-6" d="M547.28,397.71l13.23-19.5,42.15,8.91L642,393.68,620.3,497.15l-40,48.14L532,486.58l11.33-35.3q23.51,26.06,47,52.1l22.28-19.63-2.64-10.39c-10.08-10.48-20.47-22-31-34.54-11.81-14.14-22.33-27.94-31.68-41.11"/><path class="cls-7" d="M547.28,397.71l13.23-19.5,42.15,8.91L642,393.68,620.3,497.15l-40,48.14L532,486.58l11.33-35.3q23.51,26.06,47,52.1l22.28-19.63-2.64-10.39c-10.08-10.48-20.47-22-31-34.54C567.15,424.68,556.63,410.88,547.28,397.71Z"/><path class="cls-6" d="M543.28,451.28l-23.53-22.75a239.24,239.24,0,0,1-18.47,16.25c-6.86,5.42-13.49,10.06-19.67,14l22.23,27,33.09,14.58,3.83-3.14q-4.39-5.36-8.81-10.7l11.33-35.3"/><path class="cls-7" d="M543.28,451.28l-23.53-22.75a239.24,239.24,0,0,1-18.47,16.25c-6.86,5.42-13.49,10.06-19.67,14l22.23,27,33.09,14.58,3.83-3.14q-4.39-5.36-8.81-10.7Z"/><path class="cls-6" d="M519.75,428.53l23.53,22.75q23.51,26.06,47,52.1l22.28-19.63-2.64-10.38c-10.08-10.49-20.47-22-31-34.55-11.81-14.14-22.33-27.94-31.68-41.11L525.63,422,416.76,343.42,414,346.73l108.54,78.66c-.94,1-1.88,2.09-2.81,3.14"/><path class="cls-7" d="M519.75,428.53l23.53,22.75q23.51,26.06,47,52.1l22.28-19.63-2.64-10.38c-10.08-10.49-20.47-22-31-34.55-11.81-14.14-22.33-27.94-31.68-41.11L525.63,422,416.76,343.42,414,346.73l108.54,78.66C521.62,426.43,520.68,427.48,519.75,428.53Z"/><path class="cls-6" d="M580.28,545.29l19.11,19.05,18.87-25.07-19.5-16.21-18.48,22.23"/><path class="cls-7" d="M580.28,545.29l19.11,19.05,18.87-25.07-19.5-16.21Z"/><path class="cls-6" d="M864.32,271.05v19.27l18.4,7.3,4.08-20.14-22.48-6.43"/><path class="cls-7" d="M864.32,271.05v19.27l18.4,7.3,4.08-20.14Z"/><rect class="cls-6" x="719.23" y="165.76" width="9.63" height="19.92"/><rect class="cls-7" x="719.23" y="165.76" width="9.63" height="19.92"/><rect class="cls-6" x="728.85" y="155.8" width="9.63" height="19.92"/><rect class="cls-7" x="728.85" y="155.8" width="9.63" height="19.92"/><rect class="cls-3" x="244.22" y="-2.13" width="792" height="612"/><text class="cls-8" transform="translate(505.75 183.63)">TERMOELÉCTRICAS</text><text class="cls-8" transform="translate(539.13 194.03)">AES GENER</text><text class="cls-8" transform="translate(504.47 237.63)">PUE<tspan class="cls-9" x="15.45" y="0">R</tspan><tspan x="20.56" y="0">TO VEN</tspan><tspan class="cls-10" x="51.33" y="0">T</tspan><tspan class="cls-11" x="54.22" y="0">ANAS</tspan></text><text class="cls-8" transform="translate(754.1 164.3)">TERMINAL DE </text><text class="cls-8" transform="translate(754.1 174.7)">AS<tspan class="cls-12" x="10.73" y="0">F</tspan><tspan x="14.46" y="0">A</tspan><tspan class="cls-10" x="20.88" y="0">L</tspan><tspan x="24.08" y="0">TOS CORDEX</tspan></text><text class="cls-13" transform="translate(718.15 214.87) scale(0.8 1)">ACOPIO DE CARBÓN</text><text class="cls-8" transform="translate(718.15 225.07)">C<tspan class="cls-14" x="7.05" y="0">A</tspan><tspan class="cls-15" x="12.66" y="0">T</tspan><tspan x="15.56" y="0">AMOTUM</tspan></text><text class="cls-8" transform="translate(691.84 249.29)">MOLIENDA DE CEMENTO</text><text class="cls-8" transform="translate(691.84 259.69)">MELÓN S.A.</text><text class="cls-8" transform="translate(658.64 379.3)">PLAN<tspan class="cls-15" x="21.96" y="0">T</tspan><tspan x="24.86" y="0">A</tspan></text><text class="cls-8" transform="translate(658.64 389.7)">GASMAR</text><text class="cls-8" transform="translate(642.91 440.32)">TERMINAL MARÍTIMO</text><text class="cls-8" transform="translate(642.91 450.72)">ENAP</text><text class="cls-8" transform="translate(628.33 544.69)">CENTRAL TERMOELÉCTRICA</text><text class="cls-8" transform="translate(628.33 555.09)">ENEL</text><text class="cls-16" transform="translate(926.66 528.91)">Escuelas, colegios y/o</text><text class="cls-16" transform="translate(926.66 538.99)">ja<tspan class="cls-17" x="7.45" y="0">r</tspan><tspan x="9.82" y="0">dines infantiles</tspan></text><text class="cls-16" transform="translate(926.66 556.59)">Caleta</text><text class="cls-16" transform="translate(926.66 575.47)">Cent<tspan class="cls-18" x="20.26" y="0">r</tspan><tspan x="22.64" y="0">o de Salud</tspan></text><text class="cls-8" transform="translate(479.13 278.61)">FUNDICIÓN Y REFINERÍA</text><text class="cls-8" transform="translate(477.53 289.01)">VEN<tspan class="cls-19" x="17.15" y="0">T</tspan><tspan class="cls-20" x="20.04" y="0">ANAS DE CODELCO</tspan></text><text class="cls-8" transform="translate(812.07 280.61)">MINERA</text><text class="cls-8" transform="translate(771.33 291.01)">MONTECARMELO</text><text class="cls-8" transform="translate(467.16 358.65)">TERMINAL MARÍTIMO</text><text class="cls-8" transform="translate(515.2 369.05)">OXIQIUM</text><text class="cls-8" transform="translate(370.27 397.74)">TERMINAL MARÍTIMO</text><text class="cls-8" transform="translate(392.17 408.14)">GNL QUINTERO</text><text class="cls-8" transform="translate(248.44 340.97)">EMISARIO SUBMARINO</text><text class="cls-8" transform="translate(248.44 351.37)">ES<tspan class="cls-21" x="8.96" y="0">V</tspan><tspan x="14.66" y="0">AL</tspan></text><text class="cls-8" transform="translate(402.27 437.33)">TERMINAL MARÍTIMO</text><text class="cls-8" transform="translate(456.27 447.73)">COPEC</text><line class="cls-22" x1="589.72" y1="183.63" x2="610.62" y2="183.63"/><path class="cls-23" d="M610.52,185.51a1.88,1.88,0,1,0-1.88-1.88,1.88,1.88,0,0,0,1.88,1.88"/><line class="cls-22" x1="750.98" y1="166.15" x2="733.2" y2="166.15"/><path class="cls-23" d="M733.29,164.27a1.88,1.88,0,1,0,1.88,1.88,1.88,1.88,0,0,0-1.88-1.88"/><line class="cls-22" x1="714.71" y1="215.55" x2="693.62" y2="215.55"/><path class="cls-23" d="M693.72,213.67a1.88,1.88,0,1,0,1.88,1.88,1.88,1.88,0,0,0-1.88-1.88"/><line class="cls-22" x1="689.53" y1="246.14" x2="670.74" y2="246.14"/><path class="cls-23" d="M670.84,244.26a1.88,1.88,0,1,0,1.88,1.88,1.88,1.88,0,0,0-1.88-1.88"/><line class="cls-22" x1="657.03" y1="375.69" x2="638.25" y2="375.69"/><path class="cls-23" d="M638.34,373.81a1.88,1.88,0,1,0,1.88,1.88,1.88,1.88,0,0,0-1.88-1.88"/><line class="cls-22" x1="244.15" y1="340.97" x2="225.37" y2="340.97"/><path class="cls-23" d="M225.46,339.09a1.88,1.88,0,1,0,1.88,1.88,1.88,1.88,0,0,0-1.88-1.88"/><line class="cls-22" x1="639.62" y1="441.7" x2="620.84" y2="441.7"/><path class="cls-23" d="M620.93,439.82a1.88,1.88,0,1,0,1.88,1.88,1.88,1.88,0,0,0-1.88-1.88"/><line class="cls-22" x1="624.7" y1="547.29" x2="605.92" y2="547.29"/><path class="cls-23" d="M606,545.41a1.88,1.88,0,1,0,1.88,1.88,1.88,1.88,0,0,0-1.88-1.88"/><line class="cls-22" x1="591.92" y1="233.96" x2="612.81" y2="233.96"/><path class="cls-23" d="M612.72,235.84a1.88,1.88,0,1,0-1.88-1.88,1.88,1.88,0,0,0,1.88,1.88"/><line class="cls-22" x1="850.33" y1="282.56" x2="871.23" y2="282.56"/><path class="cls-23" d="M871.13,284.44a1.88,1.88,0,1,0-1.88-1.88,1.88,1.88,0,0,0,1.88,1.88"/><line class="cls-22" x1="586.5" y1="281.61" x2="607.4" y2="281.61"/><path class="cls-23" d="M607.3,283.49a1.88,1.88,0,1,0-1.88-1.88,1.88,1.88,0,0,0,1.88,1.88"/><line class="cls-22" x1="560.34" y1="361.65" x2="581.24" y2="361.65"/><path class="cls-23" d="M581.15,363.53a1.88,1.88,0,1,0-1.88-1.88,1.88,1.88,0,0,0,1.88,1.88"/><line class="cls-22" x1="465.21" y1="395.74" x2="486.1" y2="395.74"/><path class="cls-23" d="M486,397.62a1.88,1.88,0,1,0-1.88-1.88,1.88,1.88,0,0,0,1.88,1.88"/><line class="cls-22" x1="493.12" y1="440.33" x2="514.02" y2="440.33"/><path class="cls-23" d="M513.92,442.21a1.88,1.88,0,1,0-1.88-1.88,1.88,1.88,0,0,0,1.88,1.88"/><rect class="cls-3" x="244.22" y="-2.13" width="792" height="612"/><path class="cls-24" d="M427.15,485.4a4.51,4.51,0,0,1,2,3.72,6,6,0,0,1-4.94-2.43,8.54,8.54,0,0,1-6.83,3.21c-4-.31-6.07-2.09-7.39-4.5,1.32-2.38,3.43-4.15,7.39-4.49a8.56,8.56,0,0,1,6.83,3.23,6.11,6.11,0,0,1,4.94-2.45,4.48,4.48,0,0,1-2,3.71"/><path class="cls-24" d="M920,552.59a4.47,4.47,0,0,1,2,3.72,6.08,6.08,0,0,1-4.94-2.43,8.56,8.56,0,0,1-6.83,3.2c-4-.31-6.07-2.09-7.38-4.49,1.31-2.38,3.42-4.16,7.38-4.5a8.63,8.63,0,0,1,6.83,3.23,6.15,6.15,0,0,1,4.94-2.45,4.47,4.47,0,0,1-2,3.72"/><path class="cls-24" d="M300.1,489.9a4.46,4.46,0,0,1,2,3.72,6,6,0,0,1-4.93-2.43,8.57,8.57,0,0,1-6.83,3.21c-4-.32-6.08-2.09-7.39-4.5,1.31-2.38,3.43-4.15,7.39-4.5a8.61,8.61,0,0,1,6.83,3.24,6.1,6.1,0,0,1,4.93-2.46,4.46,4.46,0,0,1-2,3.72"/><path class="cls-24" d="M292.15,434.19a4.49,4.49,0,0,1,2,3.72,6.06,6.06,0,0,1-4.94-2.43,8.56,8.56,0,0,1-6.83,3.2c-4-.31-6.07-2.09-7.39-4.49,1.32-2.38,3.43-4.16,7.39-4.5a8.63,8.63,0,0,1,6.83,3.23,6.13,6.13,0,0,1,4.94-2.45,4.49,4.49,0,0,1-2,3.72"/><path class="cls-23" d="M258.06,581.48h-16V571l7.94-5.34,8.07,5.34Z"/><path class="cls-25" d="M246.56,571a1,1,0,1,1,.78,1.25,1,1,0,0,1-.78-1.25"/><path class="cls-25" d="M246.71,580.45a.47.47,0,0,0,.46.46.46.46,0,0,0,.46-.46v-2.78h.84a15.91,15.91,0,0,0-.35-4,2,2,0,0,1-.43,0,2.67,2.67,0,0,1-.7-.09.42.42,0,0,1,.11-.82l.12,0h0l.09,0a2.53,2.53,0,0,0,.35,0h.08a.79.79,0,0,0-.66-.41c-1.56,0-1.36,5.17-1.36,5.17h1Z"/><path class="cls-25" d="M247.33,573l-.11,0h0a.33.33,0,0,0-.41.22.32.32,0,0,0,.22.4,3.16,3.16,0,0,0,.68.08,1.89,1.89,0,0,0,.4,0,2,2,0,0,0,.84-.33,2.36,2.36,0,0,0,.89-1.6.32.32,0,0,0-.26-.37.33.33,0,0,0-.38.26,1.69,1.69,0,0,1-.62,1.18,1.38,1.38,0,0,1-.73.24h-.14a2.87,2.87,0,0,1-.36,0"/><path class="cls-25" d="M253.4,573.23a.91.91,0,1,1-.91.91.91.91,0,0,1,.91-.91"/><path class="cls-25" d="M252.71,577.09a1,1,0,0,1-.15-.2.36.36,0,0,1-.07-.1,1.91,1.91,0,0,1-.25-.91v0a.37.37,0,0,1,.37-.36h0a.37.37,0,0,1,.35.38,1.16,1.16,0,0,0,.07.37.76.76,0,0,0,.11.22c.07-.43.14-1-.16-1.17l0,0a1.34,1.34,0,0,0-.84-.29l-.21,0,0-.25-1.18-.2a.23.23,0,0,0-.26.2l-.42,2.44a.24.24,0,0,0,.19.27l1.18.2.07-.41h.25c0,.08,0,.15,0,.23a1.1,1.1,0,0,0,.44.89,2.61,2.61,0,0,1-.89,1.78.44.44,0,1,0,.62.62,3.7,3.7,0,0,0,1.1-1.92,1.89,1.89,0,0,1,.23.87,2.1,2.1,0,0,1-.1.62.44.44,0,0,0,.3.54.25.25,0,0,0,.12,0,.44.44,0,0,0,.43-.32,3.36,3.36,0,0,0,.12-.86,2.7,2.7,0,0,0-.68-1.78,2.58,2.58,0,0,0-.34-.33l0-.21-.07,0a1.6,1.6,0,0,1-.35-.28m-1-.06h-.16l.3-1.78a1,1,0,0,1,.25,0l.23,0a1.07,1.07,0,0,0-.52.87c0,.31,0,.62,0,.93h-.05"/><path class="cls-25" d="M253.39,576.82a1.47,1.47,0,0,1-.26-.23,1.1,1.1,0,0,1-.17-.32,1.16,1.16,0,0,1-.07-.39h0a.28.28,0,0,0-.56,0v0a1.94,1.94,0,0,0,.24.87l.08.12a1.83,1.83,0,0,0,.13.16,1.81,1.81,0,0,0,.33.26h0a2,2,0,0,0,1,.26h0a.28.28,0,0,0,.28-.26.29.29,0,0,0-.27-.29,1.56,1.56,0,0,1-.71-.18"/><path class="cls-23" d="M489.61,575h-16V564.45l7.94-5.33,8.07,5.33Z"/><path class="cls-25" d="M478.11,564.47a1,1,0,1,1,.78,1.25,1,1,0,0,1-.78-1.25"/><path class="cls-25" d="M478.26,573.92a.47.47,0,0,0,.93,0v-2.78H480a15.82,15.82,0,0,0-.35-3.95,3,3,0,0,1-.43,0,2.83,2.83,0,0,1-.7-.09.41.41,0,0,1,.12-.81h.14l.09,0a2.69,2.69,0,0,0,.35,0h.08a.8.8,0,0,0-.66-.42c-1.56,0-1.36,5.17-1.36,5.17h1Z"/><path class="cls-25" d="M478.88,566.45l-.1,0h0a.32.32,0,0,0-.18.62,2.24,2.24,0,0,0,.67.09l.4,0a2,2,0,0,0,.84-.34,2.28,2.28,0,0,0,.89-1.6.32.32,0,0,0-.26-.37.33.33,0,0,0-.38.27,1.67,1.67,0,0,1-.62,1.17,1.49,1.49,0,0,1-.73.25h-.14a1.79,1.79,0,0,1-.36,0"/><path class="cls-25" d="M485,566.7a.91.91,0,1,1-.91.91.91.91,0,0,1,.91-.91"/><path class="cls-25" d="M484.26,570.56l-.15-.19a.86.86,0,0,0-.07-.1,2.11,2.11,0,0,1-.25-.92v0a.37.37,0,0,1,.37-.35h0a.36.36,0,0,1,.35.38,1.16,1.16,0,0,0,.07.36,1.23,1.23,0,0,0,.11.23c.08-.44.14-1-.15-1.18l0,0a1.41,1.41,0,0,0-.85-.29l-.21,0,0-.24-1.18-.2a.23.23,0,0,0-.27.19l-.41,2.44a.22.22,0,0,0,.19.27l1.17.2.07-.41h.26V571a1.11,1.11,0,0,0,.44.89,2.57,2.57,0,0,1-.89,1.79.44.44,0,1,0,.62.62,3.78,3.78,0,0,0,1.1-1.92,1.71,1.71,0,0,1,.23.86,2.44,2.44,0,0,1-.09.62.44.44,0,0,0,.3.55h.12a.44.44,0,0,0,.42-.31,3.11,3.11,0,0,0,.13-.87,2.65,2.65,0,0,0-.69-1.78,3.42,3.42,0,0,0-.33-.33c0-.07,0-.14,0-.21l-.07,0a1.54,1.54,0,0,1-.35-.28m-1-.06h-.16l.3-1.78a1.06,1.06,0,0,1,.25,0,.9.9,0,0,1,.23,0,1.06,1.06,0,0,0-.52.87c0,.3,0,.61,0,.92h-.05"/><path class="cls-25" d="M485,570.29a.84.84,0,0,1-.26-.23,1.24,1.24,0,0,1-.18-.31,1.65,1.65,0,0,1-.07-.4h0a.26.26,0,0,0-.26-.28.27.27,0,0,0-.29.26v0a1.87,1.87,0,0,0,.23.87l.08.12.14.16a1.18,1.18,0,0,0,.32.26h0a2.06,2.06,0,0,0,1,.26h0a.28.28,0,0,0,.28-.27.27.27,0,0,0-.27-.28,1.47,1.47,0,0,1-.7-.19"/><path class="cls-23" d="M920.65,538h-16v-10.5l7.94-5.34,8.06,5.34Z"/><path class="cls-25" d="M909.16,527.53a1,1,0,1,1,.77,1.25,1,1,0,0,1-.77-1.25"/><path class="cls-25" d="M909.31,537a.45.45,0,0,0,.46.46.46.46,0,0,0,.46-.46V534.2h.83a15.41,15.41,0,0,0-.35-4,1.93,1.93,0,0,1-.42,0,2.67,2.67,0,0,1-.7-.09.43.43,0,0,1-.29-.52.42.42,0,0,1,.4-.29h.14l.1,0a2.53,2.53,0,0,0,.35,0h.08a.81.81,0,0,0-.67-.42c-1.55,0-1.36,5.17-1.36,5.17h1Z"/><path class="cls-25" d="M909.92,529.51l-.1,0h0a.32.32,0,1,0-.18.62,2.27,2.27,0,0,0,.68.09,2.39,2.39,0,0,0,1.24-.37,2.31,2.31,0,0,0,.89-1.6.32.32,0,0,0-.64-.11,1.66,1.66,0,0,1-.63,1.18,1.35,1.35,0,0,1-.73.24h-.13a3.06,3.06,0,0,1-.37,0"/><path class="cls-25" d="M916,529.76a.91.91,0,1,1-.91.91.91.91,0,0,1,.91-.91"/><path class="cls-25" d="M915.31,533.62a1.56,1.56,0,0,1-.16-.2l-.06-.1a1.8,1.8,0,0,1-.25-.91v0a.37.37,0,0,1,.37-.36h0a.38.38,0,0,1,.36.39,1.16,1.16,0,0,0,.07.36.74.74,0,0,0,.1.22c.08-.43.15-1-.15-1.17l0,0a1.34,1.34,0,0,0-.84-.29l-.21,0,0-.24-1.18-.2a.23.23,0,0,0-.27.19l-.41,2.44a.24.24,0,0,0,.19.27l1.18.2.07-.41h.25a1.69,1.69,0,0,0,0,.23,1.06,1.06,0,0,0,.44.89,2.59,2.59,0,0,1-.89,1.78.44.44,0,0,0,0,.62.42.42,0,0,0,.62,0,3.77,3.77,0,0,0,1.1-1.92,1.78,1.78,0,0,1,.22.87,2.06,2.06,0,0,1-.09.62.44.44,0,0,0,.3.55h.12a.43.43,0,0,0,.42-.31,3.11,3.11,0,0,0,.13-.87,2.7,2.7,0,0,0-.68-1.78,3.39,3.39,0,0,0-.34-.33l0-.21-.07,0a1.6,1.6,0,0,1-.35-.28m-1-.06h-.16l.3-1.78a1,1,0,0,1,.25,0l.22,0a1.09,1.09,0,0,0-.51.87c0,.31-.05.62-.05.93h0"/><path class="cls-25" d="M916,533.35a1.19,1.19,0,0,1-.26-.23,1.1,1.1,0,0,1-.17-.32.94.94,0,0,1-.07-.39h0a.28.28,0,0,0-.56,0v0a1.81,1.81,0,0,0,.24.87l.08.12a1.83,1.83,0,0,0,.13.16,1.46,1.46,0,0,0,.33.26h0a2.06,2.06,0,0,0,1,.27h0a.28.28,0,0,0,0-.56,1.52,1.52,0,0,1-.71-.18"/><path class="cls-23" d="M866.34,69.39h-16V58.89l7.94-5.34,8.07,5.34Z"/><path class="cls-25" d="M854.84,58.91a1,1,0,1,1,.78,1.25,1,1,0,0,1-.78-1.25"/><path class="cls-25" d="M855,68.36a.47.47,0,0,0,.93,0V65.57h.83a15.84,15.84,0,0,0-.35-3.95,3,3,0,0,1-.43,0,2.83,2.83,0,0,1-.7-.09.43.43,0,0,1-.28-.52.42.42,0,0,1,.4-.3l.11,0h0l.1,0,.34,0h.08a.79.79,0,0,0-.66-.41c-1.56,0-1.36,5.16-1.36,5.16h1Z"/><path class="cls-25" d="M855.61,60.89l-.1,0h0a.32.32,0,1,0-.18.62,3,3,0,0,0,.67.08,1.84,1.84,0,0,0,.4,0,2,2,0,0,0,.84-.33,2.32,2.32,0,0,0,.89-1.6.32.32,0,1,0-.63-.11,1.69,1.69,0,0,1-.63,1.18,1.38,1.38,0,0,1-.73.24H856a3.05,3.05,0,0,1-.36,0"/><path class="cls-25" d="M861.68,61.14a.91.91,0,0,1,0,1.82.91.91,0,1,1,0-1.82"/><path class="cls-25" d="M861,65a1.56,1.56,0,0,1-.16-.2l-.07-.1a2,2,0,0,1-.25-.91s0,0,0,0a.36.36,0,0,1,.36-.36h0a.37.37,0,0,1,.35.38,1.16,1.16,0,0,0,.07.37,1.13,1.13,0,0,0,.11.22c.08-.43.14-1-.15-1.17l0,0a1.34,1.34,0,0,0-.85-.29l-.2,0,0-.25-1.18-.2a.24.24,0,0,0-.27.2l-.41,2.44a.23.23,0,0,0,.19.27l1.18.2.07-.41h.25v.23a1.13,1.13,0,0,0,.44.89,2.56,2.56,0,0,1-.89,1.78.44.44,0,0,0,0,.62.45.45,0,0,0,.63,0,3.74,3.74,0,0,0,1.09-1.92,1.78,1.78,0,0,1,.23.87,2.44,2.44,0,0,1-.09.62.43.43,0,0,0,.3.54.25.25,0,0,0,.12,0,.44.44,0,0,0,.42-.32,3,3,0,0,0,.13-.86,2.65,2.65,0,0,0-.69-1.78,2,2,0,0,0-.33-.33c0-.07,0-.14,0-.21l-.06,0A1.6,1.6,0,0,1,861,65m-1-.06h-.16l.3-1.78a1.07,1.07,0,0,1,.25,0l.23,0a1.09,1.09,0,0,0-.52.87c0,.31,0,.62,0,.93H860"/><path class="cls-25" d="M861.68,64.73a1,1,0,0,1-.26-.23,1.14,1.14,0,0,1-.18-.32,1.52,1.52,0,0,1-.07-.4h0a.28.28,0,1,0-.55,0v0a1.88,1.88,0,0,0,.23.88,1,1,0,0,1,.08.11,1.15,1.15,0,0,0,.14.17,1.72,1.72,0,0,0,.32.26h0a2,2,0,0,0,1,.26h0a.28.28,0,0,0,.28-.26.28.28,0,0,0-.27-.29,1.48,1.48,0,0,1-.7-.18"/><path class="cls-23" d="M796.41,85.23h-16V74.73l7.93-5.34,8.07,5.34Z"/><path class="cls-25" d="M784.92,74.75a1,1,0,1,1,.77,1.25,1,1,0,0,1-.77-1.25"/><path class="cls-25" d="M785.07,84.2a.46.46,0,0,0,.46.46.47.47,0,0,0,.46-.46V81.42h.84a15.61,15.61,0,0,0-.36-4,2.72,2.72,0,0,1-.42,0,2.67,2.67,0,0,1-.7-.09.43.43,0,0,1-.29-.52.44.44,0,0,1,.4-.3l.12,0h0l.1,0a2.53,2.53,0,0,0,.35,0h.08a.8.8,0,0,0-.67-.41c-1.55,0-1.36,5.17-1.36,5.17h1Z"/><path class="cls-25" d="M785.68,76.73l-.1,0h0a.32.32,0,1,0-.18.62h0a3,3,0,0,0,.68.08,1.89,1.89,0,0,0,.4,0,2,2,0,0,0,.84-.33,2.36,2.36,0,0,0,.89-1.6.32.32,0,0,0-.27-.37.32.32,0,0,0-.37.26,1.66,1.66,0,0,1-.63,1.18,1.35,1.35,0,0,1-.73.24h-.13a3.06,3.06,0,0,1-.37,0"/><path class="cls-25" d="M791.76,77a.91.91,0,1,1-.91.91.91.91,0,0,1,.91-.91"/><path class="cls-25" d="M791.07,80.84a1.56,1.56,0,0,1-.16-.2l-.06-.1a1.8,1.8,0,0,1-.25-.91v0a.37.37,0,0,1,.37-.36h0a.38.38,0,0,1,.36.38,1.16,1.16,0,0,0,.07.37.74.74,0,0,0,.1.22c.08-.43.15-1-.15-1.17,0,0,0,0,0,0a1.34,1.34,0,0,0-.84-.29l-.21,0,0-.25-1.18-.2a.24.24,0,0,0-.27.2l-.41,2.44a.24.24,0,0,0,.19.27l1.18.2.07-.41h.25a1.77,1.77,0,0,0,0,.23,1.07,1.07,0,0,0,.44.89,2.61,2.61,0,0,1-.89,1.78.44.44,0,1,0,.62.62,3.7,3.7,0,0,0,1.1-1.92,1.78,1.78,0,0,1,.22.87,2.06,2.06,0,0,1-.09.62.43.43,0,0,0,.3.54.25.25,0,0,0,.12,0,.43.43,0,0,0,.42-.32,3,3,0,0,0,.13-.86,2.7,2.7,0,0,0-.68-1.78,2.55,2.55,0,0,0-.34-.33l0-.21-.07,0a1.6,1.6,0,0,1-.35-.28m-1-.06H790l.3-1.78a1,1,0,0,1,.25,0l.22,0a1.09,1.09,0,0,0-.51.87c0,.31-.05.62-.05.93h0"/><path class="cls-25" d="M791.75,80.57a1.19,1.19,0,0,1-.26-.23,1.1,1.1,0,0,1-.17-.32,1.3,1.3,0,0,1-.08-.4h0a.28.28,0,0,0-.26-.29.29.29,0,0,0-.29.27v0a1.81,1.81,0,0,0,.24.88.76.76,0,0,0,.08.11,1.09,1.09,0,0,0,.13.17,2.13,2.13,0,0,0,.32.26h0a2,2,0,0,0,1,.26h0a.27.27,0,0,0,.27-.26.28.28,0,0,0-.26-.29,1.52,1.52,0,0,1-.71-.18"/><path class="cls-23" d="M693.81,176h-16V165.5l7.94-5.33,8.06,5.33Z"/><path class="cls-25" d="M682.32,165.52a1,1,0,1,1,.77,1.25,1,1,0,0,1-.77-1.25"/><path class="cls-25" d="M682.47,175a.46.46,0,1,0,.92,0v-2.78h.84a15.61,15.61,0,0,0-.36-4,1.87,1.87,0,0,1-.42,0,2.67,2.67,0,0,1-.7-.09.41.41,0,0,1,.11-.81H683l.1,0a2.53,2.53,0,0,0,.35,0h.08a.81.81,0,0,0-.66-.42c-1.56,0-1.36,5.17-1.36,5.17h1Z"/><path class="cls-25" d="M683.08,167.5l-.1,0h0a.32.32,0,0,0-.18.62h0a2.27,2.27,0,0,0,.68.09l.4,0a2,2,0,0,0,.84-.34,2.31,2.31,0,0,0,.89-1.6.32.32,0,1,0-.64-.1,1.63,1.63,0,0,1-.63,1.17,1.42,1.42,0,0,1-.72.25h-.14a1.83,1.83,0,0,1-.37,0"/><path class="cls-25" d="M689.16,167.75a.91.91,0,1,1-.91.91.91.91,0,0,1,.91-.91"/><path class="cls-25" d="M688.47,171.61c-.06-.06-.11-.13-.16-.19l-.06-.11a1.8,1.8,0,0,1-.25-.91v0a.37.37,0,0,1,.37-.35h0a.36.36,0,0,1,.36.38,1.16,1.16,0,0,0,.07.36,1.22,1.22,0,0,0,.1.23c.08-.44.15-1-.15-1.18a0,0,0,0,0,0,0,1.4,1.4,0,0,0-.84-.29l-.21,0,0-.24-1.18-.2a.24.24,0,0,0-.27.19l-.41,2.44a.24.24,0,0,0,.19.27l1.18.2.07-.41h.25c0,.08,0,.16,0,.23a1.09,1.09,0,0,0,.44.89,2.57,2.57,0,0,1-.89,1.78.45.45,0,0,0,0,.63.44.44,0,0,0,.62,0,3.78,3.78,0,0,0,1.1-1.92,1.71,1.71,0,0,1,.22.86,2.06,2.06,0,0,1-.09.62.45.45,0,0,0,.3.55h.12a.45.45,0,0,0,.43-.31,3.49,3.49,0,0,0,.12-.87,2.7,2.7,0,0,0-.68-1.78,3.44,3.44,0,0,0-.34-.33l0-.21-.07,0a1.35,1.35,0,0,1-.35-.28m-1-.06h-.16l.3-1.78a.69.69,0,0,1,.25,0,.82.82,0,0,1,.22,0,1.05,1.05,0,0,0-.51.87c0,.3-.05.61-.05.92h0"/><path class="cls-25" d="M689.15,171.34a1.19,1.19,0,0,1-.26-.23,1.1,1.1,0,0,1-.17-.32,1.16,1.16,0,0,1-.07-.39h0a.28.28,0,0,0-.56,0v0a1.81,1.81,0,0,0,.24.87l.08.12a1.83,1.83,0,0,0,.13.16,1.23,1.23,0,0,0,.33.26h0a2.06,2.06,0,0,0,1,.27h0a.28.28,0,0,0,.28-.27.29.29,0,0,0-.27-.29,1.44,1.44,0,0,1-.71-.18"/><path class="cls-23" d="M625.06,137h-16V126.47l7.94-5.33,8.07,5.33Z"/><path class="cls-25" d="M613.57,126.5a1,1,0,1,1,.77,1.24,1,1,0,0,1-.77-1.24"/><path class="cls-25" d="M613.72,135.94a.46.46,0,0,0,.46.47.47.47,0,0,0,.46-.47v-2.78h.83a15.34,15.34,0,0,0-.35-3.95,2.86,2.86,0,0,1-.42,0h0a2.64,2.64,0,0,1-.69-.09.41.41,0,0,1-.29-.51.42.42,0,0,1,.4-.3h.14l.1,0a2.51,2.51,0,0,0,.34,0h.09a.83.83,0,0,0-.67-.42c-1.55,0-1.36,5.17-1.36,5.17h1Z"/><path class="cls-25" d="M614.33,128.47l-.1,0h0a.32.32,0,0,0-.18.62,2.27,2.27,0,0,0,.68.09l.4,0a1.83,1.83,0,0,0,.83-.34,2.28,2.28,0,0,0,.9-1.59.33.33,0,0,0-.27-.38.32.32,0,0,0-.37.27,1.68,1.68,0,0,1-.63,1.18,1.44,1.44,0,0,1-.73.24h-.13a1.83,1.83,0,0,1-.37,0"/><path class="cls-25" d="M620.41,128.72a.91.91,0,0,1,0,1.82.91.91,0,1,1,0-1.82"/><path class="cls-25" d="M619.72,132.58a1.46,1.46,0,0,1-.16-.19l-.06-.1a1.87,1.87,0,0,1-.25-.92v0a.37.37,0,0,1,.37-.35h0a.38.38,0,0,1,.36.38,1.43,1.43,0,0,0,.06.37,1.51,1.51,0,0,0,.11.22c.08-.44.15-1-.15-1.18l0,0a1.38,1.38,0,0,0-.84-.28h-.21l0-.24-1.18-.2a.23.23,0,0,0-.27.19l-.41,2.44a.23.23,0,0,0,.19.27l1.18.2.07-.41.2,0h0a1.85,1.85,0,0,0,0,.23,1,1,0,0,0,.44.88,2.61,2.61,0,0,1-.89,1.79.44.44,0,0,0,.62.62,3.71,3.71,0,0,0,1.09-1.92,1.65,1.65,0,0,1,.23.87,2.5,2.5,0,0,1-.09.62.44.44,0,0,0,.3.54l.12,0a.44.44,0,0,0,.42-.32,3,3,0,0,0,.13-.86,2.73,2.73,0,0,0-.68-1.79c-.12-.13-.24-.24-.34-.33a1.55,1.55,0,0,0,0-.21l-.06,0a1.64,1.64,0,0,1-.35-.29m-1-.05-.16,0,.3-1.78.25,0a.86.86,0,0,1,.22,0,1.07,1.07,0,0,0-.51.87,7.25,7.25,0,0,0-.05.93h0"/><path class="cls-25" d="M620.4,132.31a.83.83,0,0,1-.26-.23,1,1,0,0,1-.17-.31,1.41,1.41,0,0,1-.08-.4h0a.27.27,0,0,0-.26-.29.28.28,0,0,0-.29.27v0a1.76,1.76,0,0,0,.24.87l.08.12a.65.65,0,0,0,.13.16,1.69,1.69,0,0,0,.32.27h0a2.05,2.05,0,0,0,1,.26h0a.28.28,0,0,0,.27-.27.26.26,0,0,0-.26-.28,1.51,1.51,0,0,1-.71-.19"/><path class="cls-23" d="M605.73,115.89h-16v-10.5l7.94-5.34,8.07,5.34Z"/><path class="cls-25" d="M594.23,105.41a1,1,0,0,1,1.25-.78,1,1,0,1,1-1.25.78"/><path class="cls-25" d="M594.38,114.86a.47.47,0,0,0,.93,0v-2.79h.83a15.84,15.84,0,0,0-.35-3.95,3,3,0,0,1-.43,0,2.94,2.94,0,0,1-.7-.08.42.42,0,0,1-.28-.52.41.41,0,0,1,.4-.3l.11,0h0l.09,0a1.62,1.62,0,0,0,.35,0h.08a.8.8,0,0,0-.66-.42c-1.56,0-1.36,5.17-1.36,5.17h1Z"/><path class="cls-25" d="M595,107.38l-.11,0h0a.32.32,0,0,0-.4.21.33.33,0,0,0,.22.41,2.89,2.89,0,0,0,.67.08l.4,0a2,2,0,0,0,.84-.33,2.36,2.36,0,0,0,.89-1.6.33.33,0,0,0-.26-.38.34.34,0,0,0-.38.27,1.69,1.69,0,0,1-.62,1.18,1.47,1.47,0,0,1-.73.24h-.14a1.79,1.79,0,0,1-.36,0"/><path class="cls-25" d="M601.07,107.63a.91.91,0,1,1-.91.91.91.91,0,0,1,.91-.91"/><path class="cls-25" d="M600.38,111.49a1.39,1.39,0,0,1-.15-.19.61.61,0,0,1-.07-.1,2,2,0,0,1-.25-.92v0a.37.37,0,0,1,.37-.35h0a.37.37,0,0,1,.35.38,1.16,1.16,0,0,0,.07.37.91.91,0,0,0,.11.22c.08-.44.14-1-.16-1.18l0,0a1.35,1.35,0,0,0-.84-.28h-.21l0-.24-1.17-.2a.24.24,0,0,0-.27.19l-.42,2.45a.23.23,0,0,0,.2.26l1.17.2.07-.41a.71.71,0,0,0,.2,0h.05a1.69,1.69,0,0,1,0,.23,1.1,1.1,0,0,0,.44.89,2.56,2.56,0,0,1-.89,1.78.44.44,0,1,0,.62.62,3.7,3.7,0,0,0,1.1-1.92,1.75,1.75,0,0,1,.23.87,2.15,2.15,0,0,1-.1.62.44.44,0,0,0,.31.54l.12,0a.45.45,0,0,0,.42-.32,3,3,0,0,0,.13-.86,2.63,2.63,0,0,0-.69-1.78,3.64,3.64,0,0,0-.33-.34,1.3,1.3,0,0,1,0-.21l-.07,0a1.93,1.93,0,0,1-.35-.29m-1,0h-.16l.3-1.79.25,0,.23,0a1.09,1.09,0,0,0-.52.87c0,.31,0,.62,0,.93h-.05"/><path class="cls-25" d="M601.07,111.22a1,1,0,0,1-.27-.22,1.24,1.24,0,0,1-.17-.32,1.21,1.21,0,0,1-.07-.4h0a.28.28,0,1,0-.55,0v0a1.83,1.83,0,0,0,.23.87l.08.12a2.09,2.09,0,0,0,.14.17,1.72,1.72,0,0,0,.32.26h0a2,2,0,0,0,1,.26h0a.28.28,0,0,0,.28-.26.28.28,0,0,0-.27-.29,1.36,1.36,0,0,1-.7-.19"/><path class="cls-23" d="M587.29,48.19h-16V37.69l7.94-5.34,8.07,5.34Z"/><path class="cls-25" d="M575.79,37.71a1,1,0,1,1,.78,1.25,1,1,0,0,1-.78-1.25"/><path class="cls-25" d="M575.94,47.16a.47.47,0,0,0,.93,0V44.38h.83a15.91,15.91,0,0,0-.35-4,3,3,0,0,1-.43,0h0a2.75,2.75,0,0,1-.7-.09.42.42,0,0,1,.12-.82l.11,0h0l.09,0a2.69,2.69,0,0,0,.35,0H577a.79.79,0,0,0-.66-.41c-1.56,0-1.36,5.17-1.36,5.17h1Z"/><path class="cls-25" d="M576.56,39.69l-.1,0h0a.32.32,0,0,0-.4.22.32.32,0,0,0,.22.4,2.89,2.89,0,0,0,.67.08l.4,0a2,2,0,0,0,.84-.33,2.36,2.36,0,0,0,.89-1.6.32.32,0,0,0-.26-.37.33.33,0,0,0-.38.26,1.69,1.69,0,0,1-.62,1.18,1.38,1.38,0,0,1-.73.24h-.14a3.05,3.05,0,0,1-.36,0"/><path class="cls-25" d="M582.63,39.94a.91.91,0,1,1-.91.91.91.91,0,0,1,.91-.91"/><path class="cls-25" d="M581.94,43.8l-.15-.2a.86.86,0,0,1-.07-.1,1.91,1.91,0,0,1-.25-.91v0a.37.37,0,0,1,.37-.36h0a.37.37,0,0,1,.35.38,1.16,1.16,0,0,0,.07.37.76.76,0,0,0,.11.22c.08-.43.14-1-.16-1.17l0,0a1.3,1.3,0,0,0-.84-.29l-.21,0,0-.25-1.17-.2a.24.24,0,0,0-.27.2l-.41,2.44a.22.22,0,0,0,.19.27l1.17.2.07-.41H581a1.77,1.77,0,0,1,0,.23,1.1,1.1,0,0,0,.44.89,2.56,2.56,0,0,1-.89,1.78.44.44,0,0,0,.62.62,3.7,3.7,0,0,0,1.1-1.92,1.78,1.78,0,0,1,.23.87,2.1,2.1,0,0,1-.1.62.44.44,0,0,0,.31.54.25.25,0,0,0,.12,0,.44.44,0,0,0,.42-.32,3,3,0,0,0,.13-.86,2.65,2.65,0,0,0-.69-1.78,2.55,2.55,0,0,0-.33-.33,1.55,1.55,0,0,1,0-.21l-.07,0a1.87,1.87,0,0,1-.35-.28m-1-.06h-.16l.3-1.78a1.07,1.07,0,0,1,.25,0l.23,0a1.09,1.09,0,0,0-.52.87c0,.31-.05.62-.05.93h0"/><path class="cls-25" d="M582.63,43.53a1.25,1.25,0,0,1-.27-.23,1.1,1.1,0,0,1-.17-.32,1.17,1.17,0,0,1-.07-.4h0a.29.29,0,0,0-.27-.29.28.28,0,0,0-.28.27v0a1.94,1.94,0,0,0,.24.88l.08.11a1.09,1.09,0,0,0,.13.17,1.81,1.81,0,0,0,.33.26h0a2,2,0,0,0,1,.26h0a.28.28,0,0,0,.28-.26.29.29,0,0,0-.27-.29,1.48,1.48,0,0,1-.7-.18"/><path class="cls-23" d="M607.65,17h-16V6.5l7.94-5.34,8.06,5.34Z"/><path class="cls-25" d="M596.16,6.52a1,1,0,1,1,.77,1.25,1,1,0,0,1-.77-1.25"/><path class="cls-25" d="M596.31,16a.46.46,0,0,0,.46.46.47.47,0,0,0,.46-.46V13.19h.84a15.61,15.61,0,0,0-.36-4,1.87,1.87,0,0,1-.42,0,2.67,2.67,0,0,1-.7-.09.43.43,0,0,1-.29-.52.44.44,0,0,1,.4-.3l.12,0h0l.1,0a2.53,2.53,0,0,0,.35,0h.08A.82.82,0,0,0,596.7,8c-1.55,0-1.36,5.17-1.36,5.17h1Z"/><path class="cls-25" d="M596.92,8.5l-.1,0h0a.32.32,0,1,0-.18.62,2.72,2.72,0,0,0,.68.09,2.39,2.39,0,0,0,1.24-.37,2.31,2.31,0,0,0,.89-1.6.32.32,0,0,0-.27-.37.32.32,0,0,0-.37.26,1.66,1.66,0,0,1-.63,1.18,1.35,1.35,0,0,1-.73.24h-.13a3.06,3.06,0,0,1-.37,0"/><path class="cls-25" d="M603,8.75a.91.91,0,1,1-.91.91.91.91,0,0,1,.91-.91"/><path class="cls-25" d="M602.31,12.61a1.56,1.56,0,0,1-.16-.2l-.06-.1a1.8,1.8,0,0,1-.25-.91v0a.37.37,0,0,1,.37-.36h0a.38.38,0,0,1,.36.38,1.16,1.16,0,0,0,.07.37.74.74,0,0,0,.1.22c.08-.43.15-1-.15-1.17l0,0a1.34,1.34,0,0,0-.84-.29l-.21,0,0-.25-1.18-.19a.22.22,0,0,0-.27.19l-.41,2.44a.24.24,0,0,0,.19.27l1.18.2.07-.41h.25a1.77,1.77,0,0,0,0,.23,1.06,1.06,0,0,0,.44.89,2.59,2.59,0,0,1-.89,1.78.44.44,0,1,0,.62.62,3.7,3.7,0,0,0,1.1-1.92,1.78,1.78,0,0,1,.22.87,2.06,2.06,0,0,1-.09.62.43.43,0,0,0,.3.54.25.25,0,0,0,.12,0,.43.43,0,0,0,.42-.32,3,3,0,0,0,.13-.86,2.7,2.7,0,0,0-.68-1.78,3.39,3.39,0,0,0-.34-.33l0-.21-.07,0a1.6,1.6,0,0,1-.35-.28m-1-.06h-.16l.3-1.78a1,1,0,0,1,.25,0l.22,0a1.09,1.09,0,0,0-.51.87c0,.31-.05.62-.05.93h0"/><path class="cls-25" d="M603,12.34a1.19,1.19,0,0,1-.26-.23,1.1,1.1,0,0,1-.17-.32,1.16,1.16,0,0,1-.07-.39h0a.28.28,0,0,0-.56,0v0a1.81,1.81,0,0,0,.24.87l.08.12a1.83,1.83,0,0,0,.13.16,1.46,1.46,0,0,0,.33.26h0a2.06,2.06,0,0,0,1,.27h0a.27.27,0,0,0,.27-.27.28.28,0,0,0-.26-.29,1.52,1.52,0,0,1-.71-.18"/><path class="cls-23" d="M224.66,613.84h-16v-10.5l7.94-5.34,8.07,5.34Z"/><path class="cls-25" d="M213.16,603.36a1,1,0,1,1,.78,1.25,1,1,0,0,1-.78-1.25"/><path class="cls-25" d="M213.31,612.81a.47.47,0,0,0,.93,0V610h.83a15.91,15.91,0,0,0-.35-4,3,3,0,0,1-.43,0,2.64,2.64,0,0,1-.69-.09.42.42,0,0,1-.29-.52.43.43,0,0,1,.4-.3l.11,0h0l.1,0a2.36,2.36,0,0,0,.34,0h.09a.81.81,0,0,0-.67-.41c-1.55,0-1.36,5.17-1.36,5.17h1Z"/><path class="cls-25" d="M213.93,605.34l-.1,0h0a.32.32,0,1,0-.18.62,3,3,0,0,0,.67.08,1.84,1.84,0,0,0,.4,0,2,2,0,0,0,.84-.33,2.37,2.37,0,0,0,.9-1.6.33.33,0,0,0-.27-.37.32.32,0,0,0-.37.26,1.69,1.69,0,0,1-.63,1.18,1.38,1.38,0,0,1-.73.24h-.14a3.05,3.05,0,0,1-.36,0"/><path class="cls-25" d="M220,605.59a.91.91,0,1,1,0,1.82.91.91,0,0,1,0-1.82"/><path class="cls-25" d="M219.32,609.45a1.56,1.56,0,0,1-.16-.2l-.06-.1a1.83,1.83,0,0,1-.25-.91v0a.36.36,0,0,1,.36-.35h0a.37.37,0,0,1,.35.38,1.16,1.16,0,0,0,.07.37,1.13,1.13,0,0,0,.11.22c.08-.43.14-1-.15-1.17l0,0a1.34,1.34,0,0,0-.85-.29l-.2,0,0-.25-1.18-.2a.24.24,0,0,0-.27.2l-.41,2.44a.24.24,0,0,0,.19.27l1.18.2.07-.41h.25v.23a1.13,1.13,0,0,0,.44.89,2.58,2.58,0,0,1-.88,1.78.42.42,0,0,0,0,.62.44.44,0,0,0,.62,0,3.67,3.67,0,0,0,1.09-1.92,1.75,1.75,0,0,1,.23.87,2.44,2.44,0,0,1-.09.62.43.43,0,0,0,.3.54.25.25,0,0,0,.12,0,.44.44,0,0,0,.42-.32,3,3,0,0,0,.13-.86,2.65,2.65,0,0,0-.69-1.78,2,2,0,0,0-.33-.33c0-.07,0-.14,0-.21l-.06,0a1.6,1.6,0,0,1-.35-.28m-1-.06h-.16l.3-1.78a1.07,1.07,0,0,1,.25,0l.23,0a1.09,1.09,0,0,0-.52.87c0,.31,0,.62,0,.93h-.05"/><path class="cls-25" d="M220,609.18a1,1,0,0,1-.26-.23,1.14,1.14,0,0,1-.18-.32,1.52,1.52,0,0,1-.07-.4h0a.28.28,0,1,0-.55,0v0a1.81,1.81,0,0,0,.24.88l.07.11a1.15,1.15,0,0,0,.14.17,1.72,1.72,0,0,0,.32.26h0a2,2,0,0,0,1,.26h0a.28.28,0,0,0,.28-.26.28.28,0,0,0-.27-.29,1.48,1.48,0,0,1-.7-.18"/><path class="cls-23" d="M292.52,563.88h-16v-10.5l7.94-5.34,8.07,5.34Z"/><path class="cls-25" d="M281,553.4a1,1,0,1,1,.78,1.25,1,1,0,0,1-.78-1.25"/><path class="cls-25" d="M281.17,562.85a.47.47,0,0,0,.46.46.46.46,0,0,0,.46-.46v-2.78h.84a15.91,15.91,0,0,0-.35-4,2,2,0,0,1-.43,0,2.67,2.67,0,0,1-.7-.09.42.42,0,0,1,.11-.82l.12,0h0l.09,0a2.53,2.53,0,0,0,.35,0h.08a.79.79,0,0,0-.66-.41c-1.56,0-1.36,5.17-1.36,5.17h1Z"/><path class="cls-25" d="M281.79,555.38l-.11,0h0a.32.32,0,0,0-.4.22.31.31,0,0,0,.21.4,2.34,2.34,0,0,0,.68.09,1.94,1.94,0,0,0,.4,0,2,2,0,0,0,.84-.33,2.31,2.31,0,0,0,.89-1.6.32.32,0,0,0-.26-.37.33.33,0,0,0-.38.26,1.69,1.69,0,0,1-.62,1.18,1.38,1.38,0,0,1-.73.24h-.14a2.87,2.87,0,0,1-.36,0"/><path class="cls-25" d="M287.86,555.63a.91.91,0,1,1-.91.91.91.91,0,0,1,.91-.91"/><path class="cls-25" d="M287.17,559.49a1,1,0,0,1-.15-.2.36.36,0,0,1-.07-.1,1.91,1.91,0,0,1-.25-.91v0a.37.37,0,0,1,.37-.36h0a.37.37,0,0,1,.35.38,1.16,1.16,0,0,0,.07.37.76.76,0,0,0,.11.22c.07-.43.14-1-.16-1.17a0,0,0,0,0,0,0,1.34,1.34,0,0,0-.84-.29l-.21,0,0-.25-1.18-.2a.23.23,0,0,0-.26.2l-.42,2.44a.24.24,0,0,0,.19.27l1.18.2.07-.41h.25c0,.08,0,.15,0,.23a1.1,1.1,0,0,0,.44.89,2.59,2.59,0,0,1-.89,1.78.44.44,0,0,0,.62.62,3.7,3.7,0,0,0,1.1-1.92,1.89,1.89,0,0,1,.23.87,2.1,2.1,0,0,1-.1.62.44.44,0,0,0,.3.54.25.25,0,0,0,.12,0,.44.44,0,0,0,.43-.32,3.36,3.36,0,0,0,.12-.86,2.7,2.7,0,0,0-.68-1.78,2.58,2.58,0,0,0-.34-.33l0-.21-.07,0a1.6,1.6,0,0,1-.35-.28m-1-.06h-.16l.3-1.78a1,1,0,0,1,.25,0l.23,0a1.09,1.09,0,0,0-.52.87c0,.31-.05.62-.05.93h-.05"/><path class="cls-25" d="M287.85,559.22a1.19,1.19,0,0,1-.26-.23,1.1,1.1,0,0,1-.17-.32,1.16,1.16,0,0,1-.07-.39h0a.28.28,0,0,0-.56,0v0a1.94,1.94,0,0,0,.24.87l.08.12a1.83,1.83,0,0,0,.13.16,1.81,1.81,0,0,0,.33.26h0a2,2,0,0,0,1,.26h0a.28.28,0,0,0,.28-.26.29.29,0,0,0-.27-.29,1.56,1.56,0,0,1-.71-.18"/><path class="cls-23" d="M232.66,532.22h-16V521.71l7.94-5.33,8.06,5.33Z"/><path class="cls-25" d="M221.17,521.74a1,1,0,1,1,.77,1.24,1,1,0,0,1-.77-1.24"/><path class="cls-25" d="M221.32,531.19a.46.46,0,0,0,.46.46.47.47,0,0,0,.46-.46V528.4h.83a15.34,15.34,0,0,0-.35-3.95,3,3,0,0,1-1.12-.05.43.43,0,0,1-.29-.52.42.42,0,0,1,.4-.3.25.25,0,0,1,.12,0h0l.1,0a1.56,1.56,0,0,0,.35,0h.08a.83.83,0,0,0-.67-.42c-1.55,0-1.36,5.17-1.36,5.17h1Z"/><path class="cls-25" d="M221.93,523.71l-.1,0h0a.32.32,0,0,0-.4.22.34.34,0,0,0,.22.41,3,3,0,0,0,.68.08l.4,0a1.91,1.91,0,0,0,.84-.34,2.31,2.31,0,0,0,.89-1.59.32.32,0,1,0-.64-.11,1.66,1.66,0,0,1-.63,1.18,1.44,1.44,0,0,1-.73.24h-.13a1.83,1.83,0,0,1-.37,0"/><path class="cls-25" d="M228,524a.91.91,0,1,1-.91.91A.91.91,0,0,1,228,524"/><path class="cls-25" d="M227.32,527.82a1.46,1.46,0,0,1-.16-.19l-.06-.1a1.84,1.84,0,0,1-.25-.92v0a.37.37,0,0,1,.37-.35h0a.38.38,0,0,1,.36.38,1.2,1.2,0,0,0,.07.37.88.88,0,0,0,.1.22c.08-.44.15-1-.15-1.18l0,0a1.38,1.38,0,0,0-.84-.28h-.21l0-.24-1.18-.2a.24.24,0,0,0-.27.19l-.41,2.44a.24.24,0,0,0,.19.27l1.18.2.07-.41.2,0h0a1.85,1.85,0,0,0,0,.23,1,1,0,0,0,.44.88,2.61,2.61,0,0,1-.89,1.79.44.44,0,1,0,.62.62,3.7,3.7,0,0,0,1.1-1.92,1.75,1.75,0,0,1,.22.87,2.11,2.11,0,0,1-.09.62.44.44,0,0,0,.3.54l.12,0a.44.44,0,0,0,.42-.32,3,3,0,0,0,.13-.86,2.73,2.73,0,0,0-.68-1.79c-.12-.13-.24-.24-.34-.33l0-.21-.07,0a1.64,1.64,0,0,1-.35-.29m-1-.05h-.16l.3-1.79.25,0,.22,0a1.09,1.09,0,0,0-.51.87c0,.31-.05.62-.05.93h0"/><path class="cls-25" d="M228,527.55a.83.83,0,0,1-.26-.23,1.19,1.19,0,0,1-.17-.31,1,1,0,0,1-.07-.4h0a.28.28,0,0,0-.56,0v0a1.76,1.76,0,0,0,.24.87l.08.12.13.17a2.13,2.13,0,0,0,.32.26h0a1.94,1.94,0,0,0,1,.26h0A.27.27,0,0,0,229,528a.27.27,0,0,0-.26-.29,1.51,1.51,0,0,1-.71-.19"/><path class="cls-23" d="M262.37,511.3h-16V500.8l7.94-5.34,8.07,5.34Z"/><path class="cls-25" d="M250.87,500.82a1,1,0,1,1,.78,1.25,1,1,0,0,1-.78-1.25"/><path class="cls-25" d="M251,510.27a.47.47,0,0,0,.93,0v-2.79h.83a15.84,15.84,0,0,0-.35-4,3,3,0,0,1-.43,0,3.45,3.45,0,0,1-.7-.09A.42.42,0,0,1,251,503a.41.41,0,0,1,.4-.3l.11,0h0l.1,0a1.46,1.46,0,0,0,.34,0h.08a.79.79,0,0,0-.66-.41c-1.56,0-1.36,5.16-1.36,5.16h1Z"/><path class="cls-25" d="M251.64,502.79l-.1,0h0a.32.32,0,0,0-.4.22.32.32,0,0,0,.22.4,3,3,0,0,0,.67.08l.4,0a2,2,0,0,0,.84-.33,2.32,2.32,0,0,0,.89-1.6.32.32,0,1,0-.63-.11,1.69,1.69,0,0,1-.63,1.18,1.47,1.47,0,0,1-.73.24H252a1.71,1.71,0,0,1-.36,0"/><path class="cls-25" d="M257.71,503a.91.91,0,1,1-.91.91.91.91,0,0,1,.91-.91"/><path class="cls-25" d="M257,506.9a1.46,1.46,0,0,1-.16-.19l-.06-.1a1.84,1.84,0,0,1-.25-.92v0a.36.36,0,0,1,.36-.35h0a.37.37,0,0,1,.35.38,1.16,1.16,0,0,0,.07.37,1.51,1.51,0,0,0,.11.22c.08-.43.14-1-.15-1.18l0,0a1.39,1.39,0,0,0-.85-.28h-.2l0-.24-1.18-.2a.24.24,0,0,0-.27.19l-.41,2.45a.24.24,0,0,0,.19.27l1.18.19.07-.41a.62.62,0,0,0,.19,0h.06v.23a1.13,1.13,0,0,0,.44.89,2.58,2.58,0,0,1-.88,1.78.42.42,0,0,0,0,.62.44.44,0,0,0,.62,0,3.67,3.67,0,0,0,1.09-1.92,1.75,1.75,0,0,1,.23.87,2.5,2.5,0,0,1-.09.62.43.43,0,0,0,.3.54l.12,0a.45.45,0,0,0,.42-.32,3,3,0,0,0,.13-.86,2.65,2.65,0,0,0-.69-1.78,2,2,0,0,0-.33-.33c0-.07,0-.15,0-.21l-.06,0a1.64,1.64,0,0,1-.35-.29m-1,0h-.16l.3-1.79.25,0,.23,0a1.09,1.09,0,0,0-.52.87c0,.31,0,.62-.05.93h-.05"/><path class="cls-25" d="M257.71,506.63a.82.82,0,0,1-.26-.22,1.29,1.29,0,0,1-.18-.32,1.58,1.58,0,0,1-.07-.4h0a.28.28,0,1,0-.55,0v0a1.76,1.76,0,0,0,.24.87l.07.12a2.09,2.09,0,0,0,.14.17,1.72,1.72,0,0,0,.32.26h0a2,2,0,0,0,1,.26h0a.28.28,0,0,0,.28-.26.27.27,0,0,0-.27-.29,1.36,1.36,0,0,1-.7-.19"/><path class="cls-23" d="M272.47,485.4h-16V474.9l7.94-5.34,8.07,5.34Z"/><path class="cls-25" d="M261,474.92a1,1,0,0,1,1.25-.77,1,1,0,0,1,.77,1.24,1,1,0,0,1-1.24.78,1,1,0,0,1-.78-1.25"/><path class="cls-25" d="M261.12,484.37a.46.46,0,0,0,.46.46.45.45,0,0,0,.46-.46v-2.78h.84a15.91,15.91,0,0,0-.35-4,2,2,0,0,1-.43,0,2.75,2.75,0,0,1-.7-.09.41.41,0,0,1,.12-.81h.14l.09,0a2.69,2.69,0,0,0,.35,0h.08a.8.8,0,0,0-.66-.42c-1.56,0-1.36,5.17-1.36,5.17h1Z"/><path class="cls-25" d="M261.74,476.9l-.1,0h0a.32.32,0,0,0-.4.22.32.32,0,0,0,.22.4,2.17,2.17,0,0,0,.67.09,1.94,1.94,0,0,0,.4,0,2,2,0,0,0,.84-.33,2.31,2.31,0,0,0,.89-1.6.32.32,0,0,0-.26-.37.33.33,0,0,0-.38.27,1.69,1.69,0,0,1-.62,1.17,1.38,1.38,0,0,1-.73.24h-.14a3.05,3.05,0,0,1-.36,0"/><path class="cls-25" d="M267.81,477.15a.91.91,0,1,1-.91.91.91.91,0,0,1,.91-.91"/><path class="cls-25" d="M267.12,481a1.49,1.49,0,0,1-.15-.2.86.86,0,0,1-.07-.1,1.91,1.91,0,0,1-.25-.91v0a.37.37,0,0,1,.37-.36h0a.36.36,0,0,1,.35.38,1.16,1.16,0,0,0,.07.36.76.76,0,0,0,.11.22c.08-.43.14-1-.16-1.17l0,0a1.3,1.3,0,0,0-.84-.29l-.21,0,0-.24-1.17-.2a.23.23,0,0,0-.27.19l-.41,2.44a.22.22,0,0,0,.19.27l1.17.2.07-.41h.25a1.85,1.85,0,0,1,0,.23,1.09,1.09,0,0,0,.44.89,2.53,2.53,0,0,1-.89,1.78.44.44,0,0,0,0,.62.42.42,0,0,0,.62,0,3.7,3.7,0,0,0,1.1-1.92,1.78,1.78,0,0,1,.23.87,2.1,2.1,0,0,1-.1.62.45.45,0,0,0,.31.55h.12a.44.44,0,0,0,.42-.31,3.08,3.08,0,0,0,.12-.87,2.6,2.6,0,0,0-.68-1.78q-.18-.19-.33-.33c0-.07,0-.14,0-.21l-.07,0a1.54,1.54,0,0,1-.35-.28m-1-.06H266l.3-1.78a1.07,1.07,0,0,1,.25,0,.91.91,0,0,1,.23,0,1.06,1.06,0,0,0-.52.87c0,.3-.05.61-.05.92h0"/><path class="cls-25" d="M267.81,480.74a1.25,1.25,0,0,1-.27-.23,1.1,1.1,0,0,1-.17-.32,1.16,1.16,0,0,1-.07-.39h0a.27.27,0,0,0-.27-.28.26.26,0,0,0-.28.26v0a1.94,1.94,0,0,0,.24.87l.08.12a1.83,1.83,0,0,0,.13.16,1.23,1.23,0,0,0,.33.26h0a2.06,2.06,0,0,0,1,.27h0a.28.28,0,0,0,.28-.27.29.29,0,0,0-.27-.29,1.37,1.37,0,0,1-.7-.18"/><path class="cls-23" d="M253.74,441.12h-16V430.61l7.93-5.33,8.07,5.33Z"/><path class="cls-25" d="M242.25,430.64a1,1,0,1,1,.77,1.24,1,1,0,0,1-.77-1.24"/><path class="cls-25" d="M242.4,440.09a.46.46,0,0,0,.46.46.47.47,0,0,0,.46-.46V437.3h.83a15.84,15.84,0,0,0-.35-3.95,2.86,2.86,0,0,1-.42,0,2.67,2.67,0,0,1-.7-.09.41.41,0,0,1-.29-.51.42.42,0,0,1,.4-.3.25.25,0,0,1,.12,0h0l.1,0a1.56,1.56,0,0,0,.35,0h.08a.83.83,0,0,0-.67-.42c-1.55,0-1.36,5.17-1.36,5.17h1Z"/><path class="cls-25" d="M243,432.61l-.1,0h0a.32.32,0,0,0-.4.21.33.33,0,0,0,.22.41,3,3,0,0,0,.68.08l.4,0a1.93,1.93,0,0,0,.83-.33,2.33,2.33,0,0,0,.9-1.6.32.32,0,1,0-.64-.11,1.66,1.66,0,0,1-.63,1.18,1.44,1.44,0,0,1-.73.24h-.13a1.83,1.83,0,0,1-.37,0"/><path class="cls-25" d="M249.09,432.86a.91.91,0,1,1,0,1.82.91.91,0,1,1,0-1.82"/><path class="cls-25" d="M248.4,436.72a1.46,1.46,0,0,1-.16-.19l-.06-.1a1.84,1.84,0,0,1-.25-.92v0a.37.37,0,0,1,.37-.35h0a.38.38,0,0,1,.36.38,1.38,1.38,0,0,0,.06.37,1.51,1.51,0,0,0,.11.22c.08-.44.15-1-.15-1.18l0,0a1.38,1.38,0,0,0-.84-.28h-.21l0-.24-1.18-.2a.24.24,0,0,0-.27.19l-.41,2.44a.23.23,0,0,0,.19.27l1.18.2.07-.41.2,0h.05a1.85,1.85,0,0,0,0,.23,1,1,0,0,0,.44.88,2.61,2.61,0,0,1-.89,1.79.44.44,0,0,0,.62.62,3.77,3.77,0,0,0,1.1-1.92,1.75,1.75,0,0,1,.22.87,2.11,2.11,0,0,1-.09.62.44.44,0,0,0,.3.54l.12,0a.44.44,0,0,0,.42-.32,3,3,0,0,0,.13-.86,2.73,2.73,0,0,0-.68-1.79,3.19,3.19,0,0,0-.34-.32,1.43,1.43,0,0,0,0-.22l-.06,0a1.64,1.64,0,0,1-.35-.29m-1-.05h-.16l.3-1.79.25,0,.22,0a1.09,1.09,0,0,0-.51.87c0,.31,0,.62,0,.93h-.05"/><path class="cls-25" d="M249.08,436.45a.83.83,0,0,1-.26-.23,1,1,0,0,1-.17-.31,1.35,1.35,0,0,1-.08-.4h0a.28.28,0,0,0-.26-.29.29.29,0,0,0-.29.27v0a1.76,1.76,0,0,0,.24.87l.08.12a1,1,0,0,0,.13.17,2.13,2.13,0,0,0,.32.26h0a1.91,1.91,0,0,0,1,.26h0a.27.27,0,0,0,.27-.26.27.27,0,0,0-.26-.29,1.51,1.51,0,0,1-.71-.19"/><rect class="cls-23" x="233.76" y="463.53" width="15.33" height="2.92"/><rect class="cls-23" x="239.96" y="457.33" width="2.92" height="15.33"/><rect class="cls-23" x="904.24" y="572.55" width="15.33" height="2.92"/><rect class="cls-23" x="910.44" y="566.35" width="2.92" height="15.33"/><rect class="cls-23" x="886.8" y="44.43" width="15.33" height="2.92"/><rect class="cls-23" x="893.01" y="38.22" width="2.92" height="15.33"/><rect class="cls-3" y="-2.13" width="1079.23" height="612"/></svg>