<svg xmlns="http://www.w3.org/2000/svg" xmlns:xlink="http://www.w3.org/1999/xlink" viewBox="0 0 1079.5 620.97"><defs><style>.cls-1,.cls-24,.cls-9{fill:none;}.cls-2{clip-path:url(#clip-path);}.cls-3{fill:#195676;}.cls-4{fill:#3c3c3b;}.cls-5{font-size:15px;font-family:Roboto-Bold, Roboto;font-weight:700;}.cls-10,.cls-18,.cls-25,.cls-26,.cls-5{fill:#f8ab37;}.cls-6{letter-spacing:-0.06em;}.cls-7{letter-spacing:0em;}.cls-8{fill:#d8283c;}.cls-9{stroke:#fff;stroke-linecap:round;stroke-linejoin:round;stroke-width:2px;}.cls-10{font-size:8.67px;}.cls-10,.cls-18{font-family:Roboto-Regular, Roboto;}.cls-11{letter-spacing:-0.02em;}.cls-12{letter-spacing:-0.09em;}.cls-13{letter-spacing:0em;}.cls-14{letter-spacing:-0.05em;}.cls-15{letter-spacing:-0.09em;}.cls-16{letter-spacing:-0.09em;}.cls-17{letter-spacing:-0.09em;}.cls-18{font-size:8.4px;}.cls-19{letter-spacing:-0.02em;}.cls-20{letter-spacing:-0.02em;}.cls-21{letter-spacing:-0.09em;}.cls-22{letter-spacing:-0.05em;}.cls-23{letter-spacing:0em;}.cls-24{stroke:#f8ab37;stroke-miterlimit:10;}.cls-26{fill-rule:evenodd;}.cls-27{fill:#121417;}</style><clipPath id="clip-path"><rect class="cls-1" width="1079.23" height="612"/></clipPath></defs><title>mapaRecurso 5</title><g id="Capa_2" data-name="Capa 2"><g id="Capa_1-2" data-name="Capa 1"><g class="cls-2"><rect class="cls-3" y="2.13" width="927.7" height="612"/><path class="cls-4" d="M135.28,584.92a131.63,131.63,0,0,0,7.84-16.8c4.9-12.78,11-28.63,7.1-39.82-1.39-4-2.63-17.68-.54-18.94s4.34,1.38,6,.23c2.4-1.66-1-8.14,1.15-9.69s5.93,4.2,12.92,4.38c5.09.14,5.9-2.81,10.15-2.07,5.34.92,5.34,5.78,10.85,6.92,4.17.86,13.47-7.48,15.92-9,3.84-2.4,7.23.54,11.07-1.39,3.08-1.54,4.16-5.06,5.08-8.07,3.35-11-8.37-29.42-8.54-33.92-.14-3.87,1.73-6.05.23-9s-11.89-2.9-13.84-4.39c-2.27-1.73.09-5.47-2.54-8.53-2-2.32-6.59-9.44-7.84-9.93-1.58-.61-3.91,4.23-5.77,3.7-1.35-.39-3.11-11.19-5.08-18.92-1.73-6.82-1.14-19.35-1.38-27.69-.13-4.39-.77-7.14,1.15-9.46,1.46-1.75,4.14-7.47,5.31-9.69,1.47-2.79,4.21-1.79,5.77-4.15,1.93-2.94-1.44-5.79-.93-12.46.17-2.15.49-6.27,3.23-8.08,1.24-.81,15.52-1.18,16.15-1.84,2.11-2.2-.13-5.9,1.62-7.15s5.89,1,8.54,3.46a184.12,184.12,0,0,0,15.92,12.92c2.85,1.94,2.28,3.11,5.53,6,4.37,3.87,6.28,2.55,9,5.53,3.86,4.22,1.25,8.21,4.62,11.08,3.68,3.13,7.72-.84,12.45,1.84s3,7.94,8.31,16.61c4.77,7.77,7.75,6.11,9.46,11.08,3.46,10.05-8.56,17.33-4.84,26.76,1.91,4.87,5.74,4.53,9,12,.88,2-4,20.43-6.23,30.22-.45,2-1.81,8.15.7,14.08,2.87,6.8,9.45,10.1,14.3,12.23,18.73,8.2,33.44,14.65,56.3,13.38,5.46-.3,23.4-5.59,59.29-16.15,11.52-3.39,18.44-5.52,27.46-9a306.26,306.26,0,0,0,33.68-15.69c38.19-21.33,66.25-56.45,70-61.19,23.6-30,34.2-57.42,41.68-77.23,5.07-13.44,21-58.2,21.11-117.8,0-24.54-2.58-51.51-17.78-76.67-4.51-7.47-14-22.7-25.56-22.23-9.08.37-11.15,10-27.22,18.34-10.77,5.56-26.1,9.86-31.12,4.44-1.09-1.18-2.71-3.92-1.83-5.68s3.95-.85,5.23-2.61c1.67-2.31-2.05-6.11-5.07-15a35.12,35.12,0,0,1-2.31-9.71c-.49-7.49,2.25-12.75.65-13.63-1.24-.68-2.83,2.46-5.72,2.1-1.27-.16-1.75-.86-6.46-5.69-2.85-2.92-3.09-3.09-3.38-3.84-1.42-3.64,1.07-7.76,1.67-8.68,2.55-4,5.38-3.64,6.48-7,.59-1.84.66-4.73-.93-6.34-1.81-1.83-4.42-.61-12.14-.58-5.41,0-8.13,0-9.38-1.54s-.27-3.46,1.23-11.06c1.61-8.15,1.46-11.42,3.54-12.15,1.88-.66,3.09,1.62,6.15.92,1.93-.44,2.12-1.5,4.61-2.15s3.72.06,4.15-.61c.71-1.11-1.57-4.65-4.92-6.92-5.88-4-11.3-1.54-13.24-4.8-1.16-2,.29-3.69.63-7.35.33-3.47,1.92-2.26-2.78-8.69,155,1.2,453.08-1.21,608.12,0,.81,207.92-.57,404.07.24,612-269.22-.8-681.57,7.58-950.79,6.78l6.6-36"/><rect class="cls-1" x="244.22" width="792" height="612"/><text class="cls-5" transform="translate(398.62 546.83)">LONCURA</text><text class="cls-5" transform="translate(613.69 85.52)">PUCHUNC<tspan class="cls-6" x="70.24" y="0">A</tspan><tspan class="cls-7" x="79.42" y="0">VÍ</tspan></text><text class="cls-5" transform="translate(192.59 402.6)">QUINTERO</text><text class="cls-5" transform="translate(350.18 232.49)">BAHÍA DE</text><text class="cls-5" transform="translate(350.18 250.49)">QUINTERO</text><path class="cls-8" d="M599.73,156.71a124.65,124.65,0,0,1,20.76,5.88c7.92,3,14.18,5.39,20.2,10.22,3.92,3.13,11.94,10.67,16.35,25.42l-2.73,16.34-38.81.23q.11-6.93.22-13.85l-9.22-.45a157.29,157.29,0,0,0-6.77-43.79"/><path class="cls-9" d="M599.73,156.71a124.65,124.65,0,0,1,20.76,5.88c7.92,3,14.18,5.39,20.2,10.22,3.92,3.13,11.94,10.67,16.35,25.42l-2.73,16.34-38.81.23q.11-6.93.22-13.85l-9.22-.45a157.29,157.29,0,0,0-6.77-43.79Z"/><path class="cls-8" d="M657,198.23c2.23-.17,5.53-.39,9.53-.5,10.22-.28,15.4-.38,19,1.68,1.8,1,6,4,8.17,12.26l-90.79,46.9q1.21-19.77,2.42-39.54l-76.54-.25c.1-1.32.21-2.64.31-4l76.51-.22q.42-7,.86-14.1l9.22.45q-.11,6.93-.22,13.85l38.81-.23L657,198.23"/><path class="cls-9" d="M657,198.23c2.23-.17,5.53-.39,9.53-.5,10.22-.28,15.4-.38,19,1.68,1.8,1,6,4,8.17,12.26l-90.79,46.9q1.21-19.77,2.42-39.54l-76.54-.25c.1-1.32.21-2.64.31-4l76.51-.22q.42-7,.86-14.1l9.22.45q-.11,6.93-.22,13.85l38.81-.23Z"/><path class="cls-8" d="M648.41,235.08c.52,3.37,1,6.73,1.55,10.09L699.37,221q-2.82-4.68-5.65-9.34l-45.31,23.41"/><path class="cls-9" d="M648.41,235.08c.52,3.37,1,6.73,1.55,10.09L699.37,221q-2.82-4.68-5.65-9.34Z"/><path class="cls-8" d="M650,245.17q2.63,5.85,5.24,11.68l30.61-10.2-9.9-14.17L650,245.17"/><path class="cls-9" d="M650,245.17q2.63,5.85,5.24,11.68l30.61-10.2-9.9-14.17Z"/><path class="cls-8" d="M685.81,246.65l28.9-12A57.06,57.06,0,0,1,699.37,221l-23.46,11.47Z"/><path class="cls-9" d="M685.81,246.65l28.9-12A57.06,57.06,0,0,1,699.37,221l-23.46,11.47Z"/><path class="cls-8" d="M586.5,324.39c3.27-9.06,6.44-19.06,9.25-30a334.18,334.18,0,0,0,7.19-35.86l45.46-23.49L650,245.17q2.63,5.85,5.24,11.68,1.69,5.22,3.41,10.44l34.81,3c.76.48,6.34,4.07,5.86,8.2-.23,2-1.78,3.69-3.6,5.73-2.72,3-4,4.19-4,4.19-1.23,1.12-2,1.66-2,2.57,0,1.17,1.19,1.59,1.47,3.16a4.72,4.72,0,0,1-.44,2.57,16.39,16.39,0,0,1-4.7,6.53c-1.75,1.55-2.63,2.43-4.19,2.87a8.49,8.49,0,0,1-4.36-.07,97.44,97.44,0,0,0-11.17-1.74c-4.23,2-7.7,3.87-10.29,5.33-9.18,5.22-7.38,5.46-15.13,9.8-4.06,2.27-6.6,3.35-8.43,6.45a20.85,20.85,0,0,0-2.11,5.83,20,20,0,0,0-.62,6.69,17,17,0,0,0,4.22,9.3c-3,2.77-6.15,5.86-9.3,9.3-2,2.19-3.86,4.35-5.58,6.45q-9.44-17.79-18.85-35.59l-13.75-3.48"/><path class="cls-9" d="M586.5,324.39c3.27-9.06,6.44-19.06,9.25-30a334.18,334.18,0,0,0,7.19-35.86l45.46-23.49L650,245.17q2.63,5.85,5.24,11.68,1.69,5.22,3.41,10.44l34.81,3c.76.48,6.34,4.07,5.86,8.2-.23,2-1.78,3.69-3.6,5.73-2.72,3-4,4.19-4,4.19-1.23,1.12-2,1.66-2,2.57,0,1.17,1.19,1.59,1.47,3.16a4.72,4.72,0,0,1-.44,2.57,16.39,16.39,0,0,1-4.7,6.53c-1.75,1.55-2.63,2.43-4.19,2.87a8.49,8.49,0,0,1-4.36-.07,97.44,97.44,0,0,0-11.17-1.74c-4.23,2-7.7,3.87-10.29,5.33-9.18,5.22-7.38,5.46-15.13,9.8-4.06,2.27-6.6,3.35-8.43,6.45a20.85,20.85,0,0,0-2.11,5.83,20,20,0,0,0-.62,6.69,17,17,0,0,0,4.22,9.3c-3,2.77-6.15,5.86-9.3,9.3-2,2.19-3.86,4.35-5.58,6.45q-9.44-17.79-18.85-35.59Z"/><path class="cls-8" d="M586.5,324.39l-7,18L540.6,312.3,525.16,306c-.29,1.1-.59,2.19-.89,3.28L539.09,316l38.82,30.11q-1.45,3.32-3,6.68c-4.57,9.84-9.42,19-14.39,27.51l42.15,8.92a69,69,0,0,1,16.44-25.79q-9.44-17.79-18.85-35.59l-13.75-3.48"/><path class="cls-9" d="M586.5,324.39l-7,18L540.6,312.3,525.16,306c-.29,1.1-.59,2.19-.89,3.28L539.09,316l38.82,30.11q-1.45,3.32-3,6.68c-4.57,9.84-9.42,19-14.39,27.51l42.15,8.92a69,69,0,0,1,16.44-25.79q-9.44-17.79-18.85-35.59Z"/><path class="cls-8" d="M602.66,389.25A78.6,78.6,0,0,1,615,367.94c1.86-2.28,4-4.64,6.66-7.49,5-5.44,9.33-9.77,12.36-12.74,1.52,2.07,3.62,5,5.92,8.75,3.83,6.19,5.75,9.29,6.48,12.84.84,4.12.16,7.58-1.18,14.49a94.76,94.76,0,0,1-3.18,12l-39.36-6.56"/><path class="cls-9" d="M602.66,389.25A78.6,78.6,0,0,1,615,367.94c1.86-2.28,4-4.64,6.66-7.49,5-5.44,9.33-9.77,12.36-12.74,1.52,2.07,3.62,5,5.92,8.75,3.83,6.19,5.75,9.29,6.48,12.84.84,4.12.16,7.58-1.18,14.49a94.76,94.76,0,0,1-3.18,12Z"/><path class="cls-8" d="M547.28,399.84l13.23-19.51,42.15,8.92L642,395.81,620.3,499.28l-40,48.13L532,488.71q5.67-17.65,11.33-35.31l47,52.11,22.28-19.64-2.64-10.38c-10.08-10.49-20.47-22-31-34.55-11.81-14.14-22.33-27.93-31.68-41.1"/><path class="cls-9" d="M547.28,399.84l13.23-19.51,42.15,8.92L642,395.81,620.3,499.28l-40,48.13L532,488.71q5.67-17.65,11.33-35.31l47,52.11,22.28-19.64-2.64-10.38c-10.08-10.49-20.47-22-31-34.55C567.15,426.8,556.63,413,547.28,399.84Z"/><path class="cls-8" d="M543.28,453.4l-23.53-22.74a237.12,237.12,0,0,1-18.47,16.24,239.65,239.65,0,0,1-19.67,14L503.84,488l33.09,14.58,3.83-3.14q-4.39-5.36-8.81-10.7,5.67-17.65,11.33-35.31"/><path class="cls-9" d="M543.28,453.4l-23.53-22.74a237.12,237.12,0,0,1-18.47,16.24,239.65,239.65,0,0,1-19.67,14L503.84,488l33.09,14.58,3.83-3.14q-4.39-5.36-8.81-10.7Q537.62,471.06,543.28,453.4Z"/><path class="cls-8" d="M519.75,430.66l23.53,22.74,47,52.11,22.28-19.64-2.64-10.38c-10.08-10.49-20.47-22-31-34.55-11.81-14.14-22.33-27.93-31.68-41.1l-21.65,24.24L416.76,345.54,414,348.86l108.54,78.65-2.81,3.15"/><path class="cls-9" d="M519.75,430.66l23.53,22.74,47,52.11,22.28-19.64-2.64-10.38c-10.08-10.49-20.47-22-31-34.55-11.81-14.14-22.33-27.93-31.68-41.1l-21.65,24.24L416.76,345.54,414,348.86l108.54,78.65Z"/><path class="cls-8" d="M580.28,547.41l19.11,19.05,18.87-25.07-19.5-16.2-18.48,22.22"/><path class="cls-9" d="M580.28,547.41l19.11,19.05,18.87-25.07-19.5-16.2Z"/><path class="cls-8" d="M864.32,273.18v19.27l18.4,7.3,4.08-20.15-22.48-6.42"/><path class="cls-9" d="M864.32,273.18v19.27l18.4,7.3,4.08-20.15Z"/><rect class="cls-8" x="719.23" y="167.88" width="9.63" height="19.92"/><rect class="cls-9" x="719.23" y="167.88" width="9.63" height="19.92"/><rect class="cls-8" x="728.85" y="157.92" width="9.63" height="19.92"/><rect class="cls-9" x="728.85" y="157.92" width="9.63" height="19.92"/><rect class="cls-1" x="244.22" width="792" height="612"/><text class="cls-10" transform="translate(505.75 185.76)">TERMOELÉCTRICAS</text><text class="cls-10" transform="translate(539.13 196.16)">AES GENER</text><text class="cls-10" transform="translate(504.47 239.75)">PUE<tspan class="cls-11" x="16.02" y="0">R</tspan><tspan x="21.2" y="0">TO VEN</tspan><tspan class="cls-12" x="51.1" y="0">T</tspan><tspan class="cls-13" x="55.47" y="0">ANAS</tspan></text><text class="cls-10" transform="translate(754.1 166.43)">TERMINAL DE </text><text class="cls-10" transform="translate(754.1 176.83)">AS<tspan class="cls-14" x="10.8" y="0">F</tspan><tspan class="cls-13" x="15.12" y="0">A</tspan><tspan class="cls-12" x="20.78" y="0">L</tspan><tspan x="24.64" y="0">TOS CORDEX</tspan></text><text class="cls-10" transform="translate(718.15 227.2)">C<tspan class="cls-15" x="5.64" y="0">A</tspan><tspan class="cls-16" x="10.5" y="0">T</tspan><tspan x="14.88" y="0">AMOTUM</tspan></text><text class="cls-10" transform="translate(718.15 217.67)">ACOPIO DE CARBÓN</text><text class="cls-10" transform="translate(691.84 251.41)">MOLIENDA DE CEMENTO</text><text class="cls-10" transform="translate(691.84 261.81)">MELÓN S.A.</text><text class="cls-10" transform="translate(658.64 381.42)">PLAN<tspan class="cls-17" x="21.97" y="0">T</tspan><tspan x="26.35" y="0">A</tspan></text><text class="cls-10" transform="translate(658.64 391.82)">GASMAR</text><text class="cls-10" transform="translate(642.91 442.45)">TERMINAL MARÍTIMO</text><text class="cls-10" transform="translate(642.91 452.85)">ENAP</text><text class="cls-10" transform="translate(628.33 546.82)">CENTRAL TERMOELÉCTRICA</text><text class="cls-10" transform="translate(628.33 557.22)">ENEL</text><text class="cls-18" transform="translate(926.66 513.03)">Escuelas, colegios y/o</text><text class="cls-18" transform="translate(926.66 523.11)">ja<tspan class="cls-19" x="6.58" y="0">r</tspan><tspan x="9.27" y="0">dines infantiles</tspan></text><text class="cls-18" transform="translate(926.66 540.71)">Caleta</text><text class="cls-18" transform="translate(926.66 559.6)">Cent<tspan class="cls-20" x="17.3" y="0">r</tspan><tspan x="20" y="0">o de Salud</tspan></text><text class="cls-10" transform="translate(479.13 280.73)">FUNDICIÓN Y REFINERÍA</text><text class="cls-10" transform="translate(477.53 291.14)">VEN<tspan class="cls-21" x="16.62" y="0">T</tspan><tspan x="21" y="0">ANAS DE CODELCO</tspan></text><text class="cls-10" transform="translate(812.07 282.74)">MINERA</text><text class="cls-10" transform="translate(771.33 293.14)">MONTECARMELO</text><text class="cls-10" transform="translate(467.16 360.78)">TERMINAL MARÍTIMO</text><text class="cls-10" transform="translate(515.2 371.18)">OXIQIUM</text><text class="cls-10" transform="translate(370.27 399.86)">TERMINAL MARÍTIMO</text><text class="cls-10" transform="translate(392.17 410.27)">GNL QUINTERO</text><text class="cls-10" transform="translate(248.44 343.09)">EMISARIO SUBMARINO</text><text class="cls-10" transform="translate(248.44 353.5)">ES<tspan class="cls-22" x="10.07" y="0">V</tspan><tspan class="cls-23" x="15.19" y="0">AL</tspan></text><text class="cls-10" transform="translate(402.27 439.45)">TERMINAL MARÍTIMO</text><text class="cls-10" transform="translate(456.27 449.86)">COPEC</text><line class="cls-24" x1="589.72" y1="185.76" x2="610.62" y2="185.76"/><path class="cls-25" d="M610.52,187.64a1.88,1.88,0,1,0-1.88-1.88,1.88,1.88,0,0,0,1.88,1.88"/><line class="cls-24" x1="750.98" y1="168.28" x2="733.2" y2="168.28"/><path class="cls-25" d="M733.29,166.4a1.88,1.88,0,1,0,1.88,1.88,1.88,1.88,0,0,0-1.88-1.88"/><line class="cls-24" x1="714.71" y1="217.67" x2="693.62" y2="217.67"/><path class="cls-25" d="M693.72,215.79a1.88,1.88,0,1,0,1.88,1.88,1.88,1.88,0,0,0-1.88-1.88"/><line class="cls-24" x1="689.53" y1="248.27" x2="670.74" y2="248.27"/><path class="cls-25" d="M670.84,246.39a1.88,1.88,0,1,0,1.88,1.88,1.88,1.88,0,0,0-1.88-1.88"/><line class="cls-24" x1="657.03" y1="377.82" x2="638.25" y2="377.82"/><path class="cls-25" d="M638.34,375.94a1.88,1.88,0,1,0,1.88,1.88,1.88,1.88,0,0,0-1.88-1.88"/><line class="cls-24" x1="244.15" y1="343.1" x2="225.37" y2="343.1"/><path class="cls-25" d="M225.46,341.22a1.88,1.88,0,1,0,1.88,1.88,1.88,1.88,0,0,0-1.88-1.88"/><line class="cls-24" x1="639.62" y1="443.82" x2="620.84" y2="443.82"/><path class="cls-25" d="M620.93,441.94a1.88,1.88,0,1,0,1.88,1.88,1.88,1.88,0,0,0-1.88-1.88"/><line class="cls-24" x1="624.7" y1="549.41" x2="605.92" y2="549.41"/><path class="cls-25" d="M606,547.53a1.88,1.88,0,1,0,1.88,1.88,1.88,1.88,0,0,0-1.88-1.88"/><line class="cls-24" x1="591.92" y1="236.09" x2="612.81" y2="236.09"/><path class="cls-25" d="M612.72,238a1.88,1.88,0,1,0-1.88-1.88,1.88,1.88,0,0,0,1.88,1.88"/><line class="cls-24" x1="850.33" y1="284.68" x2="871.23" y2="284.68"/><path class="cls-25" d="M871.13,286.56a1.88,1.88,0,1,0-1.88-1.88,1.88,1.88,0,0,0,1.88,1.88"/><line class="cls-24" x1="586.5" y1="283.73" x2="607.4" y2="283.73"/><path class="cls-25" d="M607.3,285.61a1.88,1.88,0,1,0-1.88-1.88,1.88,1.88,0,0,0,1.88,1.88"/><line class="cls-24" x1="560.34" y1="363.77" x2="581.24" y2="363.77"/><path class="cls-25" d="M581.15,365.65a1.88,1.88,0,1,0-1.88-1.88,1.88,1.88,0,0,0,1.88,1.88"/><line class="cls-24" x1="465.21" y1="397.86" x2="486.1" y2="397.86"/><path class="cls-25" d="M486,399.74a1.88,1.88,0,1,0-1.88-1.88,1.88,1.88,0,0,0,1.88,1.88"/><line class="cls-24" x1="493.12" y1="442.46" x2="514.02" y2="442.46"/><path class="cls-25" d="M513.92,444.34a1.88,1.88,0,1,0-1.88-1.88,1.88,1.88,0,0,0,1.88,1.88"/><rect class="cls-1" x="244.22" width="792" height="612"/><path class="cls-26" d="M427.15,487.53a4.49,4.49,0,0,1,2,3.72,6,6,0,0,1-4.94-2.43,8.57,8.57,0,0,1-6.83,3.21c-4-.32-6.07-2.09-7.39-4.5,1.32-2.38,3.43-4.16,7.39-4.5a8.61,8.61,0,0,1,6.83,3.24,6.12,6.12,0,0,1,4.94-2.46,4.49,4.49,0,0,1-2,3.72"/><path class="cls-26" d="M920,536.71a4.47,4.47,0,0,1,2,3.72,6,6,0,0,1-4.94-2.43,8.54,8.54,0,0,1-6.83,3.21c-4-.32-6.07-2.09-7.38-4.5,1.31-2.38,3.42-4.15,7.38-4.49a8.56,8.56,0,0,1,6.83,3.23A6.13,6.13,0,0,1,922,533a4.46,4.46,0,0,1-2,3.72"/><path class="cls-26" d="M300.1,492a4.44,4.44,0,0,1,2,3.71,6,6,0,0,1-4.93-2.43,8.54,8.54,0,0,1-6.83,3.21c-4-.31-6.08-2.09-7.39-4.49,1.31-2.39,3.43-4.16,7.39-4.5a8.56,8.56,0,0,1,6.83,3.23,6.09,6.09,0,0,1,4.93-2.45,4.46,4.46,0,0,1-2,3.72"/><path class="cls-26" d="M292.15,436.31a4.49,4.49,0,0,1,2,3.72,6,6,0,0,1-4.94-2.43,8.54,8.54,0,0,1-6.83,3.21c-4-.32-6.07-2.09-7.39-4.5,1.32-2.38,3.43-4.15,7.39-4.49a8.56,8.56,0,0,1,6.83,3.23,6.12,6.12,0,0,1,4.94-2.46,4.48,4.48,0,0,1-2,3.72"/><path class="cls-25" d="M258.06,583.61h-16V573.1l7.94-5.33,8.07,5.33Z"/><path class="cls-27" d="M246.56,573.12a1,1,0,1,1,.78,1.25,1,1,0,0,1-.78-1.25"/><path class="cls-27" d="M246.71,582.57a.47.47,0,0,0,.46.47.46.46,0,0,0,.46-.47v-2.78h.84a15.84,15.84,0,0,0-.35-3.95,3,3,0,0,1-.43,0,2.67,2.67,0,0,1-.7-.09.41.41,0,0,1,.11-.81h.15l.09,0a2.53,2.53,0,0,0,.35,0h.08a.8.8,0,0,0-.66-.42c-1.56,0-1.36,5.17-1.36,5.17h1Z"/><path class="cls-27" d="M247.33,575.1l-.11,0h0a.33.33,0,0,0-.41.22.32.32,0,0,0,.22.4,2.34,2.34,0,0,0,.68.09l.4,0a2,2,0,0,0,.84-.34,2.31,2.31,0,0,0,.89-1.59.33.33,0,0,0-.26-.38.34.34,0,0,0-.38.27,1.72,1.72,0,0,1-.62,1.18,1.47,1.47,0,0,1-.73.24h-.14a1.73,1.73,0,0,1-.36,0"/><path class="cls-27" d="M253.4,575.35a.91.91,0,1,1-.91.91.91.91,0,0,1,.91-.91"/><path class="cls-27" d="M252.71,579.21a.9.9,0,0,1-.15-.19.61.61,0,0,1-.07-.1,2,2,0,0,1-.25-.92v0a.37.37,0,0,1,.37-.35h0a.37.37,0,0,1,.35.38,1.24,1.24,0,0,0,.07.37.91.91,0,0,0,.11.22c.07-.44.14-1-.16-1.18l0,0a1.38,1.38,0,0,0-.84-.28h-.21l0-.24-1.18-.2a.23.23,0,0,0-.26.19l-.42,2.44a.24.24,0,0,0,.19.27l1.18.2.07-.41.2,0h.05c0,.07,0,.15,0,.23a1.06,1.06,0,0,0,.44.88,2.61,2.61,0,0,1-.89,1.79.44.44,0,0,0,.62.62,3.74,3.74,0,0,0,1.1-1.92,1.86,1.86,0,0,1,.23.87,2.15,2.15,0,0,1-.1.62.45.45,0,0,0,.3.54l.12,0a.45.45,0,0,0,.43-.32,3.42,3.42,0,0,0,.12-.86,2.73,2.73,0,0,0-.68-1.79,3.44,3.44,0,0,0-.34-.33l0-.21-.07,0a1.64,1.64,0,0,1-.35-.29m-1-.05-.16,0,.3-1.78.25,0a.93.93,0,0,1,.23,0,1.05,1.05,0,0,0-.52.87c0,.31,0,.62,0,.93h-.05"/><path class="cls-27" d="M253.39,578.94a1,1,0,0,1-.26-.23,1.19,1.19,0,0,1-.17-.31,1.24,1.24,0,0,1-.07-.4h0a.29.29,0,0,0-.27-.29.28.28,0,0,0-.29.27v0a1.91,1.91,0,0,0,.24.87l.08.12a1,1,0,0,0,.13.16,1.49,1.49,0,0,0,.33.27h0a2.06,2.06,0,0,0,1,.26h0a.28.28,0,0,0,.28-.27.28.28,0,0,0-.27-.28,1.55,1.55,0,0,1-.71-.19"/><path class="cls-25" d="M489.61,577.08h-16v-10.5l7.94-5.34,8.07,5.34Z"/><path class="cls-27" d="M478.11,566.6a1,1,0,1,1,.78,1.25,1,1,0,0,1-.78-1.25"/><path class="cls-27" d="M478.26,576.05a.47.47,0,0,0,.93,0v-2.79H480a15.84,15.84,0,0,0-.35-4,3,3,0,0,1-.43,0,2.83,2.83,0,0,1-.7-.09.42.42,0,0,1,.12-.82l.11,0h0l.09,0,.35,0h.08a.79.79,0,0,0-.66-.41c-1.56,0-1.36,5.16-1.36,5.16h1Z"/><path class="cls-27" d="M478.88,568.58l-.1,0h0a.32.32,0,0,0-.18.62,3,3,0,0,0,.67.08l.4,0a2,2,0,0,0,.84-.33,2.32,2.32,0,0,0,.89-1.6.32.32,0,0,0-.26-.37.33.33,0,0,0-.38.26,1.69,1.69,0,0,1-.62,1.18,1.38,1.38,0,0,1-.73.24h-.14a3.05,3.05,0,0,1-.36,0"/><path class="cls-27" d="M485,568.83a.91.91,0,1,1,0,1.82.91.91,0,0,1,0-1.82"/><path class="cls-27" d="M484.26,572.69l-.15-.2a.86.86,0,0,1-.07-.1,2.07,2.07,0,0,1-.25-.91v0a.37.37,0,0,1,.37-.35h0a.37.37,0,0,1,.35.38,1.16,1.16,0,0,0,.07.37,1.51,1.51,0,0,0,.11.22c.08-.43.14-1-.15-1.18l0,0a1.39,1.39,0,0,0-.85-.28l-.21,0,0-.25-1.18-.2a.24.24,0,0,0-.27.2l-.41,2.44a.23.23,0,0,0,.19.27l1.17.19.07-.4h.26v.23a1.13,1.13,0,0,0,.44.89,2.56,2.56,0,0,1-.89,1.78.44.44,0,0,0,.62.62,3.7,3.7,0,0,0,1.1-1.92,1.75,1.75,0,0,1,.23.87,2.5,2.5,0,0,1-.09.62.43.43,0,0,0,.3.54l.12,0a.45.45,0,0,0,.42-.32,3,3,0,0,0,.13-.86,2.65,2.65,0,0,0-.69-1.78,2,2,0,0,0-.33-.33c0-.07,0-.14,0-.21l-.07,0a1.87,1.87,0,0,1-.35-.28m-1-.06h-.16l.3-1.79.25,0,.23,0a1.09,1.09,0,0,0-.52.87c0,.31,0,.62,0,.93h-.05"/><path class="cls-27" d="M485,572.41a.82.82,0,0,1-.26-.22,1.14,1.14,0,0,1-.18-.32,1.58,1.58,0,0,1-.07-.4h0a.28.28,0,1,0-.55,0v0a1.83,1.83,0,0,0,.23.87l.08.12a2.09,2.09,0,0,0,.14.17,1.72,1.72,0,0,0,.32.26h0a2,2,0,0,0,1,.26h0a.28.28,0,1,0,0-.55,1.36,1.36,0,0,1-.7-.19"/><path class="cls-25" d="M920.65,522.14h-16V511.63l7.94-5.33,8.06,5.33Z"/><path class="cls-27" d="M909.16,511.66a1,1,0,1,1,.77,1.24,1,1,0,0,1-.77-1.24"/><path class="cls-27" d="M909.31,521.11a.46.46,0,0,0,.46.46.47.47,0,0,0,.46-.46v-2.79h.83a15.34,15.34,0,0,0-.35-4,3,3,0,0,1-1.12,0,.43.43,0,0,1-.29-.52.42.42,0,0,1,.4-.3.25.25,0,0,1,.12,0h0l.1,0a1.56,1.56,0,0,0,.35,0h.08a.81.81,0,0,0-.67-.42c-1.55,0-1.36,5.17-1.36,5.17h1Z"/><path class="cls-27" d="M909.92,513.63l-.1,0h0a.32.32,0,0,0-.4.22.33.33,0,0,0,.22.41,3,3,0,0,0,.68.08l.4,0a1.91,1.91,0,0,0,.84-.34,2.31,2.31,0,0,0,.89-1.59.32.32,0,1,0-.64-.11,1.66,1.66,0,0,1-.63,1.18,1.44,1.44,0,0,1-.73.24h-.13a1.83,1.83,0,0,1-.37,0"/><path class="cls-27" d="M916,513.88a.91.91,0,1,1-.91.91.91.91,0,0,1,.91-.91"/><path class="cls-27" d="M915.31,517.74a1.46,1.46,0,0,1-.16-.19l-.06-.1a1.84,1.84,0,0,1-.25-.92v0a.37.37,0,0,1,.37-.35h0a.38.38,0,0,1,.36.38,1.2,1.2,0,0,0,.07.37.88.88,0,0,0,.1.22c.08-.44.15-1-.15-1.18l0,0a1.38,1.38,0,0,0-.84-.28h-.21l0-.24-1.18-.2a.24.24,0,0,0-.27.19l-.41,2.44a.24.24,0,0,0,.19.27l1.18.2.07-.41.2,0h0a1.85,1.85,0,0,0,0,.23,1,1,0,0,0,.44.88,2.61,2.61,0,0,1-.89,1.79.44.44,0,1,0,.62.62,3.77,3.77,0,0,0,1.1-1.92,1.75,1.75,0,0,1,.22.87,2.11,2.11,0,0,1-.09.62.44.44,0,0,0,.3.54l.12,0a.44.44,0,0,0,.42-.32,3,3,0,0,0,.13-.86,2.73,2.73,0,0,0-.68-1.79c-.12-.13-.24-.24-.34-.33l0-.21-.07,0a1.64,1.64,0,0,1-.35-.29m-1,0h-.16l.3-1.79.25,0,.22,0a1.09,1.09,0,0,0-.51.87c0,.31-.05.62-.05.93h0"/><path class="cls-27" d="M916,517.47a.83.83,0,0,1-.26-.23,1.19,1.19,0,0,1-.17-.31,1,1,0,0,1-.07-.4h0a.28.28,0,0,0-.56,0v0a1.76,1.76,0,0,0,.24.87l.08.12.13.17a1.81,1.81,0,0,0,.33.26h0a2,2,0,0,0,1,.26h0A.27.27,0,0,0,917,518a.27.27,0,0,0-.26-.29,1.51,1.51,0,0,1-.71-.19"/><path class="cls-25" d="M866.34,71.52h-16V61l7.94-5.33L866.34,61Z"/><path class="cls-27" d="M854.84,61a1,1,0,1,1,.78,1.25,1,1,0,0,1-.78-1.25"/><path class="cls-27" d="M855,70.48a.47.47,0,1,0,.93,0V67.7h.83a15.84,15.84,0,0,0-.35-4,3,3,0,0,1-.43,0,2.83,2.83,0,0,1-.7-.09.41.41,0,0,1,.12-.81.2.2,0,0,1,.11,0h0l.1,0a2.36,2.36,0,0,0,.34,0h.08a.8.8,0,0,0-.66-.42c-1.56,0-1.36,5.17-1.36,5.17h1Z"/><path class="cls-27" d="M855.61,63l-.1,0h0a.32.32,0,1,0-.18.62,2.24,2.24,0,0,0,.67.09l.4,0a2,2,0,0,0,.84-.34,2.28,2.28,0,0,0,.89-1.6.32.32,0,0,0-.26-.37.32.32,0,0,0-.37.27,1.72,1.72,0,0,1-.63,1.18,1.47,1.47,0,0,1-.73.24H856a1.79,1.79,0,0,1-.36,0"/><path class="cls-27" d="M861.68,63.26a.91.91,0,1,1-.91.91.91.91,0,0,1,.91-.91"/><path class="cls-27" d="M861,67.12a1.46,1.46,0,0,1-.16-.19.36.36,0,0,0-.07-.1,2.11,2.11,0,0,1-.25-.92s0,0,0,0a.36.36,0,0,1,.36-.35h0a.37.37,0,0,1,.35.38,1.24,1.24,0,0,0,.07.37,1.51,1.51,0,0,0,.11.22c.08-.44.14-1-.15-1.18,0,0,0,0,0,0a1.39,1.39,0,0,0-.85-.28h-.2l0-.24-1.18-.2a.23.23,0,0,0-.27.19l-.41,2.44a.23.23,0,0,0,.19.27l1.18.2.07-.41.19,0h.06v.22a1.11,1.11,0,0,0,.44.89,2.57,2.57,0,0,1-.89,1.79.44.44,0,0,0,0,.62.45.45,0,0,0,.63,0,3.78,3.78,0,0,0,1.09-1.92,1.75,1.75,0,0,1,.23.87,2.5,2.5,0,0,1-.09.62.43.43,0,0,0,.3.54l.12,0a.45.45,0,0,0,.42-.32,3,3,0,0,0,.13-.86,2.68,2.68,0,0,0-.69-1.79,3.42,3.42,0,0,0-.33-.33c0-.07,0-.14,0-.21l-.06,0a1.64,1.64,0,0,1-.35-.29m-1-.05-.16,0,.3-1.78.25,0a.9.9,0,0,1,.23,0,1.06,1.06,0,0,0-.52.87c0,.31,0,.61,0,.92H860"/><path class="cls-27" d="M861.68,66.85a.73.73,0,0,1-.26-.23,1.24,1.24,0,0,1-.18-.31,1.58,1.58,0,0,1-.07-.4h0a.27.27,0,0,0-.26-.29.27.27,0,0,0-.29.27v0a1.83,1.83,0,0,0,.23.87l.08.12a1.07,1.07,0,0,0,.14.16,1.43,1.43,0,0,0,.32.27h0a2.06,2.06,0,0,0,1,.26h0a.28.28,0,0,0,.28-.27.27.27,0,0,0-.27-.28,1.47,1.47,0,0,1-.7-.19"/><path class="cls-25" d="M796.41,87.36h-16V76.85l7.93-5.33,8.07,5.33Z"/><path class="cls-27" d="M784.92,76.87a1,1,0,1,1,.77,1.25,1,1,0,0,1-.77-1.25"/><path class="cls-27" d="M785.07,86.32a.46.46,0,0,0,.46.47.47.47,0,0,0,.46-.47V83.54h.84a15.54,15.54,0,0,0-.36-4,2.77,2.77,0,0,1-.42,0,2.67,2.67,0,0,1-.7-.09.42.42,0,0,1-.29-.51.43.43,0,0,1,.4-.3.25.25,0,0,1,.12,0h0l.1,0a2.53,2.53,0,0,0,.35,0h.08a.81.81,0,0,0-.67-.42c-1.55,0-1.36,5.17-1.36,5.17h1Z"/><path class="cls-27" d="M785.68,78.85l-.1,0s0,0,0,0h0a.32.32,0,0,0-.18.62h0a2.27,2.27,0,0,0,.68.09l.4,0a2,2,0,0,0,.84-.34,2.31,2.31,0,0,0,.89-1.59.33.33,0,0,0-.27-.38.32.32,0,0,0-.37.27,1.68,1.68,0,0,1-.63,1.18,1.44,1.44,0,0,1-.73.24h-.13a1.83,1.83,0,0,1-.37,0"/><path class="cls-27" d="M791.76,79.1a.91.91,0,1,1-.91.91.91.91,0,0,1,.91-.91"/><path class="cls-27" d="M791.07,83a1.46,1.46,0,0,1-.16-.19l-.06-.1a1.87,1.87,0,0,1-.25-.92v0a.37.37,0,0,1,.37-.35h0a.38.38,0,0,1,.36.38,1.24,1.24,0,0,0,.07.37.88.88,0,0,0,.1.22c.08-.44.15-1-.15-1.18l0,0a1.38,1.38,0,0,0-.84-.28h-.21l0-.24-1.18-.2a.24.24,0,0,0-.27.19l-.41,2.44a.24.24,0,0,0,.19.27l1.18.2.07-.41.2,0h0a1.62,1.62,0,0,0,0,.22,1,1,0,0,0,.44.89,2.61,2.61,0,0,1-.89,1.79.44.44,0,1,0,.62.62,3.74,3.74,0,0,0,1.1-1.92,1.75,1.75,0,0,1,.22.87,2.11,2.11,0,0,1-.09.62.44.44,0,0,0,.3.54l.12,0a.44.44,0,0,0,.42-.32,3,3,0,0,0,.13-.86,2.73,2.73,0,0,0-.68-1.79c-.12-.13-.24-.24-.34-.33l0-.21-.07,0a1.64,1.64,0,0,1-.35-.29m-1,0-.16,0,.3-1.78.25,0a.82.82,0,0,1,.22,0,1.05,1.05,0,0,0-.51.87c0,.31-.05.62-.05.92h0"/><path class="cls-27" d="M791.75,82.69a1,1,0,0,1-.26-.23,1.19,1.19,0,0,1-.17-.31,1.41,1.41,0,0,1-.08-.4h0a.27.27,0,0,0-.26-.29.28.28,0,0,0-.29.27v0a1.81,1.81,0,0,0,.24.87l.08.12a1,1,0,0,0,.13.16,1.35,1.35,0,0,0,.32.26h0a2.06,2.06,0,0,0,1,.26h0a.28.28,0,0,0,.27-.27.26.26,0,0,0-.26-.28,1.51,1.51,0,0,1-.71-.19"/><path class="cls-25" d="M693.81,178.13h-16v-10.5l7.94-5.34,8.06,5.34Z"/><path class="cls-27" d="M682.32,167.65a1,1,0,1,1,.77,1.25,1,1,0,0,1-.77-1.25"/><path class="cls-27" d="M682.47,177.1a.46.46,0,1,0,.92,0v-2.79h.84a15.54,15.54,0,0,0-.36-3.95,2.72,2.72,0,0,1-.42,0,3.22,3.22,0,0,1-.7-.09.43.43,0,0,1-.29-.52.43.43,0,0,1,.4-.3l.12,0h0a.22.22,0,0,0,.1,0,1.56,1.56,0,0,0,.35,0h.08a.8.8,0,0,0-.66-.41c-1.56,0-1.36,5.16-1.36,5.16h1Z"/><path class="cls-27" d="M683.08,169.62l-.1,0h0a.32.32,0,0,0-.4.22.32.32,0,0,0,.22.4h0a3,3,0,0,0,.68.08l.4,0a2,2,0,0,0,.84-.33,2.36,2.36,0,0,0,.89-1.6.32.32,0,0,0-.27-.37.32.32,0,0,0-.37.26,1.66,1.66,0,0,1-.63,1.18,1.41,1.41,0,0,1-.72.24h-.14a1.73,1.73,0,0,1-.37,0"/><path class="cls-27" d="M689.16,169.87a.91.91,0,1,1-.91.91.91.91,0,0,1,.91-.91"/><path class="cls-27" d="M688.47,173.73a1.46,1.46,0,0,1-.16-.19l-.06-.1a1.84,1.84,0,0,1-.25-.92v0a.37.37,0,0,1,.37-.35h0a.37.37,0,0,1,.36.38,1.16,1.16,0,0,0,.07.37,1.47,1.47,0,0,0,.1.22c.08-.43.15-1-.15-1.18l0,0a1.38,1.38,0,0,0-.84-.28h-.21l0-.24-1.18-.2a.25.25,0,0,0-.27.19l-.41,2.45a.23.23,0,0,0,.19.26l1.18.2.07-.41a.65.65,0,0,0,.2,0h0c0,.08,0,.15,0,.23a1.1,1.1,0,0,0,.44.89,2.61,2.61,0,0,1-.89,1.78.44.44,0,0,0,.62.62,3.7,3.7,0,0,0,1.1-1.92,1.75,1.75,0,0,1,.22.87,2.11,2.11,0,0,1-.09.62.45.45,0,0,0,.3.54l.12,0a.46.46,0,0,0,.43-.32,3.36,3.36,0,0,0,.12-.86,2.7,2.7,0,0,0-.68-1.78,2.07,2.07,0,0,0-.34-.33l0-.21-.07,0a1.64,1.64,0,0,1-.35-.29m-1,0h-.16l.3-1.79.25,0,.22,0a1.09,1.09,0,0,0-.51.87c0,.31-.05.62-.05.93h0"/><path class="cls-27" d="M689.15,173.46a1,1,0,0,1-.26-.22,1.24,1.24,0,0,1-.17-.32,1.21,1.21,0,0,1-.07-.4h0a.28.28,0,0,0-.56,0v0a1.76,1.76,0,0,0,.24.87.83.83,0,0,0,.08.12l.13.17a1.81,1.81,0,0,0,.33.26h0a2,2,0,0,0,1,.26h0a.28.28,0,0,0,.28-.26.28.28,0,0,0-.27-.29,1.43,1.43,0,0,1-.71-.19"/><path class="cls-25" d="M625.06,139.1h-16V128.6l7.94-5.34,8.07,5.34Z"/><path class="cls-27" d="M613.57,128.62a1,1,0,1,1,.77,1.25,1,1,0,0,1-.77-1.25"/><path class="cls-27" d="M613.72,138.07a.45.45,0,0,0,.46.46.46.46,0,0,0,.46-.46v-2.78h.83a15.41,15.41,0,0,0-.35-4,1.93,1.93,0,0,1-.42,0h0a2.64,2.64,0,0,1-.69-.09.42.42,0,0,1-.29-.52.43.43,0,0,1,.4-.3l.12,0h0l.1,0a2.51,2.51,0,0,0,.34,0h.09a.84.84,0,0,0-.67-.41c-1.55,0-1.36,5.17-1.36,5.17h1Z"/><path class="cls-27" d="M614.33,130.6l-.1,0h0a.32.32,0,0,0-.18.62,2.72,2.72,0,0,0,.68.09,2,2,0,0,0,.4,0,1.93,1.93,0,0,0,.83-.33,2.28,2.28,0,0,0,.9-1.6.32.32,0,0,0-.27-.37.32.32,0,0,0-.37.26,1.66,1.66,0,0,1-.63,1.18,1.35,1.35,0,0,1-.73.24h-.13a3.06,3.06,0,0,1-.37,0"/><path class="cls-27" d="M620.41,130.85a.91.91,0,1,1-.91.91.91.91,0,0,1,.91-.91"/><path class="cls-27" d="M619.72,134.71a1.56,1.56,0,0,1-.16-.2l-.06-.1a1.8,1.8,0,0,1-.25-.91v0a.37.37,0,0,1,.37-.36h0a.38.38,0,0,1,.36.38,1.33,1.33,0,0,0,.06.37,1.13,1.13,0,0,0,.11.22c.08-.43.15-1-.15-1.17l0,0a1.34,1.34,0,0,0-.84-.29l-.21,0,0-.25-1.18-.19a.22.22,0,0,0-.27.19l-.41,2.44a.23.23,0,0,0,.19.27l1.18.2.07-.41h.25a1.77,1.77,0,0,0,0,.23,1.06,1.06,0,0,0,.44.89,2.61,2.61,0,0,1-.89,1.78.44.44,0,0,0,.62.62,3.67,3.67,0,0,0,1.09-1.92,1.68,1.68,0,0,1,.23.87,2.44,2.44,0,0,1-.09.62.43.43,0,0,0,.3.54.25.25,0,0,0,.12,0,.43.43,0,0,0,.42-.32,3,3,0,0,0,.13-.86,2.7,2.7,0,0,0-.68-1.78,3.39,3.39,0,0,0-.34-.33,1.55,1.55,0,0,0,0-.21l-.06,0a1.6,1.6,0,0,1-.35-.28m-1-.06h-.16l.3-1.78a1,1,0,0,1,.25,0l.22,0a1.09,1.09,0,0,0-.51.87,7.25,7.25,0,0,0-.05.93h0"/><path class="cls-27" d="M620.4,134.44a1.19,1.19,0,0,1-.26-.23.9.9,0,0,1-.17-.32,1.31,1.31,0,0,1-.08-.39h0a.26.26,0,0,0-.26-.28.28.28,0,0,0-.29.26v0a1.81,1.81,0,0,0,.24.87l.08.12a.91.91,0,0,0,.13.16,2.13,2.13,0,0,0,.32.26h0a2.05,2.05,0,0,0,1,.27h0a.28.28,0,0,0,0-.56,1.52,1.52,0,0,1-.71-.18"/><path class="cls-25" d="M605.73,118h-16v-10.5l7.94-5.34,8.07,5.34Z"/><path class="cls-27" d="M594.23,107.53a1,1,0,0,1,1.25-.77,1,1,0,0,1-.47,2,1,1,0,0,1-.78-1.25"/><path class="cls-27" d="M594.38,117a.47.47,0,0,0,.93,0V114.2h.83a15.91,15.91,0,0,0-.35-4,2,2,0,0,1-.43,0,2.75,2.75,0,0,1-.7-.09.41.41,0,0,1,.12-.81h.14l.09,0a2.69,2.69,0,0,0,.35,0h.08a.8.8,0,0,0-.66-.42c-1.56,0-1.36,5.17-1.36,5.17h1Z"/><path class="cls-27" d="M595,109.51l-.11,0h0a.32.32,0,1,0-.18.62,2.17,2.17,0,0,0,.67.09l.4,0a2,2,0,0,0,.84-.34,2.31,2.31,0,0,0,.89-1.6.32.32,0,0,0-.26-.37.33.33,0,0,0-.38.27,1.67,1.67,0,0,1-.62,1.17,1.49,1.49,0,0,1-.73.25h-.14a1.79,1.79,0,0,1-.36,0"/><path class="cls-27" d="M601.07,109.76a.91.91,0,1,1-.91.91.91.91,0,0,1,.91-.91"/><path class="cls-27" d="M600.38,113.62l-.15-.19-.07-.11a1.91,1.91,0,0,1-.25-.91v0a.37.37,0,0,1,.37-.36h0a.36.36,0,0,1,.35.38,1.16,1.16,0,0,0,.07.36.65.65,0,0,0,.11.22c.08-.43.14-1-.16-1.17a0,0,0,0,0,0,0,1.36,1.36,0,0,0-.84-.29l-.21,0,0-.24-1.17-.2a.23.23,0,0,0-.27.19l-.42,2.44a.24.24,0,0,0,.2.27l1.17.2.07-.41h.25a1.85,1.85,0,0,1,0,.23,1.09,1.09,0,0,0,.44.89,2.53,2.53,0,0,1-.89,1.78.45.45,0,0,0,0,.63.44.44,0,0,0,.62,0,3.78,3.78,0,0,0,1.1-1.92,1.71,1.71,0,0,1,.23.86,2.1,2.1,0,0,1-.1.62.45.45,0,0,0,.31.55h.12a.44.44,0,0,0,.42-.31,3.11,3.11,0,0,0,.13-.87,2.65,2.65,0,0,0-.69-1.78q-.18-.2-.33-.33a1.55,1.55,0,0,1,0-.21l-.07,0a1.54,1.54,0,0,1-.35-.28m-1-.06h-.16l.3-1.78a1.07,1.07,0,0,1,.25,0l.23,0a1.06,1.06,0,0,0-.52.87c0,.3,0,.61,0,.92h-.05"/><path class="cls-27" d="M601.07,113.35a1.25,1.25,0,0,1-.27-.23,1.1,1.1,0,0,1-.17-.32,1.16,1.16,0,0,1-.07-.39h0a.28.28,0,0,0-.55,0v0a1.87,1.87,0,0,0,.23.87l.08.12.14.16a1.18,1.18,0,0,0,.32.26h0a2.06,2.06,0,0,0,1,.27h0a.28.28,0,0,0,.28-.27.29.29,0,0,0-.27-.29,1.37,1.37,0,0,1-.7-.18"/><path class="cls-25" d="M587.29,50.32h-16V39.81l7.94-5.33,8.07,5.33Z"/><path class="cls-27" d="M575.79,39.83a1,1,0,1,1,.78,1.25,1,1,0,0,1-.78-1.25"/><path class="cls-27" d="M575.94,49.28a.47.47,0,1,0,.93,0V46.5h.83a15.84,15.84,0,0,0-.35-4,3,3,0,0,1-.43,0h0a2.75,2.75,0,0,1-.7-.09.4.4,0,0,1-.28-.51.41.41,0,0,1,.4-.3.2.2,0,0,1,.11,0h0l.09,0a2.69,2.69,0,0,0,.35,0H577a.8.8,0,0,0-.66-.42c-1.56,0-1.36,5.17-1.36,5.17h1Z"/><path class="cls-27" d="M576.56,41.81l-.1,0h0a.32.32,0,0,0-.4.22.32.32,0,0,0,.22.4,2.17,2.17,0,0,0,.67.09l.4,0a2,2,0,0,0,.84-.34,2.31,2.31,0,0,0,.89-1.59.32.32,0,1,0-.64-.11,1.72,1.72,0,0,1-.62,1.18,1.47,1.47,0,0,1-.73.24h-.14a1.79,1.79,0,0,1-.36,0"/><path class="cls-27" d="M582.63,42.06a.91.91,0,1,1-.91.91.91.91,0,0,1,.91-.91"/><path class="cls-27" d="M581.94,45.92l-.15-.19-.07-.1a2,2,0,0,1-.25-.92v0a.37.37,0,0,1,.37-.35h0a.37.37,0,0,1,.35.38,1.24,1.24,0,0,0,.07.37.91.91,0,0,0,.11.22c.08-.44.14-1-.16-1.18l0,0a1.35,1.35,0,0,0-.84-.28h-.21l0-.24-1.17-.2a.23.23,0,0,0-.27.19L579.35,46a.22.22,0,0,0,.19.27l1.17.2.07-.41.2,0h0a1.62,1.62,0,0,1,0,.22,1.07,1.07,0,0,0,.44.89,2.57,2.57,0,0,1-.89,1.79.44.44,0,0,0,.62.62,3.74,3.74,0,0,0,1.1-1.92,1.75,1.75,0,0,1,.23.87,2.15,2.15,0,0,1-.1.62.44.44,0,0,0,.31.54l.12,0a.45.45,0,0,0,.42-.32,3,3,0,0,0,.13-.86,2.68,2.68,0,0,0-.69-1.79q-.18-.2-.33-.33a1.55,1.55,0,0,1,0-.21l-.07,0a1.93,1.93,0,0,1-.35-.29m-1-.05-.16,0,.3-1.78.25,0a.9.9,0,0,1,.23,0,1.06,1.06,0,0,0-.52.87c0,.31-.05.62-.05.93h0"/><path class="cls-27" d="M582.63,45.65a1,1,0,0,1-.27-.23,1.19,1.19,0,0,1-.17-.31,1.24,1.24,0,0,1-.07-.4h0a.28.28,0,0,0-.27-.29.27.27,0,0,0-.28.27v0a1.94,1.94,0,0,0,.24.87l.08.12a1,1,0,0,0,.13.16,1.49,1.49,0,0,0,.33.27h0a2.06,2.06,0,0,0,1,.26h0a.28.28,0,0,0,.28-.27.28.28,0,0,0-.27-.28,1.47,1.47,0,0,1-.7-.19"/><path class="cls-25" d="M607.65,19.13h-16V8.62l7.94-5.33,8.06,5.33Z"/><path class="cls-27" d="M596.16,8.65a1,1,0,1,1,.77,1.24,1,1,0,0,1-.77-1.24"/><path class="cls-27" d="M596.31,18.1a.46.46,0,0,0,.46.46.47.47,0,0,0,.46-.46V15.31h.84a15.54,15.54,0,0,0-.36-4,2.77,2.77,0,0,1-.42,0,2.28,2.28,0,0,1-.7-.09.42.42,0,0,1-.29-.51.43.43,0,0,1,.4-.3.25.25,0,0,1,.12,0h0l.1,0a1.56,1.56,0,0,0,.35,0h.08a.81.81,0,0,0-.67-.42c-1.55,0-1.36,5.17-1.36,5.17h1Z"/><path class="cls-27" d="M596.92,10.62l-.1,0h0a.32.32,0,1,0-.18.62,2.27,2.27,0,0,0,.68.09l.4,0a1.91,1.91,0,0,0,.84-.34,2.31,2.31,0,0,0,.89-1.59.33.33,0,0,0-.27-.38.32.32,0,0,0-.37.27,1.68,1.68,0,0,1-.63,1.18,1.44,1.44,0,0,1-.73.24h-.13a1.83,1.83,0,0,1-.37,0"/><path class="cls-27" d="M603,10.87a.91.91,0,1,1-.91.91.91.91,0,0,1,.91-.91"/><path class="cls-27" d="M602.31,14.73a1.46,1.46,0,0,1-.16-.19l-.06-.1a1.87,1.87,0,0,1-.25-.92v0a.37.37,0,0,1,.37-.35h0a.38.38,0,0,1,.36.38,1.24,1.24,0,0,0,.07.37.88.88,0,0,0,.1.22c.08-.44.15-1-.15-1.18l0,0a1.38,1.38,0,0,0-.84-.28h-.21l0-.24-1.18-.2a.23.23,0,0,0-.27.19l-.41,2.44a.24.24,0,0,0,.19.27l1.18.2.07-.41.2,0h0a1.85,1.85,0,0,0,0,.23,1,1,0,0,0,.44.88,2.61,2.61,0,0,1-.89,1.79.44.44,0,1,0,.62.62,3.74,3.74,0,0,0,1.1-1.92,1.75,1.75,0,0,1,.22.87,2.11,2.11,0,0,1-.09.62.44.44,0,0,0,.3.54l.12,0a.44.44,0,0,0,.42-.32,3,3,0,0,0,.13-.86,2.73,2.73,0,0,0-.68-1.79c-.12-.13-.24-.24-.34-.33l0-.21-.07,0a1.64,1.64,0,0,1-.35-.29m-1-.05-.16,0,.3-1.78.25,0a.82.82,0,0,1,.22,0,1.07,1.07,0,0,0-.51.87c0,.31-.05.62-.05.93h0"/><path class="cls-27" d="M603,14.46a.83.83,0,0,1-.26-.23,1.19,1.19,0,0,1-.17-.31,1.21,1.21,0,0,1-.07-.4h0a.29.29,0,0,0-.27-.29.28.28,0,0,0-.29.27v0a1.76,1.76,0,0,0,.24.87l.08.12a1,1,0,0,0,.13.16,1.49,1.49,0,0,0,.33.27h0a2.06,2.06,0,0,0,1,.26h0a.27.27,0,0,0,.27-.27.26.26,0,0,0-.26-.28,1.51,1.51,0,0,1-.71-.19"/><path class="cls-25" d="M224.66,616h-16V605.46l7.94-5.33,8.07,5.33Z"/><path class="cls-27" d="M213.16,605.48a1,1,0,1,1,.78,1.25,1,1,0,0,1-.78-1.25"/><path class="cls-27" d="M213.31,614.93a.47.47,0,1,0,.93,0v-2.78h.83a15.82,15.82,0,0,0-.35-3.95,3,3,0,0,1-.43,0,2.64,2.64,0,0,1-.69-.09.41.41,0,0,1-.29-.51.42.42,0,0,1,.4-.3h.14l.1,0a2.36,2.36,0,0,0,.34,0h.09a.83.83,0,0,0-.67-.42c-1.55,0-1.36,5.17-1.36,5.17h1Z"/><path class="cls-27" d="M213.93,607.46l-.1,0h0a.32.32,0,1,0-.18.62,2.24,2.24,0,0,0,.67.09l.4,0a2,2,0,0,0,.84-.34,2.32,2.32,0,0,0,.9-1.59.34.34,0,0,0-.27-.38.32.32,0,0,0-.37.27,1.72,1.72,0,0,1-.63,1.18,1.47,1.47,0,0,1-.73.24h-.14a1.79,1.79,0,0,1-.36,0"/><path class="cls-27" d="M220,607.71a.91.91,0,1,1-.91.91.91.91,0,0,1,.91-.91"/><path class="cls-27" d="M219.32,611.57a1.46,1.46,0,0,1-.16-.19l-.06-.1a1.87,1.87,0,0,1-.25-.92v0a.36.36,0,0,1,.36-.35h0a.37.37,0,0,1,.35.38,1.24,1.24,0,0,0,.07.37,1.51,1.51,0,0,0,.11.22c.08-.44.14-1-.15-1.18l0,0a1.39,1.39,0,0,0-.85-.28h-.2l0-.24-1.18-.2a.23.23,0,0,0-.27.19l-.41,2.44a.23.23,0,0,0,.19.27l1.18.2.07-.41.19,0h.06V612a1.11,1.11,0,0,0,.44.89,2.58,2.58,0,0,1-.88,1.79.42.42,0,0,0,0,.62.44.44,0,0,0,.62,0,3.71,3.71,0,0,0,1.09-1.92,1.75,1.75,0,0,1,.23.87,2.5,2.5,0,0,1-.09.62.43.43,0,0,0,.3.54l.12,0a.45.45,0,0,0,.42-.32,3,3,0,0,0,.13-.86,2.66,2.66,0,0,0-.69-1.79,3.42,3.42,0,0,0-.33-.33c0-.07,0-.14,0-.21l-.06,0a1.64,1.64,0,0,1-.35-.29m-1-.05-.16,0,.3-1.78.25,0a.9.9,0,0,1,.23,0,1.06,1.06,0,0,0-.52.87c0,.31,0,.61,0,.92h-.05"/><path class="cls-27" d="M220,611.3a.73.73,0,0,1-.26-.23,1.24,1.24,0,0,1-.18-.31,1.58,1.58,0,0,1-.07-.4h0a.27.27,0,0,0-.26-.29.27.27,0,0,0-.29.27v0a1.78,1.78,0,0,0,.24.87l.07.12a1.07,1.07,0,0,0,.14.16,1.43,1.43,0,0,0,.32.27h0a2.06,2.06,0,0,0,1,.26h0a.28.28,0,0,0,.28-.27.27.27,0,0,0-.27-.28,1.47,1.47,0,0,1-.7-.19"/><path class="cls-25" d="M292.52,566h-16V555.5l7.94-5.33,8.07,5.33Z"/><path class="cls-27" d="M281,555.53a1,1,0,1,1,.78,1.24,1,1,0,0,1-.78-1.24"/><path class="cls-27" d="M281.17,565a.47.47,0,0,0,.46.47.46.46,0,0,0,.46-.47v-2.78h.84a15.84,15.84,0,0,0-.35-4,3,3,0,0,1-.43,0,2.28,2.28,0,0,1-.7-.09.41.41,0,0,1,.11-.81h.15l.09,0a2.53,2.53,0,0,0,.35,0h.08a.8.8,0,0,0-.66-.42c-1.56,0-1.36,5.17-1.36,5.17h1Z"/><path class="cls-27" d="M281.79,557.5l-.11,0h0a.32.32,0,0,0-.4.22.33.33,0,0,0,.21.41,3.16,3.16,0,0,0,.68.08l.4,0a1.91,1.91,0,0,0,.84-.34,2.31,2.31,0,0,0,.89-1.59.33.33,0,0,0-.26-.38.34.34,0,0,0-.38.27,1.69,1.69,0,0,1-.62,1.18,1.47,1.47,0,0,1-.73.24h-.14a1.73,1.73,0,0,1-.36,0"/><path class="cls-27" d="M287.86,557.75a.91.91,0,1,1-.91.91.91.91,0,0,1,.91-.91"/><path class="cls-27" d="M287.17,561.61a.9.9,0,0,1-.15-.19.61.61,0,0,1-.07-.1,2,2,0,0,1-.25-.92v0a.37.37,0,0,1,.37-.35h0a.37.37,0,0,1,.35.38,1.24,1.24,0,0,0,.07.37.91.91,0,0,0,.11.22c.07-.44.14-1-.16-1.18l0,0a1.38,1.38,0,0,0-.84-.28h-.21l0-.24-1.18-.2a.23.23,0,0,0-.26.19l-.42,2.44a.24.24,0,0,0,.19.27l1.18.2.07-.41.2,0h.05c0,.07,0,.15,0,.23a1.06,1.06,0,0,0,.44.88,2.61,2.61,0,0,1-.89,1.79.44.44,0,0,0,.62.62,3.74,3.74,0,0,0,1.1-1.92,1.86,1.86,0,0,1,.23.87,2.15,2.15,0,0,1-.1.62.45.45,0,0,0,.3.54l.12,0a.45.45,0,0,0,.43-.32,3.42,3.42,0,0,0,.12-.86,2.73,2.73,0,0,0-.68-1.79,3.44,3.44,0,0,0-.34-.33l0-.21-.07,0a1.64,1.64,0,0,1-.35-.29m-1-.05-.16,0,.3-1.78.25,0a.93.93,0,0,1,.23,0,1.08,1.08,0,0,0-.52.87c0,.31-.05.62-.05.93h-.05"/><path class="cls-27" d="M287.85,561.34a.83.83,0,0,1-.26-.23,1.19,1.19,0,0,1-.17-.31,1.21,1.21,0,0,1-.07-.4h0a.28.28,0,0,0-.56,0v0a1.88,1.88,0,0,0,.24.87l.08.12.13.17a1.81,1.81,0,0,0,.33.26h0a2,2,0,0,0,1,.26h0a.28.28,0,0,0,.28-.26.28.28,0,0,0-.27-.29,1.55,1.55,0,0,1-.71-.19"/><path class="cls-25" d="M232.66,534.34h-16v-10.5l7.94-5.34,8.06,5.34Z"/><path class="cls-27" d="M221.17,523.86a1,1,0,0,1,2,.47,1,1,0,1,1-2-.47"/><path class="cls-27" d="M221.32,533.31a.45.45,0,0,0,.46.46.46.46,0,0,0,.46-.46v-2.78h.83a15.41,15.41,0,0,0-.35-4,1.93,1.93,0,0,1-.42,0,2.67,2.67,0,0,1-.7-.09.43.43,0,0,1-.29-.52.42.42,0,0,1,.4-.29h.14l.1,0a2.53,2.53,0,0,0,.35,0h.08a.83.83,0,0,0-.67-.42c-1.55,0-1.36,5.17-1.36,5.17h1Z"/><path class="cls-27" d="M221.93,525.84l-.1,0h0a.32.32,0,1,0-.18.62,2.27,2.27,0,0,0,.68.09,1.94,1.94,0,0,0,.4,0,1.89,1.89,0,0,0,.84-.33,2.31,2.31,0,0,0,.89-1.6.32.32,0,1,0-.64-.1,1.66,1.66,0,0,1-.63,1.17,1.35,1.35,0,0,1-.73.24h-.13a3.06,3.06,0,0,1-.37,0"/><path class="cls-27" d="M228,526.09a.91.91,0,1,1-.91.91.91.91,0,0,1,.91-.91"/><path class="cls-27" d="M227.32,530a1.56,1.56,0,0,1-.16-.2l-.06-.1a1.8,1.8,0,0,1-.25-.91v0a.37.37,0,0,1,.37-.36h0a.36.36,0,0,1,.36.38,1.16,1.16,0,0,0,.07.36.64.64,0,0,0,.1.22c.08-.43.15-1-.15-1.17l0,0a1.4,1.4,0,0,0-.84-.29l-.21,0,0-.24-1.18-.2a.24.24,0,0,0-.27.19l-.41,2.44a.24.24,0,0,0,.19.27l1.18.2.07-.41h.25a1.69,1.69,0,0,0,0,.23,1.06,1.06,0,0,0,.44.89A2.57,2.57,0,0,1,226,533a.44.44,0,0,0,0,.62.42.42,0,0,0,.62,0,3.7,3.7,0,0,0,1.1-1.92,1.78,1.78,0,0,1,.22.87,2.06,2.06,0,0,1-.09.62.44.44,0,0,0,.3.55h.12a.43.43,0,0,0,.42-.31,3.11,3.11,0,0,0,.13-.87,2.7,2.7,0,0,0-.68-1.78c-.12-.13-.24-.24-.34-.33l0-.21-.07,0a1.6,1.6,0,0,1-.35-.28m-1-.06h-.16l.3-1.78a1,1,0,0,1,.25,0,1.66,1.66,0,0,1,.22,0,1.05,1.05,0,0,0-.51.87c0,.3-.05.61-.05.92h0"/><path class="cls-27" d="M228,529.68a1.19,1.19,0,0,1-.26-.23,1.1,1.1,0,0,1-.17-.32.94.94,0,0,1-.07-.39h0a.28.28,0,0,0-.56,0v0a1.81,1.81,0,0,0,.24.87l.08.12a1.83,1.83,0,0,0,.13.16,1.35,1.35,0,0,0,.32.26h0a2.05,2.05,0,0,0,1,.27h0a.28.28,0,0,0,0-.56,1.41,1.41,0,0,1-.71-.18"/><path class="cls-25" d="M262.37,513.43h-16V502.92l7.94-5.33,8.07,5.33Z"/><path class="cls-27" d="M250.87,502.94a1,1,0,1,1,.78,1.25,1,1,0,0,1-.78-1.25"/><path class="cls-27" d="M251,512.39a.47.47,0,1,0,.93,0v-2.78h.83a15.82,15.82,0,0,0-.35-3.95,3,3,0,0,1-.43,0,2.83,2.83,0,0,1-.7-.09.41.41,0,0,1,.12-.81h.14l.1,0a2.36,2.36,0,0,0,.34,0h.08a.8.8,0,0,0-.66-.42c-1.56,0-1.36,5.17-1.36,5.17h1Z"/><path class="cls-27" d="M251.64,504.92l-.1,0h0a.32.32,0,1,0-.18.62,2.24,2.24,0,0,0,.67.09l.4,0a2,2,0,0,0,.84-.34,2.28,2.28,0,0,0,.89-1.6.32.32,0,0,0-.26-.37.32.32,0,0,0-.37.27,1.67,1.67,0,0,1-.63,1.17,1.49,1.49,0,0,1-.73.25H252a1.79,1.79,0,0,1-.36,0"/><path class="cls-27" d="M257.71,505.17a.91.91,0,1,1-.91.91.91.91,0,0,1,.91-.91"/><path class="cls-27" d="M257,509a1.46,1.46,0,0,1-.16-.19l-.06-.1a1.87,1.87,0,0,1-.25-.92v0a.36.36,0,0,1,.36-.35h0a.36.36,0,0,1,.35.38,1.16,1.16,0,0,0,.07.36,1.23,1.23,0,0,0,.11.23c.08-.44.14-1-.15-1.18,0,0,0,0,0,0a1.33,1.33,0,0,0-.85-.28h-.2l0-.24-1.18-.2a.23.23,0,0,0-.27.19l-.41,2.44a.23.23,0,0,0,.19.27l1.18.2.07-.41.19,0h.06v.23a1.11,1.11,0,0,0,.44.89,2.58,2.58,0,0,1-.88,1.79.42.42,0,0,0,0,.62.44.44,0,0,0,.62,0,3.71,3.71,0,0,0,1.09-1.92,1.74,1.74,0,0,1,.23.86,2.44,2.44,0,0,1-.09.62.44.44,0,0,0,.3.55l.12,0a.45.45,0,0,0,.42-.32,3.11,3.11,0,0,0,.13-.87,2.65,2.65,0,0,0-.69-1.78,3.42,3.42,0,0,0-.33-.33c0-.07,0-.14,0-.21l-.06,0A1.35,1.35,0,0,1,257,509m-1-.06a.43.43,0,0,1-.16,0l.3-1.78a1.06,1.06,0,0,1,.25,0,.9.9,0,0,1,.23,0,1.06,1.06,0,0,0-.52.87c0,.31,0,.61-.05.92h-.05"/><path class="cls-27" d="M257.71,508.76a.84.84,0,0,1-.26-.23,1.24,1.24,0,0,1-.18-.31,1.65,1.65,0,0,1-.07-.4h0a.28.28,0,0,0-.55,0v0a1.81,1.81,0,0,0,.24.87l.07.12.14.16a1.18,1.18,0,0,0,.32.26h0a2.06,2.06,0,0,0,1,.26h0a.28.28,0,0,0,.28-.27.27.27,0,0,0-.27-.28,1.47,1.47,0,0,1-.7-.19"/><path class="cls-25" d="M272.47,487.53h-16V477l7.94-5.34,8.07,5.34Z"/><path class="cls-27" d="M261,477.05a1,1,0,0,1,1.25-.78,1,1,0,1,1-1.25.78"/><path class="cls-27" d="M261.12,486.5a.47.47,0,0,0,.46.46.46.46,0,0,0,.46-.46v-2.79h.84a15.84,15.84,0,0,0-.35-3.95,3,3,0,0,1-.43,0,2.94,2.94,0,0,1-.7-.08.42.42,0,0,1-.28-.52.41.41,0,0,1,.4-.3l.11,0h0l.09,0a1.62,1.62,0,0,0,.35,0h.08a.8.8,0,0,0-.66-.42c-1.56,0-1.36,5.17-1.36,5.17h1Z"/><path class="cls-27" d="M261.74,479l-.1,0h0a.32.32,0,0,0-.4.21.32.32,0,0,0,.22.41,2.89,2.89,0,0,0,.67.08l.4,0a2,2,0,0,0,.84-.33,2.36,2.36,0,0,0,.89-1.6.31.31,0,0,0-.26-.37.32.32,0,0,0-.38.26,1.69,1.69,0,0,1-.62,1.18,1.47,1.47,0,0,1-.73.24h-.14a1.79,1.79,0,0,1-.36,0"/><path class="cls-27" d="M267.81,479.27a.91.91,0,1,1-.91.91.91.91,0,0,1,.91-.91"/><path class="cls-27" d="M267.12,483.13a1.39,1.39,0,0,1-.15-.19l-.07-.1a2,2,0,0,1-.25-.92v0a.37.37,0,0,1,.37-.35h0a.37.37,0,0,1,.35.38,1.16,1.16,0,0,0,.07.37.91.91,0,0,0,.11.22c.08-.44.14-1-.16-1.18l0,0a1.35,1.35,0,0,0-.84-.28h-.21l0-.24-1.17-.2a.24.24,0,0,0-.27.19l-.41,2.45a.22.22,0,0,0,.19.26l1.17.2.07-.41.2,0h0a1.69,1.69,0,0,1,0,.23,1.1,1.1,0,0,0,.44.89,2.56,2.56,0,0,1-.89,1.78.44.44,0,0,0,.62.62,3.7,3.7,0,0,0,1.1-1.92,1.75,1.75,0,0,1,.23.87,2.15,2.15,0,0,1-.1.62.44.44,0,0,0,.31.54l.12,0a.45.45,0,0,0,.42-.32,3,3,0,0,0,.12-.86,2.63,2.63,0,0,0-.68-1.79,3.19,3.19,0,0,0-.33-.32c0-.07,0-.15,0-.22l-.07,0a1.93,1.93,0,0,1-.35-.29m-1-.05H266l.3-1.79.25,0,.23,0a1.09,1.09,0,0,0-.52.87c0,.31-.05.62-.05.93h0"/><path class="cls-27" d="M267.81,482.86a.87.87,0,0,1-.27-.23,1.05,1.05,0,0,1-.17-.31,1.21,1.21,0,0,1-.07-.4h0a.29.29,0,0,0-.27-.29.27.27,0,0,0-.28.27v0a1.88,1.88,0,0,0,.24.87l.08.12.13.17a1.81,1.81,0,0,0,.33.26h0a2,2,0,0,0,1,.26h0a.28.28,0,0,0,.28-.26.28.28,0,0,0-.27-.29,1.47,1.47,0,0,1-.7-.19"/><path class="cls-25" d="M253.74,443.24h-16v-10.5l7.93-5.34,8.07,5.34Z"/><path class="cls-27" d="M242.25,432.76a1,1,0,0,1,2,.47,1,1,0,1,1-2-.47"/><path class="cls-27" d="M242.4,442.21a.45.45,0,0,0,.46.46.46.46,0,0,0,.46-.46v-2.78h.83a15.91,15.91,0,0,0-.35-4,1.93,1.93,0,0,1-.42,0,2.67,2.67,0,0,1-.7-.09.41.41,0,0,1,.11-.81h.14l.1,0a2.53,2.53,0,0,0,.35,0h.08a.83.83,0,0,0-.67-.42c-1.55,0-1.36,5.17-1.36,5.17h1Z"/><path class="cls-27" d="M243,434.74l-.1,0h0a.32.32,0,1,0-.18.62,2.27,2.27,0,0,0,.68.09,2,2,0,0,0,.4,0,1.93,1.93,0,0,0,.83-.33,2.28,2.28,0,0,0,.9-1.6.32.32,0,0,0-.64-.11,1.66,1.66,0,0,1-.63,1.18,1.35,1.35,0,0,1-.73.24h-.13a3.06,3.06,0,0,1-.37,0"/><path class="cls-27" d="M249.09,435a.91.91,0,1,1-.91.91.91.91,0,0,1,.91-.91"/><path class="cls-27" d="M248.4,438.85a1.56,1.56,0,0,1-.16-.2l-.06-.1a1.8,1.8,0,0,1-.25-.91v0a.37.37,0,0,1,.37-.36h0a.39.39,0,0,1,.36.39,1.33,1.33,0,0,0,.06.36,1.13,1.13,0,0,0,.11.22c.08-.43.15-1-.15-1.17,0,0,0,0,0,0a1.34,1.34,0,0,0-.84-.29l-.21,0,0-.24-1.18-.2a.23.23,0,0,0-.27.19L245.8,439a.23.23,0,0,0,.19.27l1.18.2.07-.41h.25a1.69,1.69,0,0,0,0,.23,1.06,1.06,0,0,0,.44.89,2.57,2.57,0,0,1-.89,1.78.44.44,0,0,0,0,.62.42.42,0,0,0,.62,0,3.77,3.77,0,0,0,1.1-1.92,1.78,1.78,0,0,1,.22.87,2.06,2.06,0,0,1-.09.62.44.44,0,0,0,.3.55h.12a.43.43,0,0,0,.42-.31,3.11,3.11,0,0,0,.13-.87,2.7,2.7,0,0,0-.68-1.78c-.12-.13-.24-.24-.34-.33a1.55,1.55,0,0,0,0-.21l-.06,0a1.6,1.6,0,0,1-.35-.28m-1-.06h-.16l.3-1.78a1,1,0,0,1,.25,0,.83.83,0,0,1,.22,0,1.05,1.05,0,0,0-.51.86c0,.31,0,.62,0,.93h-.05"/><path class="cls-27" d="M249.08,438.58a1.19,1.19,0,0,1-.26-.23.9.9,0,0,1-.17-.32,1.31,1.31,0,0,1-.08-.39h0a.26.26,0,0,0-.26-.28.28.28,0,0,0-.29.26v0a1.81,1.81,0,0,0,.24.87l.08.12a.91.91,0,0,0,.13.16,1.65,1.65,0,0,0,.32.26h0a2,2,0,0,0,1,.27h0a.28.28,0,0,0,0-.56,1.52,1.52,0,0,1-.71-.18"/><rect class="cls-25" x="233.76" y="465.66" width="15.33" height="2.92"/><rect class="cls-25" x="239.96" y="459.45" width="2.92" height="15.33"/><rect class="cls-25" x="904.24" y="556.68" width="15.33" height="2.92"/><rect class="cls-25" x="910.44" y="550.47" width="2.92" height="15.33"/><rect class="cls-25" x="886.8" y="46.55" width="15.33" height="2.92"/><rect class="cls-25" x="893.01" y="40.35" width="2.92" height="15.33"/></g></g></g></svg>